<svg width="16" height="16" viewBox="0 0 16 16" fill="none" xmlns="http://www.w3.org/2000/svg">
<g clip-path="url(#clip0_50131_14154)">
<path fill-rule="evenodd" clip-rule="evenodd" d="M8 1.28125C6.3604 1.28125 5.03125 2.6104 5.03125 4.25C5.03125 5.8896 6.3604 7.21875 8 7.21875C9.6396 7.21875 10.9688 5.8896 10.9688 4.25C10.9688 2.6104 9.6396 1.28125 8 1.28125ZM5.96875 4.25C5.96875 3.12817 6.87817 2.21875 8 2.21875C9.12183 2.21875 10.0312 3.12817 10.0312 4.25C10.0312 5.37183 9.12183 6.28125 8 6.28125C6.87817 6.28125 5.96875 5.37183 5.96875 4.25Z" fill="#1677FF"/>
<path d="M11.75 2.53125C11.4911 2.53125 11.2812 2.74112 11.2812 3C11.2812 3.25888 11.4911 3.46875 11.75 3.46875C12.6103 3.46875 13.1562 4.03483 13.1562 4.5625C13.1562 5.09017 12.6103 5.65625 11.75 5.65625C11.4911 5.65625 11.2812 5.86612 11.2812 6.125C11.2812 6.38388 11.4911 6.59375 11.75 6.59375C12.9608 6.59375 14.0938 5.76072 14.0938 4.5625C14.0938 3.36428 12.9608 2.53125 11.75 2.53125Z" fill="#1677FF"/>
<path d="M4.71875 3C4.71875 2.74112 4.50888 2.53125 4.25 2.53125C3.03924 2.53125 1.90625 3.36428 1.90625 4.5625C1.90625 5.76072 3.03924 6.59375 4.25 6.59375C4.50888 6.59375 4.71875 6.38388 4.71875 6.125C4.71875 5.86612 4.50888 5.65625 4.25 5.65625C3.3897 5.65625 2.84375 5.09017 2.84375 4.5625C2.84375 4.03483 3.3897 3.46875 4.25 3.46875C4.50888 3.46875 4.71875 3.25888 4.71875 3Z" fill="#1677FF"/>
<path fill-rule="evenodd" clip-rule="evenodd" d="M8 8.15625C6.88483 8.15625 5.85403 8.45674 5.08833 8.96721C4.32591 9.47549 3.78125 10.2292 3.78125 11.125C3.78125 12.0208 4.32591 12.7745 5.08833 13.2828C5.85403 13.7933 6.88483 14.0938 8 14.0938C9.11517 14.0938 10.146 13.7933 10.9117 13.2828C11.6741 12.7745 12.2188 12.0208 12.2188 11.125C12.2188 10.2292 11.6741 9.47549 10.9117 8.96721C10.146 8.45674 9.11517 8.15625 8 8.15625ZM4.71875 11.125C4.71875 10.6401 5.01355 10.1438 5.60837 9.74726C6.1999 9.3529 7.0441 9.09375 8 9.09375C8.9559 9.09375 9.8001 9.3529 10.3916 9.74726C10.9864 10.1438 11.2812 10.6401 11.2812 11.125C11.2812 11.6099 10.9864 12.1062 10.3916 12.5027C9.8001 12.8971 8.9559 13.1562 8 13.1562C7.0441 13.1562 6.1999 12.8971 5.60837 12.5027C5.01355 12.1062 4.71875 11.6099 4.71875 11.125Z" fill="#1677FF"/>
<path d="M12.5421 9.14959C12.5976 8.89672 12.8475 8.73668 13.1004 8.79213C13.7016 8.92396 14.2433 9.16209 14.6455 9.4912C15.0473 9.82002 15.3438 10.272 15.3438 10.8125C15.3438 11.353 15.0473 11.805 14.6455 12.1338C14.2433 12.4629 13.7016 12.701 13.1004 12.8329C12.8475 12.8883 12.5976 12.7283 12.5421 12.4754C12.4867 12.2225 12.6467 11.9726 12.8996 11.9171C13.3948 11.8085 13.7906 11.622 14.0518 11.4082C14.3134 11.1942 14.4062 10.9852 14.4062 10.8125C14.4062 10.6398 14.3134 10.4308 14.0518 10.2168C13.7906 10.003 13.3948 9.81647 12.8996 9.70787C12.6467 9.65242 12.4867 9.40247 12.5421 9.14959Z" fill="#1677FF"/>
<path d="M2.89959 8.79213C3.15247 8.73668 3.40242 8.89672 3.45787 9.14959C3.51332 9.40247 3.35328 9.65242 3.10041 9.70787C2.60518 9.81647 2.20941 10.003 1.9482 10.2168C1.68664 10.4308 1.59375 10.6398 1.59375 10.8125C1.59375 10.9852 1.68664 11.1942 1.9482 11.4082C2.20941 11.622 2.60518 11.8085 3.10041 11.9171C3.35328 11.9726 3.51332 12.2225 3.45787 12.4754C3.40242 12.7283 3.15247 12.8883 2.89959 12.8329C2.29842 12.701 1.75669 12.4629 1.3545 12.1338C0.952655 11.805 0.65625 11.353 0.65625 10.8125C0.65625 10.272 0.952655 9.82002 1.3545 9.4912C1.75669 9.16209 2.29842 8.92396 2.89959 8.79213Z" fill="#1677FF"/>
</g>
<defs>
<clipPath id="clip0_50131_14154">
<rect width="15" height="15" fill="white" transform="translate(0.5 0.5)"/>
</clipPath>
</defs>
</svg>
