<svg width="20" height="20" viewBox="0 0 20 20" fill="none" xmlns="http://www.w3.org/2000/svg">
<path fill-rule="evenodd" clip-rule="evenodd" d="M8.71753 1.04199L11.2503 1.04199C11.5955 1.04199 11.8753 1.32181 11.8753 1.66699C11.8753 2.01217 11.5955 2.29199 11.2503 2.29199H8.75033C7.37429 2.29199 6.38616 2.29265 5.6154 2.36594C4.85394 2.43834 4.36941 2.57718 3.98314 2.81389C3.50659 3.10592 3.10592 3.50659 2.81389 3.98314C2.57718 4.36942 2.43834 4.85394 2.36594 5.6154C2.29265 6.38616 2.29199 7.37429 2.29199 8.75033V9.58366C2.29199 10.5629 2.29233 11.2661 2.33019 11.8209C2.36766 12.3702 2.4398 12.7283 2.56159 13.0223C2.92104 13.8901 3.61051 14.5796 4.47832 14.9391C4.90802 15.1171 5.45621 15.1836 6.50241 15.2016L6.52893 15.2021C6.86059 15.2078 7.15123 15.2128 7.3928 15.2395C7.65238 15.2683 7.90625 15.3264 8.15021 15.4683C8.39212 15.609 8.5666 15.7969 8.71871 16.0056C8.85926 16.1985 9.0037 16.4425 9.1673 16.7189L9.63259 17.5051C9.79322 17.7764 10.2074 17.7764 10.368 17.5051L10.8333 16.7189C10.9969 16.4425 11.1414 16.1985 11.2819 16.0056C11.434 15.7969 11.6085 15.609 11.8504 15.4683C12.0944 15.3264 12.3482 15.2683 12.6078 15.2395C12.8494 15.2128 13.14 15.2078 13.4717 15.2021L13.4982 15.2016C14.5444 15.1836 15.0926 15.1171 15.5223 14.9391C16.3901 14.5796 17.0796 13.8901 17.4391 13.0223C17.5608 12.7283 17.633 12.3702 17.6705 11.8209C17.7083 11.2661 17.7087 10.5629 17.7087 9.58366V8.75033C17.7087 8.40515 17.9885 8.12533 18.3337 8.12533C18.6788 8.12533 18.9587 8.40515 18.9587 8.75033V9.60686C18.9587 10.5579 18.9587 11.3036 18.9176 11.906C18.8757 12.5189 18.7893 13.029 18.5939 13.5007C18.1076 14.6748 17.1748 15.6076 16.0007 16.0939C15.3299 16.3718 14.5658 16.4334 13.5197 16.4514C13.1538 16.4577 12.9221 16.4624 12.7454 16.4819C12.5803 16.5002 12.5163 16.527 12.4789 16.5488C12.4394 16.5718 12.3855 16.6136 12.2921 16.7419C12.1909 16.8806 12.0767 17.0724 11.8955 17.3785L11.4437 18.1418C10.7991 19.2309 9.20155 19.2309 8.5569 18.1418L8.10515 17.3785C7.92395 17.0724 7.80967 16.8806 7.70854 16.7419C7.61509 16.6136 7.56126 16.5718 7.52176 16.5488C7.48431 16.527 7.42031 16.5002 7.25523 16.4819C7.07855 16.4624 6.84679 16.4577 6.48087 16.4514C5.43481 16.4334 4.67078 16.3718 3.99997 16.0939C2.82587 15.6076 1.89306 14.6748 1.40674 13.5007C1.21135 13.029 1.12491 12.5189 1.08309 11.906C1.04199 11.3036 1.04199 10.5579 1.04199 9.60686L1.04199 8.71753C1.04199 7.38137 1.04198 6.3339 1.12155 5.49708C1.20265 4.64412 1.3708 3.9457 1.74809 3.33002C2.14319 2.68528 2.68527 2.14319 3.33002 1.74809C3.9457 1.3708 4.64412 1.20265 5.49708 1.12155C6.3339 1.04198 7.38137 1.04199 8.71753 1.04199ZM15.8337 2.29199C14.7981 2.29199 13.9587 3.13146 13.9587 4.16699C13.9587 5.20253 14.7981 6.04199 15.8337 6.04199C16.8692 6.04199 17.7087 5.20253 17.7087 4.16699C17.7087 3.13146 16.8692 2.29199 15.8337 2.29199ZM12.7087 4.16699C12.7087 2.4411 14.1078 1.04199 15.8337 1.04199C17.5595 1.04199 18.9587 2.4411 18.9587 4.16699C18.9587 5.89288 17.5595 7.29199 15.8337 7.29199C14.1078 7.29199 12.7087 5.89288 12.7087 4.16699Z" fill="#CC2747"/>
</svg>
