<?xml version="1.0" encoding="UTF-8"?>
<svg version="1.1" xmlns="http://www.w3.org/2000/svg" width="512" height="512">
<path d="M0 0 C1.51427582 0.00081573 1.51427582 0.00081573 3.05914307 0.00164795 C19.56873539 0.04241399 35.48532001 0.94970691 51.6875 4.375 C52.72938477 4.59462402 53.77126953 4.81424805 54.84472656 5.04052734 C101.13799311 15.13814785 143.55163721 37.49728758 177.6875 70.375 C178.6765332 71.32318604 178.6765332 71.32318604 179.68554688 72.29052734 C189.17380305 81.43497479 197.9137044 90.73234009 205.6875 101.375 C206.54556152 102.52605017 207.40363451 103.67709177 208.26171875 104.828125 C214.29927396 113.01775981 219.68207302 121.52038276 224.6875 130.375 C225.0896875 131.08221191 225.491875 131.78942383 225.90625 132.51806641 C240.65970851 158.72274447 250.18920334 187.66046386 254.6875 217.375 C254.86482666 218.49382568 255.04215332 219.61265137 255.22485352 220.76538086 C256.90626346 232.48735984 257.04483932 244.10999018 257 255.9375 C256.99784485 256.95823608 256.9956897 257.97897217 256.99346924 259.03063965 C256.94380885 273.67098048 256.64184012 287.98818646 253.6875 302.375 C253.38948486 303.89383789 253.38948486 303.89383789 253.08544922 305.44335938 C242.24996509 359.62889649 213.79358584 413.75869617 170.6875 449.375 C169.34751953 450.56416016 169.34751953 450.56416016 167.98046875 451.77734375 C134.06623193 481.71263164 91.0022003 501.21954172 46.6875 509.375 C45.88683105 509.53581055 45.08616211 509.69662109 44.26123047 509.86230469 C16.26533464 515.33841256 -17.39572812 515.22207699 -45.3125 509.375 C-46.77478027 509.07698486 -46.77478027 509.07698486 -48.26660156 508.77294922 C-91.53631524 499.72170074 -131.73769334 481.33729329 -165.3125 452.375 C-166.05757813 451.74078125 -166.80265625 451.1065625 -167.5703125 450.453125 C-181.07529833 438.64198485 -193.74668743 425.89139772 -204.3125 411.375 C-205.16899066 410.22505169 -206.02576433 409.07531411 -206.8828125 407.92578125 C-212.92284209 399.73565742 -218.30617614 391.23120382 -223.3125 382.375 C-223.7146875 381.66778809 -224.116875 380.96057617 -224.53125 380.23193359 C-237.5566741 357.09654164 -246.30551461 331.92537591 -251.625 305.9375 C-251.77235596 305.21860596 -251.91971191 304.49971191 -252.0715332 303.7590332 C-255.04539088 288.11274391 -255.68550362 272.63931954 -255.625 256.75 C-255.62284485 255.73209381 -255.6206897 254.71418762 -255.61846924 253.66543579 C-255.56879854 239.05636477 -255.31790191 224.72424147 -252.3125 210.375 C-252.11382324 209.40014648 -251.91514648 208.42529297 -251.71044922 207.42089844 C-241.58982806 159.0390226 -219.6733123 115.05071731 -185.3125 79.375 C-184.68037598 78.71564453 -184.04825195 78.05628906 -183.39697266 77.37695312 C-174.25252521 67.88869695 -164.95515991 59.1487956 -154.3125 51.375 C-153.16144983 50.51693848 -152.01040823 49.65886549 -150.859375 48.80078125 C-142.66974019 42.76322604 -134.16711724 37.38042698 -125.3125 32.375 C-124.60528809 31.9728125 -123.89807617 31.570625 -123.16943359 31.15625 C-100.03404164 18.1308259 -74.86287591 9.38198539 -48.875 4.0625 C-48.15610596 3.91514404 -47.43721191 3.76778809 -46.6965332 3.6159668 C-31.16987908 0.66484793 -15.76936592 -0.03207988 0 0 Z " fill="#FE5722" transform="translate(255.3125,-0.375)"/>
<path d="M0 0 C4.04865183 1.34955061 6.85238261 2.31053148 10.37109375 4.36328125 C11.18006104 4.83088867 11.98902832 5.29849609 12.82250977 5.78027344 C13.68545654 6.2859082 14.54840332 6.79154297 15.4375 7.3125 C17.33037813 8.40815877 19.22361974 9.50318976 21.1171875 10.59765625 C22.09139648 11.16242676 23.06560547 11.72719727 24.06933594 12.30908203 C28.71491414 14.98946146 33.38902463 17.61866748 38.0625 20.25 C49.17108346 26.51687092 60.24573755 32.84227236 71.31640625 39.17578125 C72.40066895 39.79533691 73.48493164 40.41489258 74.60205078 41.05322266 C77.02009126 42.43858368 79.43496687 43.82868092 81.84716797 45.22412109 C82.48291245 45.59063278 83.11865692 45.95714447 83.77366638 46.33476257 C84.99780903 47.04057769 86.22074341 47.74849384 87.442276 48.45881653 C89.94950143 49.90175445 92.24508315 51.08169438 95 52 C95.90380859 53.69213867 95.90380859 53.69213867 96.6484375 55.91796875 C97.06947754 57.16392822 97.06947754 57.16392822 97.49902344 58.43505859 C97.93263184 59.79751709 97.93263184 59.79751709 98.375 61.1875 C98.67954102 62.12932129 98.98408203 63.07114258 99.29785156 64.04150391 C102.51007412 74.23380839 104.98553383 84.50964379 107 95 C107.16516113 95.8137207 107.33032227 96.62744141 107.50048828 97.46582031 C112.98071612 125.51869289 112.7460476 159.01834861 107 187 C106.80132324 188.01255859 106.60264648 189.02511719 106.39794922 190.06835938 C95.56246509 244.25389649 67.10608584 298.38369617 24 334 C22.66001953 335.18916016 22.66001953 335.18916016 21.29296875 336.40234375 C7.22248189 348.82202688 -8.64604066 358.8710358 -25 368 C-25.58958496 368.33708984 -26.17916992 368.67417969 -26.78662109 369.02148438 C-28.3874647 369.93150559 -30.00581641 370.81052603 -31.625 371.6875 C-32.50414062 372.16574219 -33.38328125 372.64398438 -34.2890625 373.13671875 C-40.56193713 375.13427681 -46.95720133 372.12600887 -52.84375 369.90234375 C-53.68163055 369.59246521 -54.51951111 369.28258667 -55.38278198 368.96331787 C-57.16797804 368.30237242 -58.95204184 367.63836189 -60.73504639 366.9715271 C-65.38346451 365.23312893 -70.03991467 363.51647348 -74.6953125 361.796875 C-75.60439362 361.46036423 -76.51347473 361.12385345 -77.45010376 360.77714539 C-84.06440881 358.33246187 -90.70218448 355.96807474 -97.375 353.6875 C-106.62840787 350.51738283 -115.79308959 347.13031654 -124.95654297 343.7097168 C-132.10797179 341.04823304 -139.28354747 338.4793957 -146.5 336 C-156.04253833 332.7214184 -165.50054465 329.23961568 -174.953125 325.7109375 C-182.10572288 323.04912596 -189.28240225 320.47978917 -196.5 318 C-204.88020899 315.12076618 -213.19855331 312.09888598 -221.5 309 C-230.64003549 305.58869186 -239.80916088 302.29694773 -249.03540039 299.12695312 C-262.09512859 294.61849495 -275.04112983 289.78888856 -288 285 C-288 284.67 -288 284.34 -288 284 C-273.15 284 -258.3 284 -243 284 C-243.08292734 265.10402162 -243.18609922 246.20823339 -243.3125 227.3125 C-243.31714563 226.61321113 -243.32179126 225.91392226 -243.32657766 225.19344282 C-243.61856774 181.48753188 -244.47172974 137.86160201 -246.5650177 94.20014954 C-246.97258822 85.45816274 -247.18568905 76.75070856 -247 68 C-243.59840587 69.70079707 -243.04008701 73.6961243 -241.7890625 77.11328125 C-241.46942535 77.96805557 -241.14978821 78.8228299 -240.82046509 79.70350647 C-240.12049738 81.57723452 -239.42369859 83.45214858 -238.72961426 85.32806396 C-236.82151437 90.48334965 -234.8893164 95.62961732 -232.9609375 100.77734375 C-232.35306396 102.40298248 -232.35306396 102.40298248 -231.73291016 104.0614624 C-227.31530171 115.86223565 -222.7858173 127.61927554 -218.25 139.375 C-216.5591733 143.76144055 -214.86922479 148.14821891 -213.1796875 152.53515625 C-212.75586792 153.6355423 -212.33204834 154.73592834 -211.89538574 155.86965942 C-207.03045007 168.5077962 -202.20176622 181.1597471 -197.375 193.8125 C-195.63286116 198.37892481 -193.89068707 202.94533618 -192.1484375 207.51171875 C-191.72220093 208.62890289 -191.29596436 209.74608704 -190.85681152 210.89712524 C-186.24723493 222.97666778 -181.62489722 235.05131644 -177 247.125 C-176.6262323 248.10087067 -176.2524646 249.07674133 -175.86737061 250.08218384 C-175.14844956 251.95913088 -174.42942842 253.83603958 -173.71029663 255.71290588 C-173.0413167 257.45920996 -172.37270228 259.20565412 -171.70449829 260.95225525 C-170.27919907 264.67550516 -168.84852615 268.39625023 -167.39453125 272.10839844 C-166.93433594 273.28692383 -166.47414063 274.46544922 -166 275.6796875 C-165.4121875 277.17218018 -165.4121875 277.17218018 -164.8125 278.69482422 C-164 281 -164 281 -164 283 C-152.12 283 -140.24 283 -128 283 C-127.67 281.35 -127.34 279.7 -127 278 C-126.52114843 276.5440775 -126.00635398 275.09957549 -125.4597168 273.66772461 C-124.98485336 272.41533745 -124.98485336 272.41533745 -124.50039673 271.13764954 C-124.153508 270.23499863 -123.80661926 269.33234772 -123.44921875 268.40234375 C-123.08363861 267.44188644 -122.71805847 266.48142914 -122.34140015 265.49186707 C-121.12733942 262.30557261 -119.9075026 259.12152363 -118.6875 255.9375 C-117.82777834 253.68548537 -116.96832663 251.43336767 -116.10913086 249.18115234 C-113.41268466 242.11823547 -110.70756345 235.05866151 -108 228 C-107.57666382 226.89622009 -107.15332764 225.79244019 -106.71716309 224.6552124 C-100.90963696 209.51644496 -95.08364651 194.38480172 -89.25390625 179.25457764 C-85.93452683 170.63895901 -82.61715376 162.02256879 -79.30117798 153.40563965 C-78.47967208 151.27133135 -77.65787744 149.13713417 -76.83578491 147.00305176 C-72.15675494 134.8566567 -67.50033851 122.70208865 -62.88646507 110.5308094 C-62.15055621 108.59010748 -61.41395555 106.64966972 -60.67707825 104.70933533 C-60.43671813 104.07640218 -60.19635801 103.44346903 -59.94871426 102.79135609 C-59.46726781 101.5236332 -58.98579026 100.25592212 -58.50428104 98.98822308 C-56.87226972 94.68983287 -55.24821136 90.38848124 -53.62524414 86.08666992 C-52.77908405 83.85715455 -51.93266262 81.62773834 -51.0859375 79.3984375 C-50.50770988 77.85714424 -50.50770988 77.85714424 -49.9178009 76.28471375 C-49.38300362 74.88186882 -49.38300362 74.88186882 -48.83740234 73.45068359 C-48.37495621 72.22700577 -48.37495621 72.22700577 -47.90316772 70.97860718 C-47 69 -47 69 -45 67 C-44.80856892 77.72014067 -45.1006995 88.3851567 -45.62109375 99.09375 C-47.6555988 141.64284963 -48.40235629 184.15872672 -48.6875 226.75 C-48.69220102 227.44729092 -48.69690204 228.14458183 -48.70174551 228.86300278 C-48.82301592 246.90858677 -48.91487819 264.95417662 -49 283 C-32.83 283 -16.66 283 0 283 C0 189.61 0 96.22 0 0 Z " fill="#D84315" transform="translate(402,115)"/>
<path d="M0 0 C21.12 0 42.24 0 64 0 C66.38952263 4.77904527 68.515845 9.04318376 70.33642578 13.96362305 C70.96236633 15.64470154 70.96236633 15.64470154 71.60095215 17.35974121 C72.04459106 18.5648938 72.48822998 19.77004639 72.9453125 21.01171875 C73.42831906 22.31327096 73.91177075 23.61465805 74.39562988 24.91589355 C75.43297213 27.70786941 76.46768234 30.50080039 77.50030518 33.29452515 C80.00276465 40.0640031 82.51941954 46.82820972 85.0346489 53.59295082 C85.91314909 55.95605809 86.79113489 58.31935607 87.6690979 60.68266296 C93.6600378 76.80296802 99.72176577 92.89640862 105.79422379 108.98614883 C107.97961867 114.77690391 110.16386413 120.5680928 112.34832191 126.35920143 C112.87125922 127.74549318 113.3942272 129.13177336 113.91722679 130.51804161 C119.02669135 144.06150608 124.11461365 157.6129911 129.18432617 171.17138672 C131.87778358 178.37064009 134.59042236 185.56168866 137.34375 192.73828125 C137.87313857 194.1210898 138.40251709 195.5039022 138.93188477 196.88671875 C139.90060321 199.41637612 140.87590997 201.94314021 141.85522461 204.46875 C142.27296143 205.55800781 142.69069824 206.64726562 143.12109375 207.76953125 C143.4864624 208.71417236 143.85183105 209.65881348 144.22827148 210.63208008 C145 213 145 213 145 216 C145.66 216 146.32 216 147 216 C147.1556543 215.44281281 147.31130859 214.88562561 147.47167969 214.31155396 C149.68089158 206.66240812 152.4361327 199.2481048 155.25 191.8046875 C155.77696918 190.40318265 156.30363298 189.00156295 156.83001709 187.59983826 C157.95828686 184.59721513 159.08860456 181.59537438 160.22058105 178.59414673 C162.03079317 173.79468119 163.83654381 168.99354471 165.64160156 164.19213867 C167.52822448 159.17442922 169.41519014 154.15684985 171.30377197 149.13987732 C175.53972892 137.88701335 179.7663262 126.6306823 183.984375 115.37109375 C184.26619251 114.61884333 184.54801003 113.8665929 184.83836746 113.09154701 C185.96925082 110.07287566 187.10012244 107.05419992 188.23095131 104.03550816 C192.92967616 91.4932991 197.6360376 78.9539536 202.34289551 66.41479492 C203.46085075 63.43651635 204.5785927 60.45815787 205.69616699 57.47973633 C208.72989974 49.39491417 211.76545588 41.31078382 214.80601501 33.22852612 C216.08582689 29.82656218 217.36480014 26.42428957 218.64147949 23.02114868 C220.03139722 19.31634324 221.42560796 15.61316251 222.8203125 11.91015625 C223.23243988 10.8098407 223.64456726 9.70952515 224.06918335 8.5758667 C224.44354523 7.58411438 224.8179071 6.59236206 225.20361328 5.57055664 C225.69101486 4.27415001 225.69101486 4.27415001 226.18826294 2.95155334 C227 1 227 1 228 0 C249.12 0 270.24 0 292 0 C292 93.72 292 187.44 292 284 C275.83 284 259.66 284 243 284 C242.91765581 265.249923 242.84672689 246.50016695 242.8125 227.75 C242.81119709 227.05622537 242.80989418 226.36245073 242.80855179 225.64765263 C242.7295486 182.400737 243.33094391 139.27086534 245.53935242 96.07226562 C245.97381093 87.37141817 246.19164114 78.71079943 246 70 C245.78132263 70.57357239 245.56264526 71.14714478 245.33734131 71.73809814 C235.25862504 98.17176611 225.16695039 124.60012072 215 151 C207.6990679 169.95816164 200.43768789 188.93109306 193.19839478 207.91287231 C183.5170729 233.29510058 173.76463059 258.64971843 164 284 C152.12 284 140.24 284 128 284 C119.41670299 262.02298679 110.93185883 240.01200544 102.52780151 217.96594238 C96.00726986 200.86132326 89.45604324 183.76892379 82.875 166.6875 C74.23930164 144.26953073 65.68923929 121.81961887 57.17129517 99.35667419 C53.45835892 89.56699122 49.73041956 79.78303198 46 70 C45.91971474 79.70320619 46.13467111 89.32788725 46.65625 99.01953125 C48.79782911 141.95469031 49.26827289 184.83350917 49.1875 227.8125 C49.1862273 228.50924347 49.18495461 229.20598695 49.18364334 229.92384386 C49.15015283 247.94938473 49.07927792 265.97455062 49 284 C32.83 284 16.66 284 0 284 C0 190.28 0 96.56 0 0 Z " fill="#F9F9F8" transform="translate(110,114)"/>
<path d="M0 0 C6.12972555 1.61685582 11.17733696 4.8953156 16.5625 8.125 C25.78848601 13.58760482 35.09383439 18.85675638 44.5 24 C54.44019186 29.44120011 64.27822919 35.02959618 74.04296875 40.78125 C82.5728385 45.7901349 91.2140211 50.58378246 99.87475586 55.36181641 C111.36257922 61.71735024 122.69119263 68.3317805 134 75 C131.65460678 83.42987945 128.62947913 91.58039812 125.5390625 99.7578125 C124.99451655 101.20620812 124.45027379 102.65471777 123.90631104 104.10333252 C122.45064732 107.97749558 120.99101633 111.85015243 119.5306015 115.72252655 C118.01301242 119.74854404 116.49904877 123.77592412 114.98486328 127.80322266 C113.13680207 132.71789634 111.28839949 137.63244037 109.43832397 142.5463562 C105.47479784 153.07400058 101.5215214 163.60542473 97.578125 174.140625 C97.08235846 175.46479733 96.58658023 176.78896528 96.09078979 178.11312866 C94.22999857 183.08320842 92.36937262 188.05334964 90.5100708 193.02398682 C89.25511421 196.37834757 87.99881267 199.73220155 86.7421875 203.0859375 C86.3736969 204.07200989 86.0052063 205.05808228 85.62554932 206.07403564 C85.29133972 206.96532166 84.95713013 207.85660767 84.61279297 208.77490234 C84.32338837 209.54812836 84.03398376 210.32135437 83.73580933 211.11801147 C83 213 83 213 82 215 C81.34 215 80.68 215 80 215 C79.74234863 214.30108643 79.48469727 213.60217285 79.21923828 212.88208008 C70.95312632 190.48839939 62.5477305 168.1476069 54.125 145.8125 C53.83806526 145.05161198 53.55113052 144.29072395 53.25550079 143.50677872 C52.38469887 141.19763078 51.51388358 138.88848789 50.64306641 136.5793457 C49.50421109 133.55941535 48.36537927 130.53947614 47.2265625 127.51953125 C46.94867512 126.78264887 46.67078773 126.04576649 46.38447952 125.28655434 C41.80495764 113.14231905 37.23797321 100.99344903 32.69094849 88.83700562 C28.55667802 77.78466394 24.3933106 66.74348827 20.21869278 55.70633698 C18.40881228 50.92025293 16.60062124 46.1335302 14.79231453 41.34685135 C12.98380866 36.56041243 11.17232515 31.77511344 9.3587656 26.99058723 C8.2254837 23.99871199 7.09493305 21.00581007 5.96510124 18.01263046 C5.43080539 16.59892777 4.89533995 15.18566653 4.358675 13.77286148 C3.61898278 11.82512598 2.88334275 9.87590717 2.14868164 7.92626953 C1.73203751 6.82558136 1.31539337 5.72489319 0.88612366 4.59085083 C0 2 0 2 0 0 Z " fill="#D84315" transform="translate(175,115)"/>
<path d="M0 0 C0.33 0 0.66 0 1 0 C1.12330415 11.71389465 0.8283506 23.31433979 0 35 C-3.63 33.35 -7.26 31.7 -11 30 C-8.98222451 22.93460316 -6.59661303 16.17165929 -3.8125 9.375 C-3.44447266 8.46621094 -3.07644531 7.55742187 -2.69726562 6.62109375 C-1.80216521 4.41240441 -0.9030465 2.20544952 0 0 Z " fill="#FE5C28" transform="translate(356,182)"/>
</svg>
