<svg width="20" height="20" viewBox="0 0 20 20" fill="none" xmlns="http://www.w3.org/2000/svg">
<path fill-rule="evenodd" clip-rule="evenodd" d="M13.9088 3.57906C13.183 3.34156 12.1946 3.33073 10.0013 3.33073C8.82547 3.33073 7.98464 3.33073 7.32214 3.37656C6.66714 3.42073 6.24714 3.50656 5.90714 3.64823C5.40145 3.85753 4.94196 4.16441 4.5549 4.55133C4.16784 4.93824 3.86079 5.39762 3.6513 5.90323C3.50964 6.24406 3.4238 6.66323 3.37964 7.31823C3.33464 7.98073 3.33464 8.82073 3.33464 9.9974C3.33464 11.1741 3.33464 12.0141 3.38047 12.6766C3.42464 13.3316 3.51047 13.7516 3.65214 14.0916C3.86153 14.5971 4.16845 15.0564 4.55536 15.4433C4.94227 15.8303 5.40161 16.1372 5.90714 16.3466C6.24797 16.4882 6.66714 16.5741 7.32214 16.6182C7.98464 16.6641 8.8263 16.6641 10.0013 16.6641C11.1763 16.6641 12.018 16.6641 12.6805 16.6182C13.3355 16.5741 13.7555 16.4882 14.0955 16.3466C14.601 16.1372 15.0603 15.8303 15.4472 15.4433C15.8342 15.0564 16.1411 14.5971 16.3505 14.0916C16.4921 13.7507 16.578 13.3316 16.6221 12.6766C16.668 12.0141 16.668 11.1741 16.668 9.9974C16.668 9.35906 16.668 8.8174 16.6596 8.34406C16.6561 8.12305 16.7405 7.90968 16.8943 7.7509C17.0481 7.59212 17.2586 7.50093 17.4796 7.4974C17.7007 7.49386 17.914 7.57827 18.0728 7.73205C18.2316 7.88583 18.3228 8.09638 18.3263 8.3174C18.3346 8.8049 18.3346 9.3599 18.3346 9.9924V10.0282C18.3346 11.1674 18.3346 12.0641 18.2846 12.7899C18.2346 13.5299 18.1296 14.1516 17.8905 14.7299C17.2984 16.1591 16.163 17.2945 14.7338 17.8866C14.1555 18.1257 13.5338 18.2307 12.7938 18.2816C12.0688 18.3307 11.1705 18.3307 10.0321 18.3307H9.97047C8.8313 18.3307 7.93464 18.3307 7.2088 18.2807C6.4688 18.2307 5.84714 18.1257 5.2688 17.8866C3.83965 17.2945 2.70418 16.1591 2.11214 14.7299C1.87297 14.1516 1.76797 13.5299 1.71714 12.7899C1.66797 12.0649 1.66797 11.1674 1.66797 10.0282V9.96656C1.66797 8.82823 1.66797 7.93073 1.71797 7.2049C1.76797 6.4649 1.87297 5.84323 2.11214 5.2649C2.70398 3.8359 3.83913 2.70045 5.26797 2.10823C5.8463 1.86906 6.46797 1.76406 7.20797 1.71323C7.9338 1.66406 8.8313 1.66406 9.97047 1.66406H10.1805C12.1388 1.66406 13.4146 1.66406 14.4271 1.9949C14.6314 2.06813 14.799 2.21815 14.8944 2.41306C14.9898 2.60796 15.0053 2.83238 14.9378 3.03859C14.8703 3.24481 14.725 3.41656 14.5329 3.51734C14.3407 3.61811 14.1168 3.64079 13.9088 3.57906ZM18.2213 4.16073C18.2765 4.25527 18.3125 4.35976 18.3273 4.46823C18.3421 4.5767 18.3354 4.68702 18.3075 4.79288C18.2796 4.89875 18.2312 4.99809 18.1649 5.08523C18.0987 5.17237 18.0159 5.24559 17.9213 5.30073L17.7363 5.40823C14.7406 7.15571 12.3337 9.75641 10.823 12.8782C10.7651 12.9979 10.6794 13.102 10.5731 13.1818C10.4668 13.2616 10.3429 13.3148 10.2119 13.337C10.0808 13.3592 9.94631 13.3497 9.81966 13.3093C9.693 13.2689 9.57785 13.1989 9.4838 13.1049L6.13964 9.76323C6.05818 9.68685 5.99291 9.59488 5.9477 9.49278C5.90249 9.39068 5.87825 9.28053 5.87644 9.16888C5.87463 9.05724 5.89527 8.94636 5.93715 8.84285C5.97902 8.73934 6.04127 8.64529 6.1202 8.56631C6.19913 8.48732 6.29313 8.425 6.39661 8.38306C6.5001 8.34111 6.61095 8.32039 6.7226 8.32212C6.83425 8.32385 6.94442 8.34801 7.04655 8.39315C7.14868 8.43829 7.2407 8.5035 7.31714 8.5849L9.8588 11.1241C11.5253 8.15444 13.9549 5.68398 16.8963 3.96823L17.0813 3.86073C17.1758 3.80555 17.2803 3.76953 17.3888 3.75474C17.4973 3.73995 17.6076 3.74668 17.7135 3.77454C17.8193 3.8024 17.9187 3.85085 18.0058 3.91711C18.0929 3.98337 18.1662 4.06616 18.2213 4.16073Z" fill="#0A0A0A"/>
</svg>
