<svg width="12" height="12" viewBox="0 0 12 12" fill="none" xmlns="http://www.w3.org/2000/svg">
<path d="M5.74523 0.485598C5.07111 0.484758 4.41429 0.698898 3.87021 1.0969C3.32612 1.4949 2.92313 2.05603 2.71978 2.69874C2.51642 3.34146 2.52332 4.03227 2.73945 4.6708C2.95558 5.30933 3.36969 5.86231 3.92161 6.24938C2.96653 6.63106 2.14751 7.28981 1.56993 8.14085C0.992359 8.99189 0.682652 9.99629 0.680664 11.0248C0.688492 11.1521 0.744561 11.2715 0.83744 11.3589C0.930318 11.4462 1.05301 11.4948 1.18051 11.4948C1.308 11.4948 1.43069 11.4462 1.52357 11.3589C1.61645 11.2715 1.67252 11.1521 1.68035 11.0248C1.67868 10.2861 1.87473 9.5605 2.24816 8.92318C2.6216 8.28586 3.1588 7.7601 3.804 7.40047C4.44921 7.04084 5.17892 6.86046 5.91737 6.87803C6.65583 6.8956 7.37612 7.11049 8.0035 7.5004C8.05958 7.53514 8.12196 7.5585 8.18708 7.56914C8.25219 7.57977 8.31876 7.57748 8.38298 7.56239C8.44721 7.5473 8.50783 7.5197 8.5614 7.48118C8.61496 7.44266 8.66041 7.39397 8.69515 7.33788C8.72989 7.2818 8.75325 7.21942 8.76389 7.1543C8.77452 7.08919 8.77223 7.02262 8.75714 6.9584C8.74205 6.89417 8.71445 6.83354 8.67593 6.77998C8.63741 6.72642 8.58872 6.68097 8.53263 6.64623C8.24222 6.47144 7.93521 6.32584 7.6161 6.21158C8.40413 5.6352 8.92003 4.70733 8.92003 3.6604C8.92003 1.91615 7.48948 0.485598 5.74523 0.485598ZM5.74523 1.48717C6.94901 1.48717 7.91846 2.45662 7.91846 3.6604C7.91846 4.86418 6.94901 5.83174 5.74523 5.83174C4.54145 5.83174 3.57389 4.86796 3.57389 3.6604C3.57389 2.45662 4.53956 1.48717 5.74523 1.48717ZM10.8041 7.48906C10.7229 7.49137 10.6435 7.51339 10.5727 7.55323C10.502 7.59306 10.4419 7.64952 10.3978 7.71772L8.67436 10.301L7.59342 9.57725C7.5387 9.53686 7.47635 9.50799 7.41014 9.49239C7.34394 9.47679 7.27526 9.47479 7.20826 9.48651C7.14126 9.49823 7.07733 9.52343 7.02035 9.56058C6.96337 9.59772 6.91453 9.64604 6.87677 9.70262C6.83901 9.75919 6.81312 9.82284 6.80068 9.88971C6.78824 9.95658 6.78949 10.0253 6.80438 10.0916C6.81926 10.158 6.84745 10.2207 6.88726 10.2758C6.92706 10.331 6.97764 10.3775 7.03594 10.4125L8.5383 11.4122C8.64886 11.4855 8.78397 11.5119 8.91399 11.4857C9.04402 11.4595 9.15833 11.3828 9.23184 11.2724L11.2331 8.27142C11.2851 8.1951 11.3149 8.1059 11.3193 8.01368C11.3238 7.92146 11.3026 7.82981 11.2582 7.74886C11.2139 7.6679 11.1479 7.60079 11.0678 7.55494C10.9877 7.5091 10.8964 7.4863 10.8041 7.48906Z" fill="#4139B9"/>
</svg>
