<svg width="69" height="70" viewBox="0 0 69 70" fill="none" xmlns="http://www.w3.org/2000/svg">
<path d="M61.6493 12.8875C61.5331 12.7656 61.3935 12.6685 61.2389 12.6019C61.0842 12.5353 60.9177 12.5006 60.7493 12.5H18.2493C18.0809 12.5006 17.9144 12.5353 17.7598 12.6019C17.6051 12.6685 17.4655 12.7656 17.3493 12.8875C17.2311 13.0098 17.1391 13.1549 17.0789 13.3139C17.0188 13.473 16.9917 13.6426 16.9993 13.8125L19.2868 64.0375C19.3608 65.6448 20.0518 67.1616 21.216 68.2722C22.3802 69.3828 23.9278 70.0017 25.5368 70H53.4743C55.0833 70.0017 56.6309 69.3828 57.7951 68.2722C58.9593 67.1616 59.6503 65.6448 59.7243 64.0375L61.9993 13.8125C62.007 13.6426 61.9799 13.473 61.9197 13.3139C61.8595 13.1549 61.7675 13.0098 61.6493 12.8875ZM34.1493 28.3875C33.9485 28.5958 33.6816 28.7279 33.3943 28.7615C33.1069 28.795 32.8168 28.7278 32.5734 28.5713C32.3301 28.4148 32.1485 28.1788 32.0598 27.9034C31.971 27.6281 31.9805 27.3304 32.0866 27.0613C32.1928 26.7921 32.389 26.5681 32.6418 26.4275C32.8947 26.2869 33.1884 26.2383 33.4731 26.29C33.7577 26.3418 34.0156 26.4907 34.2028 26.7113C34.3899 26.932 34.4947 27.2107 34.4993 27.5C34.4947 27.831 34.3652 28.148 34.1368 28.3875H34.1493ZM40.3993 55.8875C40.2241 56.0613 40.0013 56.1793 39.7592 56.2267C39.517 56.2741 39.2661 56.2488 39.0383 56.1539C38.8105 56.059 38.6159 55.8987 38.479 55.6934C38.3421 55.4881 38.2691 55.2468 38.2691 55C38.2691 54.7532 38.3421 54.5119 38.479 54.3066C38.6159 54.1013 38.8105 53.941 39.0383 53.8461C39.2661 53.7512 39.517 53.7259 39.7592 53.7733C40.0013 53.8207 40.2241 53.9387 40.3993 54.1125C40.5131 54.2314 40.6023 54.3716 40.6618 54.525C40.7216 54.6761 40.7513 54.8375 40.7493 55C40.7503 55.1645 40.7187 55.3276 40.6565 55.4799C40.5943 55.6322 40.5027 55.7707 40.3868 55.8875H40.3993ZM40.6618 27.975C40.6045 28.1296 40.5151 28.2702 40.3993 28.3875C40.1985 28.5958 39.9316 28.7279 39.6443 28.7615C39.3569 28.795 39.0668 28.7278 38.8234 28.5713C38.5801 28.4148 38.3985 28.1788 38.3098 27.9034C38.221 27.6281 38.2305 27.3304 38.3366 27.0613C38.4428 26.7921 38.639 26.5681 38.8918 26.4275C39.1447 26.2869 39.4385 26.2383 39.7231 26.29C40.0078 26.3418 40.2656 26.4907 40.4528 26.7113C40.6399 26.932 40.7447 27.2107 40.7493 27.5C40.7473 27.6633 40.7134 27.8247 40.6493 27.975H40.6618ZM46.6493 55.8875C46.4066 56.1189 46.0846 56.2486 45.7493 56.25C45.586 56.248 45.4246 56.2141 45.2743 56.15C45.1228 56.0867 44.9833 55.9979 44.8618 55.8875C44.7447 55.7713 44.6517 55.633 44.5882 55.4807C44.5247 55.3284 44.4921 55.165 44.4921 55C44.4921 54.835 44.5247 54.6716 44.5882 54.5193C44.6517 54.367 44.7447 54.2287 44.8618 54.1125C44.9833 54.0021 45.1228 53.9133 45.2743 53.85C45.5019 53.7543 45.7528 53.7281 45.9953 53.7748C46.2378 53.8216 46.461 53.9391 46.6368 54.1125C46.754 54.2287 46.847 54.367 46.9104 54.5193C46.9739 54.6716 47.0066 54.835 47.0066 55C47.0066 55.165 46.9739 55.3284 46.9104 55.4807C46.847 55.633 46.754 55.7713 46.6368 55.8875H46.6493ZM46.6493 28.3875C46.4066 28.6189 46.0846 28.7486 45.7493 28.75C45.586 28.748 45.4246 28.7141 45.2743 28.65C45.1228 28.5867 44.9833 28.4979 44.8618 28.3875C44.7447 28.2713 44.6517 28.133 44.5882 27.9807C44.5247 27.8284 44.4921 27.665 44.4921 27.5C44.4921 27.335 44.5247 27.1716 44.5882 27.0193C44.6517 26.867 44.7447 26.7287 44.8618 26.6125C44.9833 26.5021 45.1228 26.4133 45.2743 26.35C45.5019 26.2543 45.7528 26.2281 45.9953 26.2748C46.2378 26.3216 46.461 26.4391 46.6368 26.6125C46.754 26.7287 46.847 26.867 46.9104 27.0193C46.9739 27.1716 47.0066 27.335 47.0066 27.5C47.0066 27.665 46.9739 27.8284 46.9104 27.9807C46.847 28.133 46.754 28.2713 46.6368 28.3875H46.6493Z" fill="white"/>
<path d="M45.7495 22.5C45.5861 22.498 45.4247 22.464 45.2745 22.4C45.123 22.3367 44.9835 22.2479 44.862 22.1375C44.7448 22.0213 44.6518 21.883 44.5883 21.7307C44.5249 21.5784 44.4922 21.415 44.4922 21.25C44.4922 21.085 44.5249 20.9216 44.5883 20.7693C44.6518 20.6169 44.7448 20.4787 44.862 20.3625C44.9835 20.2521 45.123 20.1633 45.2745 20.1C45.5021 20.0043 45.753 19.9781 45.9955 20.0248C46.238 20.0715 46.4612 20.189 46.637 20.3625C46.8132 20.5373 46.9335 20.7607 46.9823 21.0041C47.0311 21.2476 47.0064 21.5 46.9112 21.7293C46.816 21.9586 46.6546 22.1544 46.4477 22.2916C46.2408 22.4289 45.9977 22.5014 45.7495 22.5ZM39.4995 22.5C39.2944 22.4988 39.0928 22.4472 38.9124 22.3497C38.7321 22.2522 38.5784 22.1119 38.4651 21.941C38.3517 21.7701 38.2822 21.574 38.2625 21.3699C38.2428 21.1658 38.2737 20.96 38.3523 20.7707C38.4309 20.5813 38.5549 20.4142 38.7134 20.2841C38.8718 20.1539 39.0598 20.0648 39.2609 20.0244C39.4619 19.9841 39.6698 19.9938 39.8661 20.0528C40.0625 20.1117 40.2414 20.2181 40.387 20.3625C40.5027 20.4798 40.5922 20.6204 40.6495 20.775C40.7156 20.9246 40.7497 21.0864 40.7497 21.25C40.7497 21.4136 40.7156 21.5754 40.6495 21.725C40.5922 21.8795 40.5027 22.0201 40.387 22.1375C40.1474 22.3659 39.8304 22.4954 39.4995 22.5ZM33.2495 22.5C32.9604 22.4983 32.6808 22.3965 32.4583 22.2118C32.2359 22.0272 32.0843 21.7711 32.0294 21.4873C31.9745 21.2034 32.0197 20.9094 32.1573 20.6551C32.2949 20.4008 32.5164 20.2021 32.784 20.0928C33.0517 19.9835 33.3489 19.9703 33.6252 20.0555C33.9014 20.1408 34.1396 20.3191 34.2991 20.5602C34.4587 20.8013 34.5297 21.0903 34.5001 21.3779C34.4706 21.6654 34.3422 21.9339 34.137 22.1375C33.8974 22.3659 33.5804 22.4954 33.2495 22.5ZM45.7495 35C45.5861 34.998 45.4247 34.964 45.2745 34.9C45.123 34.8367 44.9835 34.7479 44.862 34.6375C44.7448 34.5213 44.6518 34.383 44.5883 34.2307C44.5249 34.0784 44.4922 33.915 44.4922 33.75C44.4922 33.585 44.5249 33.4216 44.5883 33.2693C44.6518 33.1169 44.7448 32.9787 44.862 32.8625C44.9835 32.7521 45.123 32.6633 45.2745 32.6C45.5021 32.5043 45.753 32.4781 45.9955 32.5248C46.238 32.5715 46.4612 32.689 46.637 32.8625C46.8132 33.0373 46.9335 33.2607 46.9823 33.5041C47.0311 33.7476 47.0064 34 46.9112 34.2293C46.816 34.4586 46.6546 34.6544 46.4477 34.7916C46.2408 34.9289 45.9977 35.0014 45.7495 35ZM39.4995 35C39.1685 34.9954 38.8515 34.8659 38.612 34.6375C38.5015 34.516 38.4128 34.3765 38.3495 34.225C38.2795 34.0766 38.2452 33.9139 38.2495 33.75C38.248 33.5017 38.3205 33.2586 38.4578 33.0517C38.595 32.8448 38.7908 32.6835 39.0201 32.5883C39.2494 32.4931 39.5019 32.4683 39.7453 32.5171C39.9887 32.566 40.2121 32.6862 40.387 32.8625C40.5008 32.9814 40.59 33.1215 40.6495 33.275C40.7156 33.4246 40.7497 33.5864 40.7497 33.75C40.7497 33.9136 40.7156 34.0754 40.6495 34.225C40.5862 34.3765 40.4974 34.516 40.387 34.6375C40.1474 34.8659 39.8304 34.9954 39.4995 35ZM45.7495 50C45.5861 49.998 45.4247 49.964 45.2745 49.9C45.123 49.8367 44.9835 49.7479 44.862 49.6375C44.7448 49.5213 44.6518 49.383 44.5883 49.2307C44.5249 49.0784 44.4922 48.915 44.4922 48.75C44.4922 48.585 44.5249 48.4216 44.5883 48.2693C44.6518 48.1169 44.7448 47.9787 44.862 47.8625C44.9835 47.7521 45.123 47.6633 45.2745 47.6C45.5021 47.5043 45.753 47.4781 45.9955 47.5248C46.238 47.5715 46.4612 47.689 46.637 47.8625C46.8132 48.0373 46.9335 48.2607 46.9823 48.5041C47.0311 48.7476 47.0064 49 46.9112 49.2293C46.816 49.4586 46.6546 49.6544 46.4477 49.7916C46.2408 49.9289 45.9977 50.0014 45.7495 50ZM39.4995 50C39.2944 49.9988 39.0928 49.9472 38.9124 49.8497C38.7321 49.7522 38.5784 49.6119 38.4651 49.441C38.3517 49.2701 38.2822 49.074 38.2625 48.8699C38.2428 48.6658 38.2737 48.46 38.3523 48.2707C38.4309 48.0813 38.5549 47.9142 38.7134 47.784C38.8718 47.6539 39.0598 47.5648 39.2609 47.5244C39.4619 47.4841 39.6698 47.4938 39.8661 47.5528C40.0625 47.6117 40.2414 47.7181 40.387 47.8625C40.5008 47.9814 40.59 48.1215 40.6495 48.275C40.7156 48.4246 40.7497 48.5864 40.7497 48.75C40.7497 48.9136 40.7156 49.0754 40.6495 49.225C40.5922 49.3795 40.5027 49.5201 40.387 49.6375C40.1474 49.8659 39.8304 49.9954 39.4995 50ZM45.7495 62.5C45.5861 62.498 45.4247 62.464 45.2745 62.4C45.123 62.3367 44.9835 62.2479 44.862 62.1375C44.7448 62.0213 44.6518 61.883 44.5883 61.7307C44.5249 61.5784 44.4922 61.415 44.4922 61.25C44.4922 61.085 44.5249 60.9216 44.5883 60.7693C44.6518 60.6169 44.7448 60.4787 44.862 60.3625C44.9835 60.2521 45.123 60.1633 45.2745 60.1C45.5021 60.0043 45.753 59.9781 45.9955 60.0248C46.238 60.0715 46.4612 60.189 46.637 60.3625C46.8132 60.5373 46.9335 60.7607 46.9823 61.0041C47.0311 61.2476 47.0064 61.5 46.9112 61.7293C46.816 61.9586 46.6546 62.1544 46.4477 62.2916C46.2408 62.4289 45.9977 62.5014 45.7495 62.5ZM39.4995 62.5C39.2104 62.4983 38.9308 62.3965 38.7083 62.2118C38.4859 62.0272 38.3343 61.7711 38.2794 61.4873C38.2245 61.2035 38.2697 60.9094 38.4073 60.6551C38.5449 60.4008 38.7664 60.2021 39.034 60.0928C39.3017 59.9835 39.5989 59.9703 39.8752 60.0555C40.1514 60.1408 40.3896 60.3191 40.5491 60.5602C40.7087 60.8013 40.7797 61.0903 40.7501 61.3779C40.7206 61.6654 40.5922 61.9339 40.387 62.1375C40.1474 62.3659 39.8304 62.4954 39.4995 62.5ZM33.2495 35C33.0012 35.0014 32.7581 34.9289 32.5512 34.7916C32.3443 34.6544 32.183 34.4586 32.0877 34.2293C31.9925 34 31.9678 33.7476 32.0166 33.5041C32.0654 33.2607 32.1857 33.0373 32.362 32.8625C32.4808 32.7487 32.621 32.6595 32.7745 32.6C33.0021 32.5043 33.253 32.4781 33.4955 32.5248C33.738 32.5715 33.9612 32.689 34.137 32.8625C34.3132 33.0373 34.4335 33.2607 34.4823 33.5041C34.5311 33.7476 34.5064 34 34.4112 34.2293C34.316 34.4586 34.1546 34.6544 33.9477 34.7916C33.7408 34.9289 33.4977 35.0014 33.2495 35Z" fill="url(#paint0_linear_48870_6061)"/>
<path d="M50.75 10C50.4185 10 50.1005 9.8683 49.8661 9.63388C49.6317 9.39946 49.5 9.08152 49.5 8.75V6.25C49.5 5.25544 49.1049 4.30161 48.4016 3.59835C47.6984 2.89509 46.7446 2.5 45.75 2.5H33.25C32.2554 2.5 31.3016 2.89509 30.5983 3.59835C29.8951 4.30161 29.5 5.25544 29.5 6.25V8.75C29.5 9.08152 29.3683 9.39946 29.1339 9.63388C28.8995 9.8683 28.5815 10 28.25 10C27.9185 10 27.6005 9.8683 27.3661 9.63388C27.1317 9.39946 27 9.08152 27 8.75V6.25C27 4.5924 27.6585 3.00269 28.8306 1.83058C30.0027 0.65848 31.5924 0 33.25 0H45.75C47.4076 0 48.9973 0.65848 50.1694 1.83058C51.3415 3.00269 52 4.5924 52 6.25V8.75C52 9.08152 51.8683 9.39946 51.6339 9.63388C51.3995 9.8683 51.0815 10 50.75 10Z" fill="white"/>
<path d="M64.5 7.5H14.5C13.5054 7.5 12.5516 7.89509 11.8483 8.59835C11.1451 9.30161 10.75 10.2554 10.75 11.25C10.75 12.2446 11.1451 13.1984 11.8483 13.9017C12.5516 14.6049 13.5054 15 14.5 15H64.5C65.4946 15 66.4484 14.6049 67.1516 13.9017C67.8549 13.1984 68.25 12.2446 68.25 11.25C68.25 10.2554 67.8549 9.30161 67.1516 8.59835C66.4484 7.89509 65.4946 7.5 64.5 7.5Z" fill="url(#paint1_linear_48870_6061)"/>
<path d="M18.25 56.25C22.3921 56.25 25.75 52.8921 25.75 48.75C25.75 44.6079 22.3921 41.25 18.25 41.25C14.1079 41.25 10.75 44.6079 10.75 48.75C10.75 52.8921 14.1079 56.25 18.25 56.25Z" fill="white"/>
<path d="M28.25 66.2495C27.9185 66.2495 27.6006 66.1178 27.3661 65.8833C27.1317 65.6489 27 65.331 27 64.9995C27 62.6788 26.0781 60.4532 24.4372 58.8123C22.7963 57.1713 20.5707 56.2495 18.25 56.2495C15.9294 56.2495 13.7038 57.1713 12.0628 58.8123C10.4219 60.4532 9.50002 62.6788 9.50002 64.9995C9.50002 65.331 9.36832 65.6489 9.1339 65.8833C8.89948 66.1178 8.58154 66.2495 8.25002 66.2495C7.9185 66.2495 7.60056 66.1178 7.36614 65.8833C7.13172 65.6489 7.00002 65.331 7.00002 64.9995C7.00002 62.0158 8.18529 59.1543 10.2951 57.0445C12.4049 54.9347 15.2663 53.7495 18.25 53.7495C21.2337 53.7495 24.0952 54.9347 26.205 57.0445C28.3148 59.1543 29.5 62.0158 29.5 64.9995C29.5 65.331 29.3683 65.6489 29.1339 65.8833C28.8995 66.1178 28.5815 66.2495 28.25 66.2495ZM28.25 54.9995H28C27.9217 54.9858 27.8459 54.9605 27.775 54.9245L27.55 54.812L27.3625 54.662C27.3088 54.6026 27.2587 54.5399 27.2125 54.4745C27.1652 54.4048 27.1274 54.3291 27.1 54.2495C27.0528 54.1724 27.019 54.0878 27 53.9995C26.9877 53.9166 26.9877 53.8323 27 53.7495C26.9958 53.5855 27.03 53.4228 27.1 53.2745C27.1573 53.1199 27.2468 52.9793 27.3625 52.862C27.508 52.7178 27.6867 52.6117 27.8829 52.5528C28.0791 52.494 28.2867 52.4842 28.4875 52.5245C28.5703 52.536 28.6506 52.5614 28.725 52.5995C28.8018 52.6244 28.8737 52.6625 28.9375 52.712C29.009 52.7551 29.076 52.8054 29.1375 52.862C29.2533 52.9793 29.3428 53.1199 29.4 53.2745C29.4641 53.4247 29.498 53.5861 29.5 53.7495C29.4954 54.0804 29.3659 54.3974 29.1375 54.637C29.016 54.7474 28.8765 54.8362 28.725 54.8995C28.6506 54.9375 28.5703 54.9629 28.4875 54.9745L28.25 54.9995ZM8.25002 54.9995C7.91906 54.9949 7.60206 54.8654 7.36252 54.637C7.30876 54.5776 7.25867 54.5149 7.21252 54.4495C7.16521 54.3798 7.12738 54.3041 7.10002 54.2245C7.06196 54.15 7.03661 54.0697 7.02502 53.987C7.01054 53.9086 7.00218 53.8292 7.00002 53.7495C6.99858 53.5012 7.0711 53.2581 7.20836 53.0512C7.34561 52.8443 7.54136 52.683 7.77067 52.5877C7.99997 52.4925 8.25244 52.4678 8.49587 52.5166C8.73931 52.5654 8.96268 52.6857 9.13752 52.862C9.24793 52.9835 9.33672 53.123 9.40002 53.2745C9.46407 53.4247 9.49805 53.5861 9.50002 53.7495C9.50002 54.081 9.36832 54.3989 9.1339 54.6333C8.89948 54.8678 8.58154 54.9995 8.25002 54.9995Z" fill="white"/>
<path d="M64.4998 7.5H51.9998V6.25C51.9998 4.5924 51.3413 3.00269 50.1692 1.83058C48.9971 0.65848 47.4074 0 45.7498 0H33.2498C31.5922 0 30.0025 0.65848 28.8304 1.83058C27.6583 3.00269 26.9998 4.5924 26.9998 6.25V7.5H14.4998C13.5052 7.5 12.5514 7.89509 11.8481 8.59835C11.1449 9.30161 10.7498 10.2554 10.7498 11.25C10.7498 12.2446 11.1449 13.1984 11.8481 13.9017C12.5514 14.6049 13.5052 15 14.4998 15H16.9998L17.7998 32.5625C17.8078 32.7267 17.8481 32.8877 17.9185 33.0364C17.9888 33.185 18.0877 33.3183 18.2097 33.4286C18.3316 33.5389 18.4741 33.624 18.629 33.6792C18.7838 33.7344 18.9481 33.7584 19.1123 33.75C19.4416 33.7467 19.7564 33.6136 19.9881 33.3795C20.2198 33.1454 20.3498 32.8294 20.3498 32.5L19.5623 15H59.4998L57.2123 63.925C57.1673 64.8889 56.7524 65.7984 56.0539 66.4642C55.3555 67.1301 54.4273 67.5011 53.4623 67.5H27.2123C30.842 65.3188 33.5577 61.8954 34.8558 57.8646C36.1539 53.8338 35.9464 49.469 34.2718 45.5796C32.5971 41.6901 29.5689 38.5398 25.7487 36.7127C21.9284 34.8856 17.5753 34.5058 13.4963 35.6436C9.41737 36.7814 5.88934 39.3596 3.56636 42.9002C1.24338 46.4409 0.283048 50.7038 0.863416 54.8985C1.44379 59.0932 3.52548 62.9352 6.72254 65.7121C9.9196 68.489 14.0151 70.0125 18.2498 70H53.4748C55.0838 70.0017 56.6314 69.3828 57.7956 68.2722C58.9598 67.1616 59.6508 65.6448 59.7248 64.0375L61.9998 15H64.4998C65.4943 15 66.4482 14.6049 67.1514 13.9017C67.8547 13.1984 68.2498 12.2446 68.2498 11.25C68.2498 10.2554 67.8547 9.30161 67.1514 8.59835C66.4482 7.89509 65.4943 7.5 64.4998 7.5ZM9.49979 64.675C9.49979 62.3544 10.4217 60.1288 12.0626 58.4878C13.7035 56.8469 15.9291 55.925 18.2498 55.925C20.5704 55.925 22.796 56.8469 24.437 58.4878C26.0779 60.1288 26.9998 62.3544 26.9998 64.675C24.4542 66.5172 21.3921 67.509 18.2498 67.509C15.1075 67.509 12.0454 66.5172 9.49979 64.675ZM13.2498 48.75C13.2498 47.7611 13.543 46.7944 14.0924 45.9721C14.6418 45.1499 15.4227 44.509 16.3364 44.1306C17.25 43.7522 18.2553 43.6531 19.2252 43.8461C20.1951 44.039 21.0861 44.5152 21.7853 45.2145C22.4846 45.9137 22.9608 46.8046 23.1537 47.7745C23.3466 48.7445 23.2476 49.7498 22.8692 50.6634C22.4907 51.577 21.8499 52.3579 21.0276 52.9073C20.2054 53.4568 19.2387 53.75 18.2498 53.75C16.9237 53.75 15.6519 53.2232 14.7143 52.2855C13.7766 51.3479 13.2498 50.0761 13.2498 48.75ZM3.24979 52.5C3.24401 50.0557 3.83563 47.6471 4.97317 45.4836C6.11071 43.3202 7.75971 41.4675 9.77667 40.0868C11.7936 38.7061 14.1174 37.8392 16.5459 37.5616C18.9744 37.2839 21.4339 37.604 23.7104 38.4938C25.987 39.3836 28.0116 40.8163 29.6081 42.6671C31.2046 44.518 32.3246 46.731 32.8706 49.1135C33.4167 51.496 33.3723 53.9758 32.7412 56.3372C32.1101 58.6986 30.9116 60.87 29.2498 62.6625C28.8789 60.9204 28.0996 59.2913 26.9761 57.9091C25.8525 56.527 24.4169 55.4314 22.7873 54.7125C24.0374 53.7626 24.958 52.4443 25.4191 50.9434C25.8802 49.4425 25.8586 47.8348 25.3574 46.3468C24.8563 44.8589 23.9008 43.5657 22.6256 42.6496C21.3504 41.7336 19.8199 41.2408 18.2498 41.2408C16.6797 41.2408 15.1492 41.7336 13.874 42.6496C12.5988 43.5657 11.6433 44.8589 11.1421 46.3468C10.641 47.8348 10.6194 49.4425 11.0805 50.9434C11.5416 52.4443 12.4621 53.7626 13.7123 54.7125C12.0827 55.4314 10.647 56.527 9.52352 57.9091C8.40001 59.2913 7.62073 60.9204 7.24979 62.6625C4.67936 59.9027 3.25008 56.2714 3.24979 52.5ZM29.4998 6.25C29.4998 5.25544 29.8949 4.30161 30.5981 3.59835C31.3014 2.89509 32.2552 2.5 33.2498 2.5H45.7498C46.7444 2.5 47.6982 2.89509 48.4014 3.59835C49.1047 4.30161 49.4998 5.25544 49.4998 6.25V7.5H29.4998V6.25ZM64.4998 12.5H14.4998C14.1683 12.5 13.8503 12.3683 13.6159 12.1339C13.3815 11.8995 13.2498 11.5815 13.2498 11.25C13.2498 10.9185 13.3815 10.6005 13.6159 10.3661C13.8503 10.1317 14.1683 10 14.4998 10H64.4998C64.8313 10 65.1493 10.1317 65.3837 10.3661C65.6181 10.6005 65.7498 10.9185 65.7498 11.25C65.7498 11.5815 65.6181 11.8995 65.3837 12.1339C65.1493 12.3683 64.8313 12.5 64.4998 12.5ZM26.9998 54C26.9875 53.9171 26.9875 53.8329 26.9998 53.75C26.9956 53.586 27.0298 53.4233 27.0998 53.275C27.1571 53.1204 27.2465 52.9798 27.3623 52.8625C27.5078 52.7184 27.6865 52.6122 27.8827 52.5534C28.0788 52.4945 28.2865 52.4848 28.4873 52.525C28.5701 52.5366 28.6504 52.5619 28.7248 52.6C28.8016 52.625 28.8735 52.663 28.9373 52.7125C29.0088 52.7557 29.0758 52.8059 29.1373 52.8625C29.253 52.9798 29.3425 53.1204 29.3998 53.275C29.4638 53.4253 29.4978 53.5867 29.4998 53.75C29.4952 54.081 29.3657 54.398 29.1373 54.6375C29.0158 54.7479 28.8763 54.8367 28.7248 54.9C28.6504 54.9381 28.5701 54.9634 28.4873 54.975L28.2498 55H27.9998C27.9215 54.9863 27.8456 54.961 27.7748 54.925L27.5498 54.8125L27.3623 54.6625C27.3085 54.6031 27.2584 54.5405 27.2123 54.475C27.165 54.4053 27.1271 54.3297 27.0998 54.25C27.0526 54.1729 27.0188 54.0884 26.9998 54ZM7.18729 54.45C7.13998 54.3803 7.10215 54.3047 7.07479 54.225C7.03673 54.1506 7.01138 54.0703 6.99979 53.9875C6.99367 53.9085 6.99367 53.829 6.99979 53.75C6.99834 53.5017 7.07087 53.2586 7.20812 53.0517C7.34538 52.8448 7.54113 52.6835 7.77044 52.5883C7.99974 52.4931 8.25221 52.4683 8.49564 52.5172C8.73907 52.566 8.96245 52.6862 9.13729 52.8625C9.2477 52.984 9.33649 53.1235 9.39979 53.275C9.46384 53.4253 9.49781 53.5867 9.49979 53.75C9.50123 53.9983 9.42871 54.2414 9.29145 54.4483C9.1542 54.6552 8.95845 54.8165 8.72914 54.9117C8.49984 55.0069 8.24737 55.0317 8.00394 54.9828C7.7605 54.934 7.53713 54.8138 7.36229 54.6375C7.30853 54.5781 7.25844 54.5155 7.21229 54.45H7.18729ZM44.8623 22.1375C44.7451 22.0213 44.6521 21.883 44.5887 21.7307C44.5252 21.5784 44.4925 21.415 44.4925 21.25C44.4925 21.085 44.5252 20.9216 44.5887 20.7693C44.6521 20.617 44.7451 20.4787 44.8623 20.3625C44.9838 20.2521 45.1233 20.1633 45.2748 20.1C45.5024 20.0043 45.7533 19.9781 45.9958 20.0248C46.2383 20.0716 46.4615 20.1891 46.6373 20.3625C46.8136 20.5373 46.9338 20.7607 46.9826 21.0042C47.0315 21.2476 47.0067 21.5 46.9115 21.7294C46.8163 21.9587 46.655 22.1544 46.4481 22.2917C46.2412 22.4289 45.9981 22.5014 45.7498 22.5C45.5864 22.498 45.4251 22.4641 45.2748 22.4C45.1233 22.3367 44.9838 22.2479 44.8623 22.1375ZM38.6123 22.1375C38.4957 22.021 38.4033 21.8826 38.3402 21.7303C38.2771 21.578 38.2447 21.4148 38.2447 21.25C38.2447 21.0852 38.2771 20.922 38.3402 20.7697C38.4033 20.6174 38.4957 20.479 38.6123 20.3625C38.7288 20.246 38.8672 20.1535 39.0195 20.0904C39.1718 20.0273 39.335 19.9949 39.4998 19.9949C39.6646 19.9949 39.8278 20.0273 39.9801 20.0904C40.1324 20.1535 40.2707 20.246 40.3873 20.3625C40.503 20.4798 40.5925 20.6204 40.6498 20.775C40.7159 20.9246 40.7501 21.0864 40.7501 21.25C40.7501 21.4136 40.7159 21.5754 40.6498 21.725C40.5925 21.8796 40.503 22.0202 40.3873 22.1375C40.2711 22.2547 40.1328 22.3477 39.9805 22.4111C39.8282 22.4746 39.6648 22.5072 39.4998 22.5072C39.3348 22.5072 39.1714 22.4746 39.0191 22.4111C38.8667 22.3477 38.7285 22.2547 38.6123 22.1375ZM32.3623 22.1375C32.157 21.9339 32.0287 21.6655 31.9991 21.3779C31.9695 21.0903 32.0406 20.8013 32.2001 20.5602C32.3596 20.3191 32.5978 20.1408 32.8741 20.0556C33.1503 19.9703 33.4476 19.9835 33.7152 20.0928C33.9829 20.2021 34.2043 20.4009 34.3419 20.6551C34.4795 20.9094 34.5247 21.2035 34.4698 21.4873C34.4149 21.7712 34.2634 22.0272 34.0409 22.2119C33.8185 22.3965 33.5389 22.4983 33.2498 22.5C32.9188 22.4954 32.6018 22.3659 32.3623 22.1375ZM44.4998 27.5C44.5044 27.169 44.6339 26.852 44.8623 26.6125C44.9838 26.5021 45.1233 26.4133 45.2748 26.35C45.5024 26.2543 45.7533 26.2281 45.9958 26.2748C46.2383 26.3216 46.4615 26.4391 46.6373 26.6125C46.8136 26.7873 46.9338 27.0107 46.9826 27.2542C47.0315 27.4976 47.0067 27.75 46.9115 27.9794C46.8163 28.2087 46.655 28.4044 46.4481 28.5417C46.2412 28.6789 45.9981 28.7514 45.7498 28.75C45.5864 28.748 45.4251 28.7141 45.2748 28.65C45.1233 28.5867 44.9838 28.4979 44.8623 28.3875C44.6339 28.148 44.5044 27.831 44.4998 27.5ZM38.2498 27.5C38.2498 27.1685 38.3815 26.8505 38.6159 26.6161C38.8503 26.3817 39.1683 26.25 39.4998 26.25C39.8313 26.25 40.1493 26.3817 40.3837 26.6161C40.6181 26.8505 40.7498 27.1685 40.7498 27.5C40.7478 27.6633 40.7138 27.8247 40.6498 27.975C40.5925 28.1296 40.503 28.2702 40.3873 28.3875C40.2124 28.5638 39.9891 28.684 39.7456 28.7329C39.5022 28.7817 39.2497 28.7569 39.0204 28.6617C38.7911 28.5665 38.5954 28.4052 38.4581 28.1983C38.3209 27.9914 38.2483 27.7483 38.2498 27.5ZM31.9998 27.5C32.0015 27.2109 32.1033 26.9313 32.2879 26.7089C32.4726 26.4864 32.7286 26.3348 33.0125 26.28C33.2963 26.2251 33.5904 26.2703 33.8447 26.4079C34.0989 26.5455 34.2976 26.7669 34.407 27.0346C34.5163 27.3022 34.5294 27.5995 34.4442 27.8757C34.359 28.152 34.1806 28.3901 33.9395 28.5497C33.6984 28.7092 33.4095 28.7802 33.1219 28.7507C32.8343 28.7211 32.5659 28.5928 32.3623 28.3875C32.1339 28.148 32.0044 27.831 31.9998 27.5ZM44.4998 33.75C44.5044 33.419 44.6339 33.102 44.8623 32.8625C44.9838 32.7521 45.1233 32.6633 45.2748 32.6C45.5024 32.5043 45.7533 32.4781 45.9958 32.5248C46.2383 32.5716 46.4615 32.6891 46.6373 32.8625C46.8136 33.0373 46.9338 33.2607 46.9826 33.5042C47.0315 33.7476 47.0067 34 46.9115 34.2294C46.8163 34.4587 46.655 34.6544 46.4481 34.7917C46.2412 34.9289 45.9981 35.0014 45.7498 35C45.5864 34.998 45.4251 34.9641 45.2748 34.9C45.1233 34.8367 44.9838 34.7479 44.8623 34.6375C44.6339 34.398 44.5044 34.081 44.4998 33.75ZM38.2498 33.75C38.2483 33.5017 38.3209 33.2586 38.4581 33.0517C38.5954 32.8448 38.7911 32.6835 39.0204 32.5883C39.2497 32.4931 39.5022 32.4683 39.7456 32.5172C39.9891 32.566 40.2124 32.6862 40.3873 32.8625C40.5011 32.9814 40.5903 33.1216 40.6498 33.275C40.7159 33.4246 40.7501 33.5864 40.7501 33.75C40.7501 33.9136 40.7159 34.0754 40.6498 34.225C40.5865 34.3765 40.4977 34.516 40.3873 34.6375C40.2711 34.7547 40.1328 34.8477 39.9805 34.9111C39.8282 34.9746 39.6648 35.0072 39.4998 35.0072C39.3348 35.0072 39.1714 34.9746 39.0191 34.9111C38.8667 34.8477 38.7285 34.7547 38.6123 34.6375C38.5019 34.516 38.4131 34.3765 38.3498 34.225C38.2798 34.0766 38.2456 33.914 38.2498 33.75ZM44.4998 48.75C44.5044 48.419 44.6339 48.102 44.8623 47.8625C44.9838 47.7521 45.1233 47.6633 45.2748 47.6C45.5024 47.5043 45.7533 47.4781 45.9958 47.5248C46.2383 47.5716 46.4615 47.6891 46.6373 47.8625C46.8136 48.0373 46.9338 48.2607 46.9826 48.5041C47.0315 48.7476 47.0067 49 46.9115 49.2294C46.8163 49.4587 46.655 49.6544 46.4481 49.7917C46.2412 49.9289 45.9981 50.0014 45.7498 50C45.5864 49.998 45.4251 49.9641 45.2748 49.9C45.1233 49.8367 44.9838 49.7479 44.8623 49.6375C44.6339 49.398 44.5044 49.081 44.4998 48.75ZM38.2498 48.75C38.2483 48.5017 38.3209 48.2586 38.4581 48.0517C38.5954 47.8448 38.7911 47.6835 39.0204 47.5883C39.2497 47.4931 39.5022 47.4683 39.7456 47.5172C39.9891 47.566 40.2124 47.6862 40.3873 47.8625C40.5011 47.9814 40.5903 48.1216 40.6498 48.275C40.7159 48.4246 40.7501 48.5864 40.7501 48.75C40.7501 48.9136 40.7159 49.0754 40.6498 49.225C40.5925 49.3796 40.503 49.5202 40.3873 49.6375C40.2124 49.8138 39.9891 49.934 39.7456 49.9828C39.5022 50.0317 39.2497 50.0069 39.0204 49.9117C38.7911 49.8165 38.5954 49.6552 38.4581 49.4483C38.3209 49.2414 38.2483 48.9983 38.2498 48.75ZM44.4998 55C44.5044 54.669 44.6339 54.352 44.8623 54.1125C44.9838 54.0021 45.1233 53.9133 45.2748 53.85C45.5024 53.7543 45.7533 53.7281 45.9958 53.7748C46.2383 53.8216 46.4615 53.9391 46.6373 54.1125C46.8136 54.2873 46.9338 54.5107 46.9826 54.7541C47.0315 54.9976 47.0067 55.25 46.9115 55.4794C46.8163 55.7087 46.655 55.9044 46.4481 56.0417C46.2412 56.1789 45.9981 56.2514 45.7498 56.25C45.5864 56.248 45.4251 56.2141 45.2748 56.15C45.1233 56.0867 44.9838 55.9979 44.8623 55.8875C44.6339 55.648 44.5044 55.331 44.4998 55ZM38.2498 55C38.2483 54.7517 38.3209 54.5086 38.4581 54.3017C38.5954 54.0948 38.7911 53.9335 39.0204 53.8383C39.2497 53.7431 39.5022 53.7183 39.7456 53.7672C39.9891 53.816 40.2124 53.9362 40.3873 54.1125C40.5011 54.2314 40.5903 54.3716 40.6498 54.525C40.7138 54.6753 40.7478 54.8367 40.7498 55C40.7507 55.1645 40.7192 55.3276 40.657 55.4799C40.5948 55.6322 40.5031 55.7707 40.3873 55.8875C40.2124 56.0638 39.9891 56.184 39.7456 56.2328C39.5022 56.2817 39.2497 56.2569 39.0204 56.1617C38.7911 56.0665 38.5954 55.9052 38.4581 55.6983C38.3209 55.4914 38.2483 55.2483 38.2498 55ZM44.4998 61.25C44.5044 60.919 44.6339 60.602 44.8623 60.3625C44.9838 60.2521 45.1233 60.1633 45.2748 60.1C45.5024 60.0043 45.7533 59.9781 45.9958 60.0248C46.2383 60.0716 46.4615 60.1891 46.6373 60.3625C46.8136 60.5373 46.9338 60.7607 46.9826 61.0041C47.0315 61.2476 47.0067 61.5 46.9115 61.7294C46.8163 61.9587 46.655 62.1544 46.4481 62.2917C46.2412 62.4289 45.9981 62.5014 45.7498 62.5C45.5864 62.498 45.4251 62.4641 45.2748 62.4C45.1233 62.3367 44.9838 62.2479 44.8623 62.1375C44.6339 61.898 44.5044 61.581 44.4998 61.25ZM38.2498 61.25C38.2515 60.9609 38.3533 60.6813 38.5379 60.4589C38.7226 60.2364 38.9786 60.0848 39.2625 60.03C39.5463 59.9751 39.8404 60.0203 40.0947 60.1579C40.3489 60.2955 40.5476 60.5169 40.657 60.7846C40.7663 61.0522 40.7794 61.3495 40.6942 61.6257C40.609 61.902 40.4306 62.1401 40.1895 62.2997C39.9484 62.4592 39.6595 62.5302 39.3719 62.5007C39.0843 62.4711 38.8159 62.3428 38.6123 62.1375C38.3839 61.898 38.2544 61.581 38.2498 61.25ZM31.9998 33.75C32.0044 33.419 32.1339 33.102 32.3623 32.8625C32.4812 32.7487 32.6213 32.6595 32.7748 32.6C33.0024 32.5043 33.2533 32.4781 33.4958 32.5248C33.7383 32.5716 33.9615 32.6891 34.1373 32.8625C34.2817 33.0081 34.388 33.1869 34.447 33.3833C34.5059 33.5797 34.5157 33.7876 34.4753 33.9886C34.435 34.1896 34.3459 34.3777 34.2157 34.5361C34.0856 34.6946 33.9185 34.8186 33.7291 34.8972C33.5397 34.9758 33.3339 35.0066 33.1298 34.987C32.9258 34.9673 32.7296 34.8977 32.5588 34.7844C32.3879 34.671 32.2476 34.5174 32.1501 34.337C32.0526 34.1566 32.001 33.955 31.9998 33.75Z" fill="black"/>
<defs>
<linearGradient id="paint0_linear_48870_6061" x1="39.4446" y1="62.5" x2="43.3305" y2="20.3481" gradientUnits="userSpaceOnUse">
<stop stop-color="#87174F"/>
<stop offset="0.5" stop-color="#AB2856"/>
<stop offset="1" stop-color="#B73A4E"/>
</linearGradient>
<linearGradient id="paint1_linear_48870_6061" x1="39.2901" y1="15" x2="39.322" y2="7.49835" gradientUnits="userSpaceOnUse">
<stop stop-color="#87174F"/>
<stop offset="0.5" stop-color="#AB2856"/>
<stop offset="1" stop-color="#B73A4E"/>
</linearGradient>
</defs>
</svg>
