<svg width="22" height="22" viewBox="0 0 22 22" fill="none" xmlns="http://www.w3.org/2000/svg">
<g clip-path="url(#clip0_49972_18884)">
<path d="M11 0C4.92486 0 0 4.92486 0 11C0 17.0751 4.92486 22 11 22C17.0751 22 22 17.0751 22 11C22 4.92486 17.0751 0 11 0ZM11 20.625C5.68425 20.625 1.375 16.3158 1.375 11C1.375 5.68425 5.68425 1.375 11 1.375C16.3158 1.375 20.625 5.68425 20.625 11C20.625 16.3158 16.3158 20.625 11 20.625Z" fill="#767C8C"/>
<path d="M7.5625 8.9375C8.32189 8.9375 8.9375 8.32189 8.9375 7.5625C8.9375 6.80311 8.32189 6.1875 7.5625 6.1875C6.80311 6.1875 6.1875 6.80311 6.1875 7.5625C6.1875 8.32189 6.80311 8.9375 7.5625 8.9375Z" fill="#767C8C"/>
<path d="M14.4375 8.9375C15.1969 8.9375 15.8125 8.32189 15.8125 7.5625C15.8125 6.80311 15.1969 6.1875 14.4375 6.1875C13.6781 6.1875 13.0625 6.80311 13.0625 7.5625C13.0625 8.32189 13.6781 8.9375 14.4375 8.9375Z" fill="#767C8C"/>
<path d="M15.8125 11C15.8125 13.6579 13.6579 15.8125 11 15.8125C8.34212 15.8125 6.1875 13.6579 6.1875 11H4.8125C4.8125 14.4173 7.58274 17.1875 11 17.1875C14.4173 17.1875 17.1875 14.4173 17.1875 11H15.8125Z" fill="#767C8C"/>
</g>
<defs>
<clipPath id="clip0_49972_18884">
<rect width="22" height="22" fill="white"/>
</clipPath>
</defs>
</svg>
