<svg width="25" height="24" viewBox="0 0 25 24" fill="none" xmlns="http://www.w3.org/2000/svg">
<path d="M2.25 12C2.25 7.28596 2.25 4.92893 3.71447 3.46447C5.17893 2 7.53596 2 12.25 2C16.964 2 19.3211 2 20.7855 3.46447C22.25 4.92893 22.25 7.28596 22.25 12C22.25 16.714 22.25 19.0711 20.7855 20.5355C19.3211 22 16.964 22 12.25 22C7.53596 22 5.17893 22 3.71447 20.5355C2.25 19.0711 2.25 16.714 2.25 12Z" stroke="url(#paint0_linear_49995_7643)" stroke-width="1.8"/>
<path d="M7.25 18V9" stroke="url(#paint1_linear_49995_7643)" stroke-width="1.8" stroke-linecap="round"/>
<path d="M12.25 18V6" stroke="url(#paint2_linear_49995_7643)" stroke-width="1.8" stroke-linecap="round"/>
<path d="M17.25 18V13" stroke="url(#paint3_linear_49995_7643)" stroke-width="1.8" stroke-linecap="round"/>
<defs>
<linearGradient id="paint0_linear_49995_7643" x1="12.177" y1="22" x2="12.8278" y2="2.01644" gradientUnits="userSpaceOnUse">
<stop stop-color="#87174F"/>
<stop offset="0.5" stop-color="#AB2856"/>
<stop offset="1" stop-color="#B73A4E"/>
</linearGradient>
<linearGradient id="paint1_linear_49995_7643" x1="7.74635" y1="18" x2="10.1762" y2="9.71008" gradientUnits="userSpaceOnUse">
<stop stop-color="#87174F"/>
<stop offset="0.5" stop-color="#AB2856"/>
<stop offset="1" stop-color="#B73A4E"/>
</linearGradient>
<linearGradient id="paint2_linear_49995_7643" x1="12.7463" y1="18" x2="16.8157" y2="7.5875" gradientUnits="userSpaceOnUse">
<stop stop-color="#87174F"/>
<stop offset="0.5" stop-color="#AB2856"/>
<stop offset="1" stop-color="#B73A4E"/>
</linearGradient>
<linearGradient id="paint3_linear_49995_7643" x1="17.7463" y1="18" x2="18.5397" y2="13.128" gradientUnits="userSpaceOnUse">
<stop stop-color="#87174F"/>
<stop offset="0.5" stop-color="#AB2856"/>
<stop offset="1" stop-color="#B73A4E"/>
</linearGradient>
</defs>
</svg>
