<svg width="24" height="24" viewBox="0 0 24 24" fill="none" xmlns="http://www.w3.org/2000/svg">
<path d="M13.221 13.1289H12.3047V17.4543H13.221V13.1289Z" fill="#A8AEBF"/>
<path d="M9.81884 15.742H10.4406V16.6474C10.2956 16.6992 10.1417 16.7214 9.98792 16.7129C9.29206 16.72 8.7222 16.1617 8.71503 15.4658C8.71437 15.4012 8.71869 15.3367 8.72792 15.2729C8.65428 14.5778 9.158 13.9548 9.85302 13.8811C9.92319 13.8737 9.99388 13.8721 10.0643 13.8765C10.3889 13.8649 10.7118 13.9283 11.0079 14.0619L11.1988 13.2765C10.839 13.1317 10.4515 13.0684 10.0643 13.0911C8.88097 12.999 7.847 13.8836 7.75494 15.0669C7.74763 15.1609 7.7465 15.2552 7.75156 15.3493C7.71889 15.9244 7.91497 16.4891 8.297 16.9202C8.73814 17.3329 9.33064 17.5442 9.93336 17.5038C10.3946 17.4957 10.8514 17.4128 11.2861 17.2584V14.9784H9.8188V15.742H9.81884Z" fill="#A8AEBF"/>
<path d="M16.3635 0H4.36348C3.15852 0 2.18164 0.976828 2.18164 2.1818V21.8182C2.18164 23.0231 3.15847 24 4.36344 24H19.6362C20.8411 24 21.818 23.0231 21.818 21.8182V6L16.3635 0ZM20.7271 21.8182C20.7271 22.4207 20.2387 22.9091 19.6362 22.9091H4.36348C3.761 22.9091 3.27256 22.4207 3.27256 21.8182V2.1818C3.27256 1.57931 3.761 1.09087 4.36348 1.09087H14.1817V6.54544C14.1817 7.14792 14.6701 7.63636 15.2726 7.63636H20.7272L20.7271 21.8182ZM15.2726 6.54544V1.09092H15.818L20.7271 6.54548L15.2726 6.54544Z" fill="#A8AEBF"/>
<path d="M13.9414 17.4544H14.8578V15.7144H16.3087V14.918H14.8578V13.9307H16.4123V13.1289H13.9414V17.4544Z" fill="#A8AEBF"/>
</svg>
