<svg width="25" height="24" viewBox="0 0 25 24" fill="none" xmlns="http://www.w3.org/2000/svg">
<path d="M11.6193 21.5102L12.3938 21.9686H12.3938L11.6193 21.5102ZM11.8788 21.0719L11.1043 20.6135L11.1043 20.6135L11.8788 21.0719ZM9.62121 21.0719L10.3957 20.6135L10.3957 20.6135L9.62121 21.0719ZM9.88064 21.5102L9.10615 21.9686H9.10615L9.88064 21.5102ZM3.05448 17.1308L3.88597 16.7864L3.05448 17.1308ZM7.03931 19.585L7.06808 18.6855H7.06808L7.03931 19.585ZM5.21927 19.2956L4.87485 20.1271H4.87485L5.21927 19.2956ZM18.4455 17.1308L19.277 17.4752V17.4752L18.4455 17.1308ZM14.4607 19.585L14.4319 18.6855L14.4607 19.585ZM16.2807 19.2956L16.6252 20.1271L16.2807 19.2956ZM16.84 6.58944L17.3102 5.82207V5.82207L16.84 6.58944ZM18.1606 7.91001L18.9279 7.43977L18.9279 7.43977L18.1606 7.91001ZM4.66001 6.58944L4.18976 5.82207V5.82207L4.66001 6.58944ZM3.33944 7.91001L2.57206 7.43977L2.57206 7.43977L3.33944 7.91001ZM8.66637 19.8223L8.20816 20.597H8.20817L8.66637 19.8223ZM11.6193 21.5102L12.3938 21.9686L12.6533 21.5303L11.8788 21.0719L11.1043 20.6135L10.8448 21.0518L11.6193 21.5102ZM9.62121 21.0719L8.84671 21.5303L9.10615 21.9686L9.88064 21.5102L10.6551 21.0518L10.3957 20.6135L9.62121 21.0719ZM11.6193 21.5102L10.8448 21.0518C10.8338 21.0704 10.8226 21.0795 10.8108 21.0859C10.7964 21.0937 10.7754 21.1 10.75 21.1C10.7246 21.1 10.7035 21.0937 10.6892 21.0859C10.6773 21.0795 10.6661 21.0704 10.6551 21.0518L9.88064 21.5102L9.10615 21.9686C9.84117 23.2105 11.6588 23.2105 12.3938 21.9686L11.6193 21.5102ZM9.55 6V6.9H11.95V6V5.1H9.55V6ZM18.75 12.8H17.85V13.6H18.75H19.65V12.8H18.75ZM2.75 13.6H3.65V12.8H2.75H1.85V13.6H2.75ZM2.75 13.6H1.85C1.85 14.5196 1.84951 15.2544 1.89015 15.8499C1.93133 16.4536 2.01775 16.9797 2.22299 17.4752L3.05448 17.1308L3.88597 16.7864C3.78673 16.5468 3.72091 16.2394 3.68597 15.7274C3.65049 15.2073 3.65 14.5442 3.65 13.6H2.75ZM7.03931 19.585L7.06808 18.6855C6.27938 18.6602 5.8716 18.5916 5.56368 18.4641L5.21927 19.2956L4.87485 20.1271C5.49798 20.3852 6.17909 20.4579 7.01053 20.4845L7.03931 19.585ZM3.05448 17.1308L2.22299 17.4752C2.72031 18.6758 3.67421 19.6297 4.87485 20.1271L5.21927 19.2956L5.56368 18.4641C4.8041 18.1495 4.20061 17.546 3.88597 16.7864L3.05448 17.1308ZM18.75 13.6H17.85C17.85 14.5442 17.8495 15.2073 17.814 15.7274C17.7791 16.2394 17.7133 16.5468 17.614 16.7864L18.4455 17.1308L19.277 17.4752C19.4822 16.9797 19.5687 16.4536 19.6099 15.8499C19.6505 15.2544 19.65 14.5196 19.65 13.6H18.75ZM14.4607 19.585L14.4894 20.4845C15.3209 20.4579 16.002 20.3852 16.6252 20.1271L16.2807 19.2956L15.9363 18.4641C15.6284 18.5916 15.2206 18.6602 14.4319 18.6855L14.4607 19.585ZM18.4455 17.1308L17.614 16.7864C17.2994 17.546 16.6959 18.1495 15.9363 18.4641L16.2807 19.2956L16.6252 20.1271C17.8258 19.6297 18.7797 18.6758 19.277 17.4752L18.4455 17.1308ZM11.95 6V6.9C13.2768 6.9 14.2087 6.90095 14.9311 6.96964C15.6402 7.03706 16.054 7.16332 16.3697 7.35682L16.84 6.58944L17.3102 5.82207C16.6641 5.42612 15.9423 5.25767 15.1015 5.17772C14.2741 5.09905 13.2419 5.1 11.95 5.1V6ZM18.75 12.8H19.65C19.65 11.5081 19.6509 10.4759 19.5723 9.64851C19.4923 8.8077 19.3239 8.08588 18.9279 7.43977L18.1606 7.91001L17.3932 8.38026C17.5867 8.69602 17.7129 9.10984 17.7804 9.81888C17.8491 10.5413 17.85 11.4732 17.85 12.8H18.75ZM16.84 6.58944L16.3697 7.35682C16.7869 7.61243 17.1376 7.96314 17.3932 8.38026L18.1606 7.91001L18.9279 7.43977C18.5239 6.78044 17.9696 6.2261 17.3102 5.82207L16.84 6.58944ZM9.55 6V5.1C8.25805 5.1 7.2259 5.09905 6.39849 5.17772C5.55769 5.25767 4.83587 5.42612 4.18976 5.82207L4.66001 6.58944L5.13026 7.35682C5.44602 7.16332 5.85982 7.03706 6.56887 6.96964C7.2913 6.90095 8.2232 6.9 9.55 6.9V6ZM2.75 12.8H3.65C3.65 11.4732 3.65095 10.5413 3.71964 9.81888C3.78706 9.10984 3.91332 8.69602 4.10682 8.38026L3.33944 7.91001L2.57206 7.43977C2.17612 8.08588 2.00766 8.8077 1.92772 9.64851C1.84905 10.4759 1.85 11.5081 1.85 12.8H2.75ZM4.66001 6.58944L4.18976 5.82207C3.53043 6.2261 2.97609 6.78044 2.57206 7.43977L3.33944 7.91001L4.10682 8.38026C4.36243 7.96314 4.71313 7.61243 5.13026 7.35682L4.66001 6.58944ZM9.62121 21.0719L10.3957 20.6135C10.1963 20.2766 10.0162 19.9704 9.84025 19.7283C9.65366 19.4714 9.43354 19.2305 9.12458 19.0477L8.66637 19.8223L8.20817 20.597C8.23037 20.6101 8.27978 20.6428 8.38388 20.7861C8.49865 20.9441 8.63032 21.1647 8.84671 21.5303L9.62121 21.0719ZM7.03931 19.585L7.01053 20.4845C7.45868 20.4989 7.73557 20.5086 7.94366 20.5339C8.13757 20.5576 8.1915 20.5871 8.20816 20.597L8.66637 19.8223L9.12458 19.0477C8.81008 18.8617 8.48245 18.7863 8.1616 18.7472C7.85493 18.7098 7.48387 18.6988 7.06808 18.6855L7.03931 19.585ZM11.8788 21.0719L12.6533 21.5303C12.8696 21.1647 13.0013 20.9441 13.1161 20.7861C13.2202 20.6428 13.2696 20.6101 13.2918 20.597L12.8336 19.8223L12.3754 19.0477C12.0664 19.2305 11.8463 19.4714 11.6597 19.7283C11.4838 19.9704 11.3036 20.2766 11.1043 20.6135L11.8788 21.0719ZM14.4607 19.585L14.4319 18.6855C14.0161 18.6988 13.645 18.7098 13.3384 18.7472C13.0175 18.7863 12.6899 18.8617 12.3754 19.0477L12.8336 19.8223L13.2918 20.597C13.3085 20.5871 13.3624 20.5576 13.5563 20.5339C13.7644 20.5086 14.0413 20.4989 14.4894 20.4845L14.4607 19.585Z" fill="#A8AEBF"/>
<path d="M22.4645 12.4351L23.296 12.7795L23.296 12.7795L22.4645 12.4351ZM20.435 14.4646L20.7794 15.2961L20.7794 15.2961L20.435 14.4646ZM20.9593 2.5526L20.4891 3.31998L20.9593 2.5526ZM22.1973 3.79064L22.9647 3.32039V3.32039L22.1973 3.79064ZM9.54058 2.5526L9.07033 1.78523V1.78523L9.54058 2.5526ZM8.30255 3.79064L7.53517 3.32039H7.53517L8.30255 3.79064ZM14.1249 2V2.9H16.3749V2V1.1H14.1249V2ZM22.7499 8.37503H21.8499V9.12503H22.7499H23.6499V8.37503H22.7499ZM22.7499 9.12503H21.8499C21.8499 10.011 21.8495 10.6304 21.8164 11.1156C21.7838 11.5927 21.7227 11.8741 21.633 12.0907L22.4645 12.4351L23.296 12.7795C23.4917 12.307 23.5734 11.8069 23.6122 11.2381C23.6504 10.6774 23.6499 9.98636 23.6499 9.12503H22.7499ZM22.4645 12.4351L21.633 12.0907C21.3437 12.789 20.7889 13.3439 20.0906 13.6331L20.435 14.4646L20.7794 15.2961C21.9188 14.8241 22.824 13.9189 23.296 12.7795L22.4645 12.4351ZM16.3749 2V2.9C17.6199 2.9 18.4904 2.90095 19.1644 2.96503C19.825 3.02785 20.2034 3.1449 20.4891 3.31998L20.9593 2.5526L21.4296 1.78523C20.8135 1.4077 20.1272 1.24846 19.3348 1.17312C18.5558 1.09905 17.5851 1.1 16.3749 1.1V2ZM22.7499 8.37503H23.6499C23.6499 7.16491 23.6509 6.19413 23.5768 5.41515C23.5015 4.62278 23.3422 3.93645 22.9647 3.32039L22.1973 3.79064L21.43 4.26089C21.6051 4.54659 21.7221 4.92491 21.7849 5.58553C21.849 6.25953 21.8499 7.13006 21.8499 8.37503H22.7499ZM20.9593 2.5526L20.4891 3.31998C20.8726 3.55498 21.195 3.8774 21.43 4.26089L22.1973 3.79064L22.9647 3.32039C22.5813 2.69471 22.0553 2.16865 21.4296 1.78523L20.9593 2.5526ZM14.1249 2V1.1C12.9148 1.1 11.9441 1.09905 11.1651 1.17312C10.3727 1.24846 9.68639 1.4077 9.07033 1.78523L9.54058 2.5526L10.0108 3.31998C10.2965 3.1449 10.6748 3.02785 11.3355 2.96503C12.0095 2.90095 12.88 2.9 14.1249 2.9V2ZM9.54058 2.5526L9.07033 1.78523C8.44464 2.16865 7.91859 2.69471 7.53517 3.32039L8.30255 3.79064L9.06992 4.26089C9.30492 3.8774 9.62734 3.55498 10.0108 3.31998L9.54058 2.5526ZM7.7832 6L8.68199 6.04675C8.73161 5.09272 8.85517 4.61133 9.06992 4.26089L8.30255 3.79064L7.53517 3.32039C7.07783 4.06671 6.93801 4.92303 6.88442 5.95325L7.7832 6ZM18.75 14.7352L18.7799 15.6347C19.5503 15.6091 20.1907 15.54 20.7794 15.2961L20.435 14.4646L20.0906 13.6331C19.8147 13.7474 19.4451 13.8116 18.7201 13.8357L18.75 14.7352Z" fill="#A8AEBF"/>
<path d="M7.25879 13H7.26779M10.7495 13H10.7585M14.2405 13H14.2495" stroke="#A8AEBF" stroke-width="2.4" stroke-linecap="round" stroke-linejoin="round"/>
</svg>
