<svg width="25" height="24" viewBox="0 0 25 24" fill="none" xmlns="http://www.w3.org/2000/svg">
<path d="M14 15.5C14 13.6144 14 12.6716 14.5858 12.0858C15.1716 11.5 16.1144 11.5 18 11.5C19.8856 11.5 20.8284 11.5 21.4142 12.0858C22 12.6716 22 13.6144 22 15.5V17.5C22 19.3856 22 20.3284 21.4142 20.9142C20.8284 21.5 19.8856 21.5 18 21.5C16.1144 21.5 15.1716 21.5 14.5858 20.9142C14 20.3284 14 19.3856 14 17.5V15.5Z" stroke="url(#paint0_linear_50131_14114)" stroke-width="1.5"/>
<path d="M2.5 8.5C2.5 10.3856 2.5 11.3284 3.08579 11.9142C3.67157 12.5 4.61438 12.5 6.5 12.5C8.38562 12.5 9.32843 12.5 9.91421 11.9142C10.5 11.3284 10.5 10.3856 10.5 8.5V6.5C10.5 4.61438 10.5 3.67157 9.91421 3.08579C9.32843 2.5 8.38562 2.5 6.5 2.5C4.61438 2.5 3.67157 2.5 3.08579 3.08579C2.5 3.67157 2.5 4.61438 2.5 6.5V8.5Z" stroke="url(#paint1_linear_50131_14114)" stroke-width="1.5"/>
<path d="M14 5.5C14 4.56812 14 4.10218 14.1522 3.73463C14.3552 3.24458 14.7446 2.85523 15.2346 2.65224C15.6022 2.5 16.0681 2.5 17 2.5H19C19.9319 2.5 20.3978 2.5 20.7654 2.65224C21.2554 2.85523 21.6448 3.24458 21.8478 3.73463C22 4.10218 22 4.56812 22 5.5C22 6.43188 22 6.89782 21.8478 7.26537C21.6448 7.75542 21.2554 8.14477 20.7654 8.34776C20.3978 8.5 19.9319 8.5 19 8.5H17C16.0681 8.5 15.6022 8.5 15.2346 8.34776C14.7446 8.14477 14.3552 7.75542 14.1522 7.26537C14 6.89782 14 6.43188 14 5.5Z" stroke="url(#paint2_linear_50131_14114)" stroke-width="1.5"/>
<path d="M2.5 18.5C2.5 19.4319 2.5 19.8978 2.65224 20.2654C2.85523 20.7554 3.24458 21.1448 3.73463 21.3478C4.10218 21.5 4.56812 21.5 5.5 21.5H7.5C8.43188 21.5 8.89782 21.5 9.26537 21.3478C9.75542 21.1448 10.1448 20.7554 10.3478 20.2654C10.5 19.8978 10.5 19.4319 10.5 18.5C10.5 17.5681 10.5 17.1022 10.3478 16.7346C10.1448 16.2446 9.75542 15.8552 9.26537 15.6522C8.89782 15.5 8.43188 15.5 7.5 15.5H5.5C4.56812 15.5 4.10218 15.5 3.73463 15.6522C3.24458 15.8552 2.85523 16.2446 2.65224 16.7346C2.5 17.1022 2.5 17.5681 2.5 18.5Z" stroke="url(#paint3_linear_50131_14114)" stroke-width="1.5"/>
<defs>
<linearGradient id="paint0_linear_50131_14114" x1="17.9708" y1="21.5" x2="18.3773" y2="11.5142" gradientUnits="userSpaceOnUse">
<stop stop-color="#87174F"/>
<stop offset="0.5" stop-color="#AB2856"/>
<stop offset="1" stop-color="#B73A4E"/>
</linearGradient>
<linearGradient id="paint1_linear_50131_14114" x1="6.4708" y1="12.5" x2="6.87732" y2="2.51417" gradientUnits="userSpaceOnUse">
<stop stop-color="#87174F"/>
<stop offset="0.5" stop-color="#AB2856"/>
<stop offset="1" stop-color="#B73A4E"/>
</linearGradient>
<linearGradient id="paint2_linear_50131_14114" x1="17.9708" y1="8.5" x2="18.1173" y2="2.50215" gradientUnits="userSpaceOnUse">
<stop stop-color="#87174F"/>
<stop offset="0.5" stop-color="#AB2856"/>
<stop offset="1" stop-color="#B73A4E"/>
</linearGradient>
<linearGradient id="paint3_linear_50131_14114" x1="6.4708" y1="21.5" x2="6.6173" y2="15.5022" gradientUnits="userSpaceOnUse">
<stop stop-color="#87174F"/>
<stop offset="0.5" stop-color="#AB2856"/>
<stop offset="1" stop-color="#B73A4E"/>
</linearGradient>
</defs>
</svg>
