<svg width="16" height="16" viewBox="0 0 16 16" fill="none" xmlns="http://www.w3.org/2000/svg">
<path fill-rule="evenodd" clip-rule="evenodd" d="M8.00033 2.31281C7.92599 2.42312 7.8344 2.58573 7.69805 2.83033L7.61613 2.97729C7.61004 2.98821 7.60377 2.99961 7.59727 3.01142C7.52941 3.13473 7.43723 3.30224 7.28499 3.41781C7.12995 3.5355 6.94298 3.57666 6.8093 3.60609C6.79661 3.60888 6.7844 3.61157 6.77274 3.61421L6.61366 3.6502C6.32292 3.71598 6.14174 3.75809 6.01999 3.80065C6.09527 3.91375 6.22163 4.06314 6.4266 4.30283L6.53506 4.42965C6.54303 4.43898 6.55135 4.44861 6.55993 4.45855C6.65228 4.56544 6.77512 4.70765 6.8319 4.89024C6.88809 5.07092 6.86907 5.25787 6.85453 5.40077C6.85317 5.41411 6.85185 5.42707 6.85064 5.4396L6.83424 5.60881C6.80495 5.91109 6.7869 6.10663 6.78741 6.24495C6.90755 6.20237 7.07209 6.12763 7.3232 6.01201L7.47215 5.94342C7.48311 5.93838 7.49459 5.93301 7.50655 5.92741C7.6302 5.86955 7.80562 5.78746 8.00033 5.78746C8.19504 5.78746 8.37046 5.86955 8.49411 5.92741C8.50607 5.93301 8.51754 5.93838 8.5285 5.94342L8.67746 6.01201C8.92857 6.12763 9.09311 6.20237 9.21324 6.24495C9.21376 6.10663 9.19571 5.91109 9.16641 5.60881L9.15002 5.4396C9.1488 5.42707 9.14748 5.41411 9.14613 5.40077C9.13159 5.25787 9.11257 5.07093 9.16875 4.89024C9.22553 4.70765 9.34838 4.56544 9.44072 4.45854C9.4493 4.44861 9.45762 4.43898 9.4656 4.42965L9.57405 4.30283C9.77903 4.06314 9.90539 3.91375 9.98067 3.80065C9.85892 3.75809 9.67773 3.71598 9.387 3.6502L9.22791 3.61421C9.21625 3.61157 9.20404 3.60888 9.19135 3.60609C9.05767 3.57666 8.8707 3.5355 8.71566 3.41781C8.56343 3.30224 8.47124 3.13473 8.40338 3.01142C8.39689 2.99961 8.39061 2.98821 8.38453 2.97729L8.3026 2.83033C8.16625 2.58573 8.07467 2.42312 8.00033 2.31281ZM9.34591 6.28138C9.34661 6.28139 9.34699 6.28142 9.347 6.28143ZM6.65366 6.28143C6.65367 6.28142 6.65404 6.28139 6.65475 6.28138ZM7.30229 1.67803C7.43709 1.50201 7.65718 1.28125 8.00033 1.28125C8.34348 1.28125 8.56357 1.50201 8.69836 1.67802C8.82816 1.84752 8.96102 2.08594 9.10552 2.34525C9.11082 2.35476 9.11614 2.36429 9.12147 2.37386L9.20339 2.52082C9.22639 2.56208 9.24419 2.59398 9.25998 2.62132C9.2706 2.6397 9.27893 2.65358 9.28563 2.66429C9.29614 2.66719 9.30944 2.67064 9.32649 2.67479C9.35587 2.68195 9.39004 2.68969 9.4348 2.69982L9.59389 2.73581C9.60474 2.73827 9.61556 2.74072 9.62635 2.74316C9.90567 2.8063 10.1664 2.86524 10.3632 2.94283C10.5765 3.02689 10.8343 3.17839 10.9336 3.49774C11.0313 3.81197 10.911 4.08326 10.7895 4.27631C10.6753 4.45769 10.499 4.66374 10.3076 4.88758L10.1781 5.03896C10.1476 5.07458 10.1242 5.10205 10.1042 5.12612C10.0879 5.14586 10.0766 5.16012 10.0685 5.17088C10.0695 5.20569 10.074 5.2547 10.0831 5.34918L10.1026 5.55021C10.1317 5.84974 10.1582 6.12312 10.1486 6.33844C10.1387 6.56214 10.0859 6.86154 9.81997 7.06341C9.5464 7.27109 9.24075 7.23059 9.02395 7.16847C8.82105 7.11033 8.57727 6.99804 8.31588 6.87763C8.30573 6.87296 8.29556 6.86827 8.28536 6.86358L8.13641 6.79499C8.09452 6.77571 8.06246 6.76096 8.0346 6.74868C8.02089 6.74263 8.00964 6.73783 8.00033 6.73399C7.99101 6.73783 7.97976 6.74263 7.96605 6.74868C7.9382 6.76096 7.90614 6.77571 7.86424 6.79499L7.71529 6.86358C7.70509 6.86827 7.69492 6.87296 7.68478 6.87763C7.42338 6.99804 7.1796 7.11033 6.9767 7.16847C6.75991 7.23059 6.45426 7.27109 6.18069 7.06341C5.91477 6.86154 5.86199 6.56214 5.85203 6.33844C5.84244 6.12313 5.86896 5.84975 5.89802 5.55023C5.89905 5.53965 5.90008 5.52904 5.90111 5.51839L5.91751 5.34918C5.92666 5.2547 5.93113 5.20569 5.93218 5.17088C5.9241 5.16012 5.91279 5.14586 5.89644 5.12612C5.87649 5.10205 5.85302 5.07458 5.82256 5.03896L5.7141 4.91213C5.70708 4.90392 5.70008 4.89573 5.69309 4.88757C5.50162 4.66373 5.32537 4.45768 5.21119 4.27631C5.08966 4.08326 4.96936 3.81197 5.06708 3.49774C5.16638 3.17839 5.42411 3.02689 5.63742 2.94283C5.83428 2.86525 6.09498 2.80631 6.3743 2.74316C6.38509 2.74072 6.39592 2.73827 6.40677 2.73581L6.56585 2.69982C6.61061 2.68969 6.64479 2.68195 6.67416 2.67479C6.69122 2.67064 6.70451 2.6672 6.71503 2.66429C6.72173 2.65358 6.73005 2.6397 6.74067 2.62132C6.75647 2.59398 6.77426 2.56208 6.79726 2.52082L6.87919 2.37386C6.88452 2.36429 6.88983 2.35476 6.89513 2.34525C7.03963 2.08594 7.17249 1.84752 7.30229 1.67803ZM3.00033 5.62601C3.03293 5.68621 3.10235 5.80909 3.21628 5.89558C3.33872 5.98853 3.48569 6.01948 3.54677 6.03234C3.55287 6.03363 3.55812 6.03473 3.5624 6.0357L3.57527 6.03861L3.55484 6.0625C3.5517 6.06617 3.54791 6.07048 3.54359 6.07541C3.50073 6.12424 3.40494 6.23339 3.36074 6.37552C3.31714 6.51571 3.33285 6.65927 3.34003 6.72486C3.34076 6.73155 3.34141 6.73743 3.34189 6.74241L3.34256 6.74936C3.28362 6.72116 3.15 6.65936 3.00033 6.65936C2.85065 6.65936 2.71703 6.72116 2.65809 6.74936L2.65876 6.74241C2.65925 6.73743 2.65989 6.73155 2.66062 6.72486C2.6678 6.65927 2.68351 6.51571 2.63992 6.37552C2.59572 6.23339 2.49992 6.12424 2.45706 6.07541C2.45274 6.07048 2.44896 6.06617 2.44582 6.0625L2.42539 6.03861L2.43826 6.0357C2.44253 6.03473 2.44778 6.03363 2.45389 6.03234C2.51496 6.01948 2.66193 5.98853 2.78437 5.89558C2.89831 5.80909 2.96772 5.68621 3.00033 5.62601ZM2.33481 5.57851L2.24613 5.18656ZM2.62908 7.14522C2.62921 7.14615 2.62926 7.14664 2.62925 7.14665ZM3.37141 7.14665C3.3714 7.14664 3.37144 7.14615 3.37158 7.14522ZM2.46523 4.69651C2.54565 4.5915 2.71635 4.40625 3.00033 4.40625C3.2843 4.40625 3.45501 4.5915 3.53542 4.69651C3.6111 4.79533 3.68526 4.92851 3.75349 5.05104C3.75755 5.05834 3.76159 5.0656 3.76561 5.07281L3.79602 5.12736L3.84883 5.13931C3.85687 5.14113 3.86498 5.14296 3.87315 5.1448C4.00496 5.17455 4.15186 5.2077 4.26771 5.25336C4.39958 5.30533 4.60974 5.41874 4.69076 5.67927C4.77019 5.9347 4.66694 6.14594 4.59324 6.26302C4.52667 6.36876 4.42809 6.48393 4.33756 6.5897C4.33219 6.59597 4.32686 6.6022 4.32157 6.60839L4.27596 6.66172L4.28322 6.73659C4.284 6.7447 4.2848 6.75285 4.28559 6.76103C4.29938 6.90271 4.31418 7.05479 4.30862 7.17965C4.3027 7.31251 4.2699 7.55286 4.05186 7.71838C3.82617 7.88971 3.58044 7.84761 3.44758 7.80954C3.32818 7.77533 3.19096 7.71206 3.06768 7.65522C3.06001 7.65168 3.05238 7.64816 3.04482 7.64468L3.00033 7.62419L2.95583 7.64468C2.94827 7.64816 2.94065 7.65168 2.93297 7.65522C2.80969 7.71206 2.67247 7.77533 2.55307 7.80954C2.42022 7.84761 2.17449 7.88971 1.94879 7.71838C1.73075 7.55286 1.69795 7.31251 1.69203 7.17965C1.68647 7.05479 1.70127 6.90271 1.71506 6.76103C1.71586 6.75285 1.71665 6.7447 1.71744 6.73659L1.72469 6.66172L1.67909 6.60839C1.67379 6.6022 1.66846 6.59597 1.6631 6.5897C1.57256 6.48393 1.47398 6.36876 1.40741 6.26302C1.33371 6.14594 1.23047 5.9347 1.3099 5.67927C1.39092 5.41874 1.60107 5.30533 1.73294 5.25336C1.8488 5.2077 1.99569 5.17455 2.1275 5.1448C2.13567 5.14296 2.14378 5.14113 2.15182 5.13931L2.20463 5.12736L2.23504 5.07281C2.23906 5.0656 2.2431 5.05834 2.24717 5.05104C2.3154 4.92851 2.38955 4.79533 2.46523 4.69651ZM13.0003 5.62601C13.0329 5.68621 13.1023 5.80909 13.2163 5.89558C13.3387 5.98853 13.4857 6.01948 13.5468 6.03234C13.5529 6.03363 13.5581 6.03473 13.5624 6.0357L13.5753 6.03861L13.5548 6.0625C13.5517 6.06617 13.5479 6.07048 13.5436 6.07541C13.5007 6.12424 13.4049 6.23339 13.3607 6.37552C13.3171 6.51571 13.3329 6.65927 13.34 6.72486C13.3408 6.73155 13.3414 6.73742 13.3419 6.74241L13.3426 6.74936C13.2836 6.72116 13.15 6.65936 13.0003 6.65936C12.8507 6.65936 12.717 6.72116 12.6581 6.74936L12.6588 6.74241C12.6592 6.73743 12.6599 6.73155 12.6606 6.72486C12.6678 6.65927 12.6835 6.51571 12.6399 6.37552C12.5957 6.23339 12.4999 6.12424 12.4571 6.07541C12.4527 6.07048 12.449 6.06617 12.4458 6.0625L12.4254 6.03861L12.4383 6.0357C12.4425 6.03473 12.4478 6.03363 12.4539 6.03234C12.515 6.01948 12.6619 5.98853 12.7844 5.89558C12.8983 5.80909 12.9677 5.68621 13.0003 5.62601ZM12.6291 7.14522C12.6292 7.14622 12.6293 7.14671 12.6292 7.14664ZM12.4652 4.69651C12.5456 4.5915 12.7164 4.40625 13.0003 4.40625C13.2843 4.40625 13.455 4.5915 13.5354 4.69651C13.6111 4.79533 13.6853 4.92851 13.7535 5.05104C13.7575 5.05834 13.7616 5.0656 13.7656 5.07281L13.796 5.12736L13.8488 5.13931C13.8569 5.14113 13.865 5.14296 13.8732 5.14481C14.005 5.17455 14.1519 5.2077 14.2677 5.25336C14.3996 5.30533 14.6097 5.41874 14.6908 5.67927C14.7702 5.9347 14.6669 6.14594 14.5932 6.26302C14.5267 6.36877 14.4281 6.48394 14.3375 6.58971C14.3322 6.59597 14.3269 6.6022 14.3216 6.60839L14.276 6.66172L14.2832 6.73659C14.284 6.7447 14.2848 6.75285 14.2856 6.76103C14.2994 6.90271 14.3142 7.05479 14.3086 7.17965C14.3027 7.31251 14.2699 7.55286 14.0519 7.71838C13.8262 7.88971 13.5804 7.84761 13.4476 7.80954C13.3282 7.77533 13.191 7.71207 13.0677 7.65522C13.06 7.65168 13.0524 7.64817 13.0448 7.64468L13.0003 7.62419L12.9558 7.64468C12.9483 7.64816 12.9407 7.65167 12.933 7.65521C12.8097 7.71206 12.6725 7.77533 12.5531 7.80954C12.4202 7.84761 12.1745 7.88971 11.9488 7.71838C11.7308 7.55286 11.698 7.31251 11.692 7.17965C11.6865 7.05479 11.7013 6.90271 11.7151 6.76103C11.7159 6.75285 11.7167 6.7447 11.7174 6.73659L11.7247 6.66172L11.6791 6.60839C11.6738 6.6022 11.6685 6.59597 11.6631 6.5897C11.5726 6.48393 11.474 6.36876 11.4074 6.26302C11.3337 6.14594 11.2305 5.9347 11.3099 5.67927C11.3909 5.41874 11.6011 5.30533 11.7329 5.25336C11.8488 5.2077 11.9957 5.17455 12.1275 5.1448C12.1357 5.14296 12.1438 5.14113 12.1518 5.13931L12.2046 5.12736L12.235 5.07281C12.2391 5.0656 12.2431 5.05834 12.2472 5.05104C12.3154 4.92851 12.3896 4.79533 12.4652 4.69651ZM13.3714 7.14665C13.3714 7.1466 13.3714 7.14611 13.3716 7.14522ZM5.92777 9.5301C7.09391 9.30418 8.34224 9.35488 9.35236 9.95736C9.49425 10.042 9.62723 10.1474 9.74328 10.2778C9.97819 10.5416 10.0995 10.8696 10.1052 11.1984C10.2248 11.1213 10.3445 11.0356 10.4662 10.9437L11.5957 10.0905C12.161 9.66344 12.9827 9.66336 13.5481 10.0903C14.0706 10.4848 14.2789 11.1928 13.9049 11.7923C13.639 12.2184 13.2387 12.8078 12.8313 13.1851C12.4195 13.5665 11.8334 13.8872 11.39 14.1012C10.8516 14.3611 10.2701 14.5048 9.70457 14.5963C8.54883 14.7834 7.34622 14.7548 6.20345 14.5193C5.61944 14.399 5.01254 14.3365 4.41279 14.3365H3.00033C2.74144 14.3365 2.53158 14.1266 2.53158 13.8677C2.53158 13.6089 2.74144 13.399 3.00033 13.399H4.41279C5.0766 13.399 5.74688 13.4681 6.39262 13.6011C7.42515 13.8139 8.51289 13.8395 9.55477 13.6709C10.0728 13.587 10.5566 13.4625 10.9825 13.2569C11.4096 13.0508 11.8899 12.7792 12.1943 12.4973C12.5021 12.2122 12.8466 11.7174 13.1095 11.2961C13.1888 11.1689 13.1778 10.9854 12.9832 10.8385C12.7521 10.664 12.3918 10.664 12.1608 10.8386L11.0313 11.6918C10.5804 12.0324 10.0254 12.3968 9.33702 12.5066C9.26756 12.5177 9.19523 12.5278 9.12016 12.5367C9.08436 12.5432 9.04709 12.5475 9.00859 12.5489C8.65715 12.5839 8.25015 12.592 7.80111 12.5496C7.54338 12.5252 7.35417 12.2966 7.37851 12.0388C7.40284 11.7811 7.63151 11.5919 7.88925 11.6162C8.28139 11.6532 8.63322 11.6451 8.93171 11.6144C8.93777 11.6138 8.9438 11.6132 8.94981 11.6125C8.96228 11.6053 8.98132 11.5921 9.00631 11.5703C9.20598 11.396 9.22381 11.1042 9.04306 10.9011C8.99725 10.8497 8.94083 10.8035 8.87213 10.7625C8.1339 10.3222 7.14797 10.2486 6.10609 10.4505C5.07013 10.6512 4.04089 11.1135 3.27149 11.6592C3.06032 11.8089 2.76772 11.7592 2.61797 11.548C2.46821 11.3368 2.518 11.0442 2.72917 10.8945C3.60314 10.2747 4.7557 9.75717 5.92777 9.5301Z" fill="#FA8C16"/>
</svg>
