<svg width="28" height="20" viewBox="0 0 28 20" fill="none" xmlns="http://www.w3.org/2000/svg">
<g clip-path="url(#clip0_49972_19002)">
<mask id="mask0_49972_19002" style="mask-type:alpha" maskUnits="userSpaceOnUse" x="0" y="0" width="28" height="20">
<path d="M25.3333 0H2.66667C1.19391 0 0 1.19391 0 2.66667V17.3333C0 18.8061 1.19391 20 2.66667 20H25.3333C26.8061 20 28 18.8061 28 17.3333V2.66667C28 1.19391 26.8061 0 25.3333 0Z" fill="white"/>
</mask>
<g mask="url(#mask0_49972_19002)">
<path d="M25.3333 0H2.66667C1.19391 0 0 1.19391 0 2.66667V17.3333C0 18.8061 1.19391 20 2.66667 20H25.3333C26.8061 20 28 18.8061 28 17.3333V2.66667C28 1.19391 26.8061 0 25.3333 0Z" fill="#00421A"/>
<path fill-rule="evenodd" clip-rule="evenodd" d="M21.2987 7.96533C21.2107 8.76 20.96 9.33333 20.6667 9.33333C20.3733 9.33333 20.1227 8.76 20.0347 7.96533C19.24 7.87733 18.6667 7.62667 18.6667 7.33333C18.6667 7.04 19.24 6.78933 20.0347 6.70133C20.1227 5.90667 20.3733 5.33333 20.6667 5.33333C20.96 5.33333 21.2107 5.90667 21.2987 6.70133C22.0933 6.78933 22.6667 7.04 22.6667 7.33333C22.6667 7.62667 22.0933 7.87733 21.2987 7.96533ZM0 0H8V20H0V0Z" fill="white"/>
<path fill-rule="evenodd" clip-rule="evenodd" d="M23.96 9.29067C23.9867 9.524 24 9.76 24 10C24 13.3133 21.3133 16 18 16C14.6867 16 12 13.3133 12 10C12 6.68667 14.6867 4 18 4C18.24 4 18.476 4.01333 18.7093 4.04C16.4267 4.34667 14.6667 6.30267 14.6667 8.66667C14.6667 11.244 16.756 13.3333 19.3333 13.3333C21.6987 13.3333 23.6533 11.5733 23.96 9.29067Z" fill="white"/>
<path d="M25.3332 0.666504H2.6665C1.56193 0.666504 0.666504 1.56193 0.666504 2.6665V17.3332C0.666504 18.4377 1.56193 19.3332 2.6665 19.3332H25.3332C26.4377 19.3332 27.3332 18.4377 27.3332 17.3332V2.6665C27.3332 1.56193 26.4377 0.666504 25.3332 0.666504Z" stroke="black" stroke-opacity="0.1"/>
</g>
</g>
<defs>
<clipPath id="clip0_49972_19002">
<rect width="28" height="20" fill="white"/>
</clipPath>
</defs>
</svg>
