<svg width="49" height="49" viewBox="0 0 49 49" fill="none" xmlns="http://www.w3.org/2000/svg">
<g clip-path="url(#clip0_49972_19254)">
<path d="M38.6563 30.125C39.4439 30.125 40.0626 29.5062 40.0626 28.7188V26.9469L33.0313 11.8438L20.888 14.8796C21.4523 14.0032 21.7813 12.9615 21.7813 11.8438C21.7813 8.74147 19.2572 6.21875 16.1563 6.21875C13.0555 6.21875 10.5313 8.74147 10.5313 11.8438C10.5313 13.9482 11.6937 15.7849 13.4089 16.7494L10.5313 17.4688L0.78125 35.7781C1.34384 37.4093 2.89062 38.5625 4.71884 38.5625H30.2188C31.0064 38.5625 31.6251 37.9437 31.6251 37.1562C31.6251 33.275 34.7751 30.125 38.6563 30.125ZM43.4464 35.1774L40.7355 32.4775C40.223 31.8381 39.4005 31.5395 38.6563 31.5395C37.786 31.5395 36.9788 31.9664 36.6788 32.3649L33.8938 35.1513C32.7208 36.2597 32.7851 38.1168 33.8415 39.1092C34.3579 39.6556 35.0885 39.9688 35.8438 39.9688C35.8438 41.5452 37.0798 42.7812 38.6563 42.7812C40.2328 42.7812 41.4688 41.5452 41.4688 39.9688C42.2517 39.9688 42.9932 39.6447 43.4189 39.1613C44.5742 38.0695 44.5524 36.2222 43.4464 35.1774Z" fill="white"/>
<path d="M31.317 16.0274L40.0625 26.9469V6.21875C40.0625 3.88878 38.1737 2 35.8438 2H4.71875C2.38878 2 0.5 3.88878 0.5 6.21875V34.3438C0.5 34.85 0.584469 35.328 0.781156 35.7781L12.2458 21.6561C12.8085 20.9515 13.8795 20.951 14.4428 21.6552L18.4332 26.643C18.9961 27.3467 20.0664 27.3467 20.6293 26.643L29.1212 16.0281C29.684 15.3246 30.7539 15.3243 31.317 16.0274ZM16.1562 16.0625C13.8218 16.0625 11.9375 14.178 11.9375 11.8438C11.9375 9.50928 13.8218 7.625 16.1562 7.625C18.4907 7.625 20.375 9.50928 20.375 11.8438C20.375 14.178 18.4907 16.0625 16.1562 16.0625ZM38.6562 27.3125C33.2281 27.3125 28.8125 31.7281 28.8125 37.1562C28.8125 42.5844 33.2281 47 38.6562 47C44.0844 47 48.5 42.5844 48.5 37.1562C48.5 31.7281 44.0844 27.3125 38.6562 27.3125ZM42.453 38.1405C41.9472 38.703 40.9905 38.7032 40.4844 38.1405L40.0624 37.7468V39.9688C40.0624 40.7562 39.4437 41.375 38.6562 41.375C37.8686 41.375 37.2499 40.7562 37.2499 39.9688V37.7468L36.8279 38.1405C36.2936 38.703 35.3937 38.703 34.8593 38.1405C34.2968 37.6062 34.2968 36.7062 34.8593 36.1718L37.6718 33.3593C38.0903 32.836 39.1841 32.7886 39.6404 33.3593L42.4529 36.1718C43.0156 36.7062 43.0156 37.6062 42.453 38.1405Z" fill="url(#paint0_linear_49972_19254)"/>
</g>
<defs>
<linearGradient id="paint0_linear_49972_19254" x1="24.3248" y1="47" x2="25.6978" y2="2.03122" gradientUnits="userSpaceOnUse">
<stop stop-color="#87174F"/>
<stop offset="0.5" stop-color="#AB2856"/>
<stop offset="1" stop-color="#B73A4E"/>
</linearGradient>
<clipPath id="clip0_49972_19254">
<rect width="48" height="48" fill="white" transform="translate(0.5 0.5)"/>
</clipPath>
</defs>
</svg>
