<svg width="14" height="14" viewBox="0 0 14 14" fill="none" xmlns="http://www.w3.org/2000/svg">
<path opacity="0.12" d="M7.00033 9.33268C8.28899 9.33268 9.33366 8.28801 9.33366 6.99935C9.33366 5.71068 8.28899 4.66602 7.00033 4.66602C5.71166 4.66602 4.66699 5.71068 4.66699 6.99935C4.66699 8.28801 5.71166 9.33268 7.00033 9.33268Z" fill="white"/>
<path d="M12.8337 6.70768V8.51602C12.8337 9.8228 12.8337 10.4762 12.5793 10.9753C12.3556 11.4144 11.9987 11.7713 11.5596 11.995C11.0605 12.2493 10.4071 12.2493 9.10033 12.2493H4.90033C3.59354 12.2493 2.94014 12.2493 2.44101 11.995C2.00197 11.7713 1.64501 11.4144 1.42131 10.9753C1.16699 10.4762 1.16699 9.8228 1.16699 8.51602V5.48268C1.16699 4.17589 1.16699 3.5225 1.42131 3.02337C1.64501 2.58433 2.00197 2.22737 2.44101 2.00367C2.94014 1.74935 3.59354 1.74935 4.90033 1.74935H7.29199M11.0837 4.66602V1.16602M9.33366 2.91602H12.8337M9.33366 6.99935C9.33366 8.28801 8.28899 9.33268 7.00033 9.33268C5.71166 9.33268 4.66699 8.28801 4.66699 6.99935C4.66699 5.71068 5.71166 4.66602 7.00033 4.66602C8.28899 4.66602 9.33366 5.71068 9.33366 6.99935Z" stroke="white" stroke-linecap="round" stroke-linejoin="round"/>
</svg>
