<svg width="18" height="11" viewBox="0 0 18 11" fill="none" xmlns="http://www.w3.org/2000/svg">
<path fill-rule="evenodd" clip-rule="evenodd" d="M12.0569 0.833252C12.0569 0.488074 12.3367 0.208252 12.6819 0.208252H17.3337C17.6788 0.208252 17.9587 0.488074 17.9587 0.833252V5.45478C17.9587 5.79996 17.6788 6.07978 17.3337 6.07978C16.9885 6.07978 16.7087 5.79996 16.7087 5.45478V2.33563L11.5955 7.41766C11.2047 7.80612 10.8678 8.14095 10.5619 8.37301C10.234 8.62177 9.86967 8.80995 9.42117 8.8099C8.97267 8.80985 8.60838 8.62158 8.28052 8.37275C7.97468 8.14062 7.63793 7.80573 7.24723 7.41719L7.01868 7.18992C6.59022 6.76388 6.31243 6.48951 6.08112 6.31397C5.86426 6.14939 5.76288 6.13103 5.69574 6.13106C5.6286 6.13108 5.52723 6.14952 5.31049 6.31425C5.07931 6.48996 4.80172 6.76453 4.37356 7.19089L1.10801 10.4428C0.863418 10.6863 0.467691 10.6855 0.224125 10.4409C-0.0194405 10.1963 -0.018611 9.80062 0.225978 9.55705L3.5206 6.27621C3.91138 5.88703 4.24818 5.5516 4.55409 5.31908C4.88201 5.06984 5.24645 4.88122 5.69528 4.88106C6.14411 4.88089 6.50869 5.06925 6.83679 5.31825C7.14287 5.55054 7.47991 5.88572 7.87096 6.27461L8.09952 6.50188C8.52761 6.92755 8.80514 7.20166 9.03624 7.37706C9.25289 7.5415 9.35421 7.55989 9.42132 7.5599C9.48843 7.55991 9.58975 7.54153 9.80644 7.37715C10.0376 7.2018 10.3152 6.92776 10.7434 6.50218L15.8182 1.45825H12.6819C12.3367 1.45825 12.0569 1.17843 12.0569 0.833252Z" fill="#767C8C"/>
</svg>
