<svg width="375" height="338" viewBox="0 0 375 338" fill="none" xmlns="http://www.w3.org/2000/svg">
<path fill-rule="evenodd" clip-rule="evenodd" d="M756.444 704.88C753.341 704.88 750.825 707.396 750.825 710.499V758.42C750.825 758.74 750.566 759 750.246 759C749.926 759 749.666 758.741 749.666 758.42V710.499C749.666 707.396 747.151 704.88 744.048 704.88H709.527C706.424 704.88 703.908 707.396 703.908 710.499V757.083C703.908 757.403 703.649 757.663 703.329 757.663C703.009 757.663 702.749 757.403 702.749 757.083V710.499C702.749 707.396 700.234 704.88 697.131 704.88H662.611C659.508 704.88 656.992 707.396 656.992 710.499V757.083C656.992 757.403 656.733 757.663 656.413 757.663C656.093 757.663 655.833 757.403 655.833 757.083V710.499C655.833 707.396 653.318 704.88 650.215 704.88H615.694C612.591 704.88 610.075 707.396 610.075 710.499V757.083C610.075 757.403 609.816 757.663 609.496 757.663C609.176 757.663 608.916 757.403 608.916 757.083V710.499C608.916 707.396 606.401 704.88 603.298 704.88H568.778C565.675 704.88 563.159 707.396 563.159 710.499V757.083C563.159 757.403 562.9 757.663 562.58 757.663C562.26 757.663 562 757.403 562 757.083V710.499C562 707.396 559.485 704.88 556.382 704.88H521.861C518.758 704.88 516.242 707.396 516.242 710.499V757.083C516.242 757.403 515.983 757.663 515.663 757.663C515.343 757.663 515.083 757.403 515.083 757.083V710.499C515.083 707.396 512.568 704.88 509.465 704.88H474.945C471.842 704.88 469.327 707.396 469.327 710.499V757.083C469.327 757.403 469.067 757.663 468.747 757.663C468.427 757.663 468.167 757.403 468.167 757.083V710.499C468.167 707.396 465.652 704.88 462.549 704.88H428.028C424.925 704.88 422.41 707.396 422.41 710.499V757.083C422.41 757.403 422.15 757.663 421.83 757.663C421.51 757.663 421.25 757.403 421.25 757.083V710.499C421.25 707.396 418.735 704.88 415.632 704.88H381.112C378.009 704.88 375.494 707.396 375.494 710.499V757.083C375.494 757.403 375.234 757.663 374.914 757.663C374.594 757.663 374.334 757.403 374.334 757.083V710.499C374.334 707.396 371.819 704.88 368.716 704.88H334.195C331.092 704.88 328.577 707.396 328.577 710.499V757.083C328.577 757.403 328.317 757.663 327.997 757.663C327.677 757.663 327.417 757.403 327.417 757.083V710.499C327.417 707.396 324.902 704.88 321.799 704.88H287.279C284.176 704.88 281.661 707.396 281.661 710.499V757.083C281.661 757.403 281.401 757.663 281.081 757.663C280.761 757.663 280.502 757.403 280.502 757.083V710.499C280.502 707.396 277.986 704.88 274.883 704.88H240.362C237.259 704.88 234.744 707.396 234.744 710.499V757.083C234.744 757.403 234.484 757.663 234.164 757.663C233.844 757.663 233.585 757.403 233.585 757.083V710.499C233.585 707.396 231.069 704.88 227.966 704.88H193.446C190.343 704.88 187.828 707.396 187.828 710.499V757.083C187.828 757.403 187.568 757.663 187.248 757.663C186.928 757.663 186.669 757.403 186.669 757.083V710.499C186.669 707.396 184.153 704.88 181.05 704.88H146.529C143.426 704.88 140.911 707.396 140.911 710.499V757.083C140.911 757.403 140.651 757.663 140.331 757.663C140.011 757.663 139.752 757.403 139.752 757.083V710.499C139.752 707.396 137.236 704.88 134.133 704.88H99.6135C96.5105 704.88 93.9951 707.396 93.9951 710.499V757.083C93.9951 757.403 93.7355 757.663 93.4154 757.663C93.0953 757.663 92.8358 757.403 92.8358 757.083V710.499C92.8358 707.396 90.3204 704.88 87.2175 704.88H52.6964C49.5935 704.88 47.0781 707.396 47.0781 710.499V757.083C47.0781 757.403 46.8185 757.663 46.4984 757.663C46.1783 757.663 45.9188 757.403 45.9188 757.083V710.499C45.9188 707.396 43.4033 704.88 40.3004 704.88H5.78058C2.67761 704.88 0.162231 707.396 0.162231 710.499V757.083C0.162231 757.403 -0.09729 757.663 -0.417419 757.663C-0.737488 757.663 -0.997009 757.403 -0.997009 757.083V710.499C-0.997009 707.396 -3.51245 704.88 -6.61542 704.88H-41.1365C-44.2394 704.88 -46.7549 707.396 -46.7549 710.499V757.083C-46.7549 757.403 -47.0144 757.663 -47.3345 757.663C-47.6546 757.663 -47.9141 757.403 -47.9141 757.083V710.499C-47.9141 707.396 -50.4296 704.88 -53.5325 704.88H-88.0512C-91.1541 704.88 -93.6696 707.396 -93.6696 710.499V757.083C-93.6696 757.403 -93.9291 757.663 -94.2492 757.663C-94.5693 757.663 -94.8288 757.403 -94.8288 757.083V710.499C-94.8288 707.396 -97.3442 704.88 -100.447 704.88H-134.968C-138.071 704.88 -140.587 707.396 -140.587 710.499V757.083C-140.587 757.403 -140.846 757.663 -141.166 757.663C-141.486 757.663 -141.746 757.403 -141.746 757.083V710.499C-141.746 707.396 -144.261 704.88 -147.364 704.88H-181.884C-184.987 704.88 -187.503 707.396 -187.503 710.499V757.083C-187.503 757.403 -187.762 757.663 -188.082 757.663C-188.402 757.663 -188.662 757.403 -188.662 757.083V710.499C-188.662 707.396 -191.177 704.88 -194.28 704.88H-228.8C-231.903 704.88 -234.418 707.396 -234.418 710.499V757.083C-234.418 757.403 -234.678 757.663 -234.998 757.663C-235.318 757.663 -235.578 757.403 -235.578 757.083V710.499C-235.578 707.396 -238.093 704.88 -241.196 704.88H-275.717C-278.82 704.88 -281.335 707.396 -281.335 710.499V757.083C-281.335 757.403 -281.595 757.663 -281.915 757.663C-282.235 757.663 -282.495 757.403 -282.495 757.083V710.499C-282.495 707.396 -285.01 704.88 -288.113 704.88H-322.633C-325.736 704.88 -328.251 707.396 -328.251 710.499V757.083C-328.251 757.403 -328.511 757.663 -328.831 757.663C-329.151 757.663 -329.41 757.403 -329.41 757.083V710.499C-329.41 707.396 -331.926 704.88 -335.029 704.88H-369.55C-372.653 704.88 -375.168 707.396 -375.168 710.499V757.083C-375.168 757.403 -375.428 757.663 -375.748 757.663C-376.068 757.663 -376.328 757.403 -376.328 757.083V710.499C-376.328 707.396 -378.843 704.88 -381.946 704.88H-416.469C-419.572 704.88 -422.088 707.396 -422.088 710.499V757.083C-422.088 757.403 -422.347 757.663 -422.667 757.663C-422.987 757.663 -423.247 757.403 -423.247 757.083V710.499C-423.247 707.396 -425.762 704.88 -428.865 704.88H-468.331C-468.701 704.88 -469 704.581 -469 704.212C-469 703.843 -468.701 703.543 -468.331 703.543H-428.864C-425.761 703.543 -423.246 701.028 -423.246 697.925V656.381C-423.246 653.278 -425.761 650.762 -428.864 650.762H-468.331C-468.701 650.762 -469 650.463 -469 650.094C-469 649.724 -468.701 649.425 -468.331 649.425H-428.864C-425.761 649.425 -423.246 646.91 -423.246 643.807V602.262C-423.246 599.16 -425.761 596.644 -428.864 596.644H-468.331C-468.701 596.644 -469 596.345 -469 595.975C-469 595.606 -468.701 595.307 -468.331 595.307H-428.864C-425.761 595.307 -423.246 592.791 -423.246 589.688V548.143C-423.246 545.04 -425.761 542.525 -428.864 542.525H-468.331C-468.701 542.525 -469 542.225 -469 541.856C-469 541.487 -468.701 541.187 -468.331 541.187H-428.864C-425.761 541.187 -423.246 538.672 -423.246 535.569V494.025C-423.246 490.922 -425.761 488.406 -428.864 488.406H-468.331C-468.701 488.406 -469 488.107 -469 487.738C-469 487.368 -468.701 487.069 -468.331 487.069H-428.864C-425.761 487.069 -423.246 484.554 -423.246 481.451V439.905C-423.246 436.802 -425.761 434.287 -428.864 434.287H-468.331C-468.701 434.287 -469 433.987 -469 433.618C-469 433.249 -468.701 432.95 -468.331 432.95H-428.864C-425.761 432.95 -423.246 430.434 -423.246 427.331V385.787C-423.246 382.684 -425.761 380.169 -428.864 380.169H-468.331C-468.701 380.169 -469 379.869 -469 379.5C-469 379.131 -468.701 378.831 -468.331 378.831H-428.864C-425.761 378.831 -423.246 376.316 -423.246 373.213V331.667C-423.246 328.565 -425.761 326.049 -428.864 326.049H-468.331C-468.701 326.049 -469 325.75 -469 325.38C-469 325.011 -468.701 324.712 -468.331 324.712H-428.864C-425.761 324.712 -423.246 322.196 -423.246 319.093V277.549C-423.246 274.446 -425.761 271.931 -428.864 271.931H-468.331C-468.701 271.931 -469 271.632 -469 271.262C-469 270.893 -468.701 270.594 -468.331 270.594H-428.864C-425.761 270.594 -423.246 268.078 -423.246 264.975V223.43C-423.246 220.327 -425.761 217.811 -428.864 217.811H-468.331C-468.701 217.811 -469 217.512 -469 217.143C-469 216.773 -468.701 216.474 -468.331 216.474H-428.864C-425.761 216.474 -423.246 213.959 -423.246 210.856V169.312C-423.246 166.209 -425.761 163.693 -428.864 163.693H-468.331C-468.701 163.693 -469 163.394 -469 163.025C-469 162.655 -468.701 162.356 -468.331 162.356H-428.864C-425.761 162.356 -423.246 159.841 -423.246 156.738V115.193C-423.246 112.09 -425.761 109.575 -428.864 109.575H-468.331C-468.701 109.575 -469 109.276 -469 108.906C-469 108.537 -468.701 108.238 -468.331 108.238H-428.864C-425.761 108.238 -423.246 105.722 -423.246 102.619V61.0738C-423.246 57.9708 -425.761 55.4554 -428.864 55.4554H-468.331C-468.701 55.4554 -469 55.1561 -469 54.7868C-469 54.4175 -468.701 54.1182 -468.331 54.1182H-428.864C-425.761 54.1182 -423.246 51.6027 -423.246 48.4998V0.579651C-423.246 0.259521 -422.986 0 -422.666 0C-422.346 0 -422.086 0.259521 -422.086 0.579651V48.4998C-422.086 51.6027 -419.571 54.1182 -416.468 54.1182H-381.945C-378.842 54.1182 -376.326 51.6027 -376.326 48.4998V0.57959C-376.326 0.25946 -376.067 0 -375.747 0C-375.427 0 -375.167 0.25946 -375.167 0.57959V48.4998C-375.167 51.6027 -372.652 54.1182 -369.549 54.1182H-335.028C-331.925 54.1182 -329.409 51.6027 -329.409 48.4998V0.579651C-329.409 0.259521 -329.15 0 -328.83 0C-328.51 0 -328.25 0.259521 -328.25 0.579651V48.4998C-328.25 51.6027 -325.735 54.1182 -322.632 54.1182H-288.112C-285.009 54.1182 -282.493 51.6027 -282.493 48.4998V0.57959C-282.493 0.25946 -282.234 0 -281.914 0C-281.594 0 -281.334 0.25946 -281.334 0.57959V48.4998C-281.334 51.6027 -278.819 54.1182 -275.716 54.1182H-241.195C-238.092 54.1182 -235.576 51.6027 -235.576 48.4998V0.57959C-235.576 0.25946 -235.317 0 -234.997 0C-234.677 0 -234.417 0.25946 -234.417 0.57959V48.4998C-234.417 51.6027 -231.902 54.1182 -228.799 54.1182H-194.279C-191.176 54.1182 -188.661 51.6027 -188.661 48.4998V0.57959C-188.661 0.25946 -188.401 0 -188.081 0C-187.761 0 -187.501 0.25946 -187.501 0.57959V48.4998C-187.501 51.6027 -184.986 54.1182 -181.883 54.1182H-147.363C-144.26 54.1182 -141.745 51.6027 -141.745 48.4998V0.57959C-141.745 0.25946 -141.485 0 -141.165 0C-140.845 0 -140.585 0.25946 -140.585 0.57959V48.4998C-140.585 51.6027 -138.07 54.1182 -134.967 54.1182H-100.446C-97.3431 54.1182 -94.8276 51.6027 -94.8276 48.4998V0.57959C-94.8276 0.25946 -94.5681 0 -94.248 0C-93.9279 0 -93.6684 0.25946 -93.6684 0.57959V48.4998C-93.6684 51.6027 -91.153 54.1182 -88.05 54.1182H-53.5313C-50.4284 54.1182 -47.913 51.6027 -47.913 48.4998V0.57959C-47.913 0.25946 -47.6534 0 -47.3333 0C-47.0132 0 -46.7537 0.25946 -46.7537 0.57959V48.4998C-46.7537 51.6027 -44.2383 54.1182 -41.1354 54.1182H-6.61432C-3.51141 54.1182 -0.995972 51.6027 -0.995972 48.4998V0.57959C-0.995972 0.25946 -0.73645 0 -0.416321 0C-0.0961914 0 0.16333 0.25946 0.16333 0.57959V48.4998C0.16333 51.6027 2.67877 54.1182 5.78168 54.1182H40.3015C43.4045 54.1182 45.9199 51.6027 45.9199 48.4998V0.57959C45.9199 0.25946 46.1794 0 46.4995 0C46.8196 0 47.0791 0.25946 47.0791 0.57959V48.4998C47.0791 51.6027 49.5945 54.1182 52.6975 54.1182H87.2186C90.3215 54.1182 92.8369 51.6027 92.8369 48.4998V0.57959C92.8369 0.25946 93.0964 0 93.4166 0C93.7366 0 93.9962 0.25946 93.9962 0.57959V48.4998C93.9962 51.6027 96.5116 54.1182 99.6146 54.1182H134.134C137.237 54.1182 139.753 51.6027 139.753 48.4998V0.57959C139.753 0.25946 140.012 0 140.332 0C140.653 0 140.912 0.25946 140.912 0.57959V48.4998C140.912 51.6027 143.427 54.1182 146.53 54.1182H181.051C184.154 54.1182 186.67 51.6027 186.67 48.4998V0.57959C186.67 0.25946 186.929 0 187.249 0C187.57 0 187.829 0.25946 187.829 0.57959V48.4998C187.829 51.6027 190.344 54.1182 193.447 54.1182H227.967C231.07 54.1182 233.586 51.6027 233.586 48.4998V0.57959C233.586 0.25946 233.845 0 234.165 0C234.485 0 234.745 0.25946 234.745 0.57959V48.4998C234.745 51.6027 237.26 54.1182 240.363 54.1182H274.884C277.987 54.1182 280.503 51.6027 280.503 48.4998V0.57959C280.503 0.25946 280.762 0 281.082 0C281.402 0 281.662 0.25946 281.662 0.57959V48.4998C281.662 51.6027 284.177 54.1182 287.28 54.1182L321.8 54.1182C324.903 54.1182 327.419 51.6027 327.419 48.4998V0.57959C327.419 0.25946 327.678 0 327.998 0C328.318 0 328.578 0.25946 328.578 0.57959V48.4998C328.578 51.6027 331.093 54.1182 334.196 54.1182H368.717C371.82 54.1182 374.336 51.6027 374.336 48.4998V0.57959C374.336 0.25946 374.595 0 374.915 0C375.235 0 375.495 0.25946 375.495 0.57959V48.4998C375.495 51.6027 378.01 54.1182 381.113 54.1182H415.633C418.736 54.1182 421.251 51.6027 421.251 48.4998V0.57959C421.251 0.25946 421.511 0 421.831 0C422.151 0 422.411 0.25946 422.411 0.57959V48.4998C422.411 51.6027 424.926 54.1182 428.029 54.1182H462.55C465.653 54.1182 468.169 51.6027 468.169 48.4998V0.57959C468.169 0.25946 468.428 0 468.748 0C469.068 0 469.328 0.25946 469.328 0.57959V48.4998C469.328 51.6027 471.843 54.1182 474.946 54.1182H509.466C512.569 54.1182 515.084 51.6027 515.084 48.4998V0.57959C515.084 0.25946 515.344 0 515.664 0C515.984 0 516.244 0.25946 516.244 0.57959V48.4998C516.244 51.6027 518.759 54.1182 521.862 54.1182H556.383C559.486 54.1182 562.001 51.6027 562.001 48.4998V0.57959C562.001 0.25946 562.261 0 562.581 0C562.901 0 563.161 0.25946 563.161 0.57959V48.4998C563.161 51.6027 565.676 54.1182 568.779 54.1182H603.299C606.402 54.1182 608.917 51.6027 608.917 48.4998V0.57959C608.917 0.25946 609.177 0 609.497 0C609.817 0 610.077 0.25946 610.077 0.57959V48.4998C610.077 51.6027 612.592 54.1182 615.695 54.1182H650.216C653.319 54.1182 655.834 51.6027 655.834 48.4998V0.57959C655.834 0.25946 656.094 0 656.414 0C656.734 0 656.994 0.25946 656.994 0.57959V48.4998C656.994 51.6027 659.509 54.1182 662.612 54.1182H697.132C700.235 54.1182 702.75 51.6027 702.75 48.4998V0.57959C702.75 0.25946 703.01 0 703.33 0C703.65 0 703.909 0.25946 703.909 0.57959V48.4998C703.909 51.6027 706.425 54.1182 709.528 54.1182H744.048C747.151 54.1182 749.666 51.6027 749.666 48.4998V1.91681C749.666 1.59668 749.926 1.33716 750.246 1.33716C750.566 1.33716 750.825 1.59668 750.825 1.91681V48.4998C750.825 51.6027 753.341 54.1182 756.444 54.1182H775.331C775.701 54.1182 776 54.4175 776 54.7868C776 55.1561 775.701 55.4554 775.331 55.4554H756.444C753.341 55.4554 750.825 57.9708 750.825 61.0738V102.619C750.825 105.722 753.341 108.238 756.444 108.238H775.331C775.701 108.238 776 108.537 776 108.906C776 109.276 775.701 109.575 775.331 109.575H756.444C753.341 109.575 750.825 112.09 750.825 115.193V156.738C750.825 159.841 753.341 162.356 756.444 162.356H775.331C775.701 162.356 776 162.655 776 163.025C776 163.394 775.701 163.693 775.331 163.693H756.444C753.341 163.693 750.825 166.209 750.825 169.312V210.856C750.825 213.959 753.341 216.474 756.444 216.474H775.331C775.701 216.474 776 216.773 776 217.143C776 217.512 775.701 217.811 775.331 217.811H756.444C753.341 217.811 750.825 220.327 750.825 223.43V264.975C750.825 268.078 753.341 270.594 756.444 270.594H775.331C775.701 270.594 776 270.893 776 271.262C776 271.632 775.701 271.931 775.331 271.931H756.444C753.341 271.931 750.825 274.446 750.825 277.549L750.825 319.093C750.825 322.196 753.341 324.712 756.444 324.712H775.331C775.701 324.712 776 325.011 776 325.38C776 325.75 775.701 326.049 775.331 326.049H756.444C753.341 326.049 750.825 328.565 750.825 331.667V373.213C750.825 376.316 753.341 378.831 756.444 378.831H775.331C775.701 378.831 776 379.131 776 379.5C776 379.869 775.701 380.169 775.331 380.169H756.444C753.341 380.169 750.825 382.684 750.825 385.787V427.331C750.825 430.434 753.341 432.95 756.444 432.95H775.331C775.701 432.95 776 433.249 776 433.618C776 433.987 775.701 434.287 775.331 434.287H756.444C753.341 434.287 750.825 436.802 750.825 439.905V481.451C750.825 484.554 753.341 487.069 756.444 487.069H775.331C775.701 487.069 776 487.368 776 487.738C776 488.107 775.701 488.406 775.331 488.406H756.444C753.341 488.406 750.825 490.922 750.825 494.025V535.569C750.825 538.672 753.341 541.187 756.444 541.187H775.331C775.701 541.187 776 541.487 776 541.856C776 542.225 775.701 542.525 775.331 542.525H756.444C753.341 542.525 750.825 545.04 750.825 548.143V589.688C750.825 592.791 753.341 595.307 756.444 595.307H775.331C775.701 595.307 776 595.606 776 595.975C776 596.345 775.701 596.644 775.331 596.644H756.444C753.341 596.644 750.825 599.16 750.825 602.262V643.807C750.825 646.91 753.341 649.425 756.444 649.425H775.331C775.701 649.425 776 649.724 776 650.094C776 650.463 775.701 650.762 775.331 650.762H756.444C753.341 650.762 750.825 653.278 750.825 656.381V697.925C750.825 701.028 753.341 703.543 756.444 703.543H775.331C775.701 703.543 776 703.843 776 704.212C776 704.581 775.701 704.88 775.331 704.88H756.444ZM749.666 697.925C749.666 701.028 747.151 703.543 744.048 703.543H709.527C706.424 703.543 703.908 701.028 703.908 697.925V656.381C703.908 653.278 706.424 650.762 709.527 650.762H744.048C747.151 650.762 749.666 653.278 749.666 656.381V697.925ZM749.666 643.807C749.666 646.91 747.151 649.425 744.048 649.425H709.527C706.424 649.425 703.908 646.91 703.908 643.807V602.262C703.908 599.16 706.424 596.644 709.527 596.644H744.048C747.151 596.644 749.666 599.16 749.666 602.262V643.807ZM749.666 589.688C749.666 592.791 747.151 595.307 744.048 595.307H709.527C706.424 595.307 703.908 592.791 703.908 589.688V548.143C703.908 545.04 706.424 542.525 709.527 542.525H744.048C747.151 542.525 749.666 545.04 749.666 548.143V589.688ZM749.666 535.569C749.666 538.672 747.151 541.187 744.048 541.187H709.527C706.424 541.187 703.908 538.672 703.908 535.569V494.025C703.908 490.922 706.424 488.406 709.527 488.406H744.048C747.151 488.406 749.666 490.922 749.666 494.025V535.569ZM749.666 481.451C749.666 484.554 747.151 487.069 744.048 487.069H709.527C706.424 487.069 703.908 484.554 703.908 481.451V439.905C703.908 436.802 706.424 434.287 709.527 434.287H744.048C747.151 434.287 749.666 436.802 749.666 439.905V481.451ZM749.666 427.331C749.666 430.434 747.151 432.95 744.048 432.95H709.527C706.424 432.95 703.908 430.434 703.908 427.331V385.787C703.908 382.684 706.424 380.169 709.527 380.169H744.048C747.151 380.169 749.666 382.684 749.666 385.787V427.331ZM749.666 373.213C749.666 376.316 747.151 378.831 744.048 378.831H709.527C706.424 378.831 703.908 376.316 703.908 373.213V331.667C703.908 328.565 706.424 326.049 709.527 326.049H744.048C747.151 326.049 749.666 328.565 749.666 331.667V373.213ZM749.666 319.093C749.666 322.196 747.151 324.712 744.048 324.712H709.527C706.424 324.712 703.908 322.196 703.908 319.093V277.549C703.908 274.446 706.424 271.931 709.527 271.931H744.048C747.151 271.931 749.666 274.446 749.666 277.549L749.666 319.093ZM749.666 264.975C749.666 268.078 747.151 270.594 744.048 270.594H709.527C706.424 270.594 703.908 268.078 703.908 264.975L703.908 223.43C703.908 220.327 706.424 217.811 709.527 217.811H744.048C747.151 217.811 749.666 220.327 749.666 223.43V264.975ZM749.666 210.856C749.666 213.959 747.151 216.474 744.048 216.474H709.527C706.424 216.474 703.908 213.959 703.908 210.856V169.312C703.908 166.209 706.424 163.693 709.527 163.693H744.048C747.151 163.693 749.666 166.209 749.666 169.312V210.856ZM749.666 156.738C749.666 159.841 747.151 162.356 744.048 162.356H709.527C706.424 162.356 703.908 159.841 703.908 156.738V115.193C703.908 112.09 706.424 109.575 709.527 109.575H744.048C747.151 109.575 749.666 112.09 749.666 115.193V156.738ZM749.666 102.619C749.666 105.722 747.151 108.238 744.048 108.238H709.527C706.424 108.238 703.908 105.722 703.908 102.619V61.0738C703.908 57.9708 706.424 55.4554 709.527 55.4554H744.048C747.151 55.4554 749.666 57.9708 749.666 61.0738V102.619ZM656.994 697.925C656.994 701.028 659.509 703.543 662.612 703.543H697.132C700.235 703.543 702.75 701.028 702.75 697.925V656.381C702.75 653.278 700.235 650.762 697.132 650.762H662.612C659.509 650.762 656.994 653.278 656.994 656.381V697.925ZM656.994 643.807C656.994 646.91 659.509 649.425 662.612 649.425H697.132C700.235 649.425 702.75 646.91 702.75 643.807V602.262C702.75 599.16 700.235 596.644 697.132 596.644H662.612C659.509 596.644 656.994 599.16 656.994 602.262V643.807ZM656.994 589.688C656.994 592.791 659.509 595.307 662.612 595.307H697.132C700.235 595.307 702.75 592.791 702.75 589.688V548.143C702.75 545.04 700.235 542.525 697.132 542.525H662.612C659.509 542.525 656.994 545.04 656.994 548.143V589.688ZM656.994 535.569C656.994 538.672 659.509 541.187 662.612 541.187H697.132C700.235 541.187 702.75 538.672 702.75 535.569V494.025C702.75 490.922 700.235 488.406 697.132 488.406H662.612C659.509 488.406 656.994 490.922 656.994 494.025V535.569ZM656.994 481.451C656.994 484.554 659.509 487.069 662.612 487.069H697.132C700.235 487.069 702.75 484.554 702.75 481.451V439.905C702.75 436.802 700.235 434.287 697.132 434.287H662.612C659.509 434.287 656.994 436.802 656.994 439.905V481.451ZM656.994 427.331C656.994 430.434 659.509 432.95 662.612 432.95H697.132C700.235 432.95 702.75 430.434 702.75 427.331V385.787C702.75 382.684 700.235 380.169 697.132 380.169H662.612C659.509 380.169 656.994 382.684 656.994 385.787V427.331ZM656.994 373.213C656.994 376.316 659.509 378.831 662.612 378.831H697.132C700.235 378.831 702.75 376.316 702.75 373.213V331.667C702.75 328.565 700.235 326.049 697.132 326.049H662.612C659.509 326.049 656.994 328.565 656.994 331.667V373.213ZM656.994 319.093C656.994 322.196 659.509 324.712 662.612 324.712H697.132C700.235 324.712 702.75 322.196 702.75 319.093V277.549C702.75 274.446 700.235 271.931 697.132 271.931H662.612C659.509 271.931 656.994 274.446 656.994 277.549V319.093ZM656.994 264.975C656.994 268.078 659.509 270.594 662.612 270.594H697.132C700.235 270.594 702.75 268.078 702.75 264.975L702.75 223.43C702.75 220.327 700.235 217.811 697.132 217.811H662.612C659.509 217.811 656.994 220.327 656.994 223.43L656.994 264.975ZM656.994 210.856C656.994 213.959 659.509 216.474 662.612 216.474H697.132C700.235 216.474 702.75 213.959 702.75 210.856V169.312C702.75 166.209 700.235 163.693 697.132 163.693H662.612C659.509 163.693 656.994 166.209 656.994 169.312V210.856ZM656.994 156.738C656.994 159.841 659.509 162.356 662.612 162.356H697.132C700.235 162.356 702.75 159.841 702.75 156.738V115.193C702.75 112.09 700.235 109.575 697.132 109.575H662.612C659.509 109.575 656.994 112.09 656.994 115.193V156.738ZM656.994 102.619C656.994 105.722 659.509 108.238 662.612 108.238H697.132C700.235 108.238 702.75 105.722 702.75 102.619V61.0738C702.75 57.9708 700.235 55.4554 697.132 55.4554H662.612C659.509 55.4554 656.994 57.9708 656.994 61.0738V102.619ZM650.216 55.4554C653.319 55.4554 655.834 57.9708 655.834 61.0738V102.619C655.834 105.722 653.319 108.238 650.216 108.238H615.695C612.592 108.238 610.077 105.722 610.077 102.619V61.0738C610.077 57.9708 612.592 55.4554 615.695 55.4554H650.216ZM650.216 109.575C653.319 109.575 655.834 112.09 655.834 115.193V156.738C655.834 159.841 653.319 162.356 650.216 162.356H615.695C612.592 162.356 610.077 159.841 610.077 156.738V115.193C610.077 112.09 612.592 109.575 615.695 109.575H650.216ZM650.216 163.693C653.319 163.693 655.834 166.209 655.834 169.312V210.856C655.834 213.959 653.319 216.474 650.216 216.474H615.695C612.592 216.474 610.077 213.959 610.077 210.856L610.077 169.312C610.077 166.209 612.592 163.693 615.695 163.693H650.216ZM650.216 217.811C653.319 217.811 655.834 220.327 655.834 223.43L655.834 264.975C655.834 268.078 653.319 270.594 650.216 270.594H615.695C612.592 270.594 610.077 268.078 610.077 264.975V223.43C610.077 220.327 612.592 217.811 615.695 217.811H650.216ZM650.216 271.931C653.319 271.931 655.834 274.446 655.834 277.549V319.093C655.834 322.196 653.319 324.712 650.216 324.712H615.695C612.592 324.712 610.077 322.196 610.077 319.093V277.549C610.077 274.446 612.592 271.931 615.695 271.931H650.216ZM650.216 326.049C653.319 326.049 655.834 328.565 655.834 331.667V373.213C655.834 376.316 653.319 378.831 650.216 378.831H615.695C612.592 378.831 610.077 376.316 610.077 373.213V331.667C610.077 328.565 612.592 326.049 615.695 326.049H650.216ZM650.216 380.169C653.319 380.169 655.834 382.684 655.834 385.787V427.331C655.834 430.434 653.319 432.95 650.216 432.95H615.695C612.592 432.95 610.077 430.434 610.077 427.331V385.787C610.077 382.684 612.592 380.169 615.695 380.169H650.216ZM650.216 434.287C653.319 434.287 655.834 436.802 655.834 439.905V481.451C655.834 484.554 653.319 487.069 650.216 487.069H615.695C612.592 487.069 610.077 484.554 610.077 481.451V439.905C610.077 436.802 612.592 434.287 615.695 434.287H650.216ZM650.216 488.406C653.319 488.406 655.834 490.922 655.834 494.025V535.569C655.834 538.672 653.319 541.187 650.216 541.187H615.695C612.592 541.187 610.077 538.672 610.077 535.569V494.025C610.077 490.922 612.592 488.406 615.695 488.406H650.216ZM650.216 542.525C653.319 542.525 655.834 545.04 655.834 548.143V589.688C655.834 592.791 653.319 595.307 650.216 595.307H615.695C612.592 595.307 610.077 592.791 610.077 589.688V548.143C610.077 545.04 612.592 542.525 615.695 542.525H650.216ZM650.216 596.644C653.319 596.644 655.834 599.16 655.834 602.262V643.807C655.834 646.91 653.319 649.425 650.216 649.425H615.695C612.592 649.425 610.077 646.91 610.077 643.807V602.262C610.077 599.16 612.592 596.644 615.695 596.644H650.216ZM650.216 650.762C653.319 650.762 655.834 653.278 655.834 656.381V697.925C655.834 701.028 653.319 703.543 650.216 703.543H615.695C612.592 703.543 610.077 701.028 610.077 697.925V656.381C610.077 653.278 612.592 650.762 615.695 650.762H650.216ZM563.161 697.925C563.161 701.028 565.676 703.543 568.779 703.543H603.299C606.402 703.543 608.917 701.028 608.917 697.925V656.381C608.917 653.278 606.402 650.762 603.299 650.762H568.779C565.676 650.762 563.161 653.278 563.161 656.381V697.925ZM563.161 643.807C563.161 646.91 565.676 649.425 568.779 649.425H603.299C606.402 649.425 608.917 646.91 608.917 643.807V602.262C608.917 599.16 606.402 596.644 603.299 596.644H568.779C565.676 596.644 563.161 599.16 563.161 602.262V643.807ZM563.161 589.688C563.161 592.791 565.676 595.307 568.779 595.307H603.299C606.402 595.307 608.917 592.791 608.917 589.688V548.143C608.917 545.04 606.402 542.525 603.299 542.525H568.779C565.676 542.525 563.161 545.04 563.161 548.143V589.688ZM563.161 535.569C563.161 538.672 565.676 541.187 568.779 541.187H603.299C606.402 541.187 608.917 538.672 608.917 535.569V494.025C608.917 490.922 606.402 488.406 603.299 488.406H568.779C565.676 488.406 563.161 490.922 563.161 494.025V535.569ZM563.161 481.451C563.161 484.554 565.676 487.069 568.779 487.069H603.299C606.402 487.069 608.917 484.554 608.917 481.451V439.905C608.917 436.802 606.402 434.287 603.299 434.287H568.779C565.676 434.287 563.161 436.802 563.161 439.905V481.451ZM563.161 427.331C563.161 430.434 565.676 432.95 568.779 432.95H603.299C606.402 432.95 608.917 430.434 608.917 427.331V385.787C608.917 382.684 606.402 380.169 603.299 380.169H568.779C565.676 380.169 563.161 382.684 563.161 385.787V427.331ZM563.161 373.213C563.161 376.316 565.676 378.831 568.779 378.831H603.299C606.402 378.831 608.917 376.316 608.917 373.213V331.667C608.917 328.565 606.402 326.049 603.299 326.049H568.779C565.676 326.049 563.161 328.565 563.161 331.667V373.213ZM563.161 319.093C563.161 322.196 565.676 324.712 568.779 324.712H603.299C606.402 324.712 608.917 322.196 608.917 319.093V277.549C608.917 274.446 606.402 271.931 603.299 271.931H568.779C565.676 271.931 563.161 274.446 563.161 277.549V319.093ZM563.161 264.975C563.161 268.078 565.676 270.594 568.779 270.594H603.299C606.402 270.594 608.917 268.078 608.917 264.975V223.43C608.917 220.327 606.402 217.811 603.299 217.811H568.779C565.676 217.811 563.161 220.327 563.161 223.43V264.975ZM563.161 210.856C563.161 213.959 565.676 216.474 568.779 216.474H603.299C606.402 216.474 608.917 213.959 608.917 210.856L608.917 169.312C608.917 166.209 606.402 163.693 603.299 163.693H568.779C565.676 163.693 563.161 166.209 563.161 169.312L563.161 210.856ZM563.161 156.738C563.161 159.841 565.676 162.356 568.779 162.356H603.299C606.402 162.356 608.917 159.841 608.917 156.738V115.193C608.917 112.09 606.402 109.575 603.299 109.575H568.779C565.676 109.575 563.161 112.09 563.161 115.193V156.738ZM563.161 102.619C563.161 105.722 565.676 108.238 568.779 108.238H603.299C606.402 108.238 608.917 105.722 608.917 102.619V61.0738C608.917 57.9708 606.402 55.4554 603.299 55.4554H568.779C565.676 55.4554 563.161 57.9708 563.161 61.0738V102.619ZM556.383 55.4554C559.486 55.4554 562.001 57.9708 562.001 61.0738V102.619C562.001 105.722 559.486 108.238 556.383 108.238H521.862C518.759 108.238 516.244 105.722 516.244 102.619L516.244 61.0738C516.244 57.9708 518.759 55.4554 521.862 55.4554H556.383ZM556.383 109.575C559.486 109.575 562.001 112.09 562.001 115.193V156.738C562.001 159.841 559.486 162.356 556.383 162.356H521.862C518.759 162.356 516.244 159.841 516.244 156.738V115.193C516.244 112.09 518.759 109.575 521.862 109.575H556.383ZM556.383 163.693C559.486 163.693 562.001 166.209 562.001 169.312L562.001 210.856C562.001 213.959 559.486 216.474 556.383 216.474H521.862C518.759 216.474 516.244 213.959 516.244 210.856V169.312C516.244 166.209 518.759 163.693 521.862 163.693H556.383ZM556.383 217.811C559.486 217.811 562.001 220.327 562.001 223.43V264.975C562.001 268.078 559.486 270.594 556.383 270.594L521.862 270.594C518.759 270.594 516.244 268.078 516.244 264.975V223.43C516.244 220.327 518.759 217.811 521.862 217.811H556.383ZM556.383 271.931C559.486 271.931 562.001 274.446 562.001 277.549V319.093C562.001 322.196 559.486 324.712 556.383 324.712L521.862 324.712C518.759 324.712 516.244 322.196 516.244 319.093V277.549C516.244 274.446 518.759 271.931 521.862 271.931L556.383 271.931ZM556.383 326.049C559.486 326.049 562.001 328.565 562.001 331.667V373.213C562.001 376.316 559.486 378.831 556.383 378.831L521.862 378.831C518.759 378.831 516.244 376.316 516.244 373.213V331.667C516.244 328.565 518.759 326.049 521.862 326.049L556.383 326.049ZM556.383 380.169C559.486 380.169 562.001 382.684 562.001 385.787V427.331C562.001 430.434 559.486 432.95 556.383 432.95L521.862 432.95C518.759 432.95 516.244 430.434 516.244 427.331V385.787C516.244 382.684 518.759 380.169 521.862 380.169L556.383 380.169ZM556.383 434.287C559.486 434.287 562.001 436.802 562.001 439.905V481.451C562.001 484.554 559.486 487.069 556.383 487.069L521.862 487.069C518.759 487.069 516.244 484.554 516.244 481.451V439.905C516.244 436.802 518.759 434.287 521.862 434.287L556.383 434.287ZM556.383 488.406C559.486 488.406 562.001 490.922 562.001 494.025V535.569C562.001 538.672 559.486 541.187 556.383 541.187H521.862C518.759 541.187 516.244 538.672 516.244 535.569V494.025C516.244 490.922 518.759 488.406 521.862 488.406L556.383 488.406ZM556.383 542.525C559.486 542.525 562.001 545.04 562.001 548.143V589.688C562.001 592.791 559.486 595.307 556.383 595.307H521.862C518.759 595.307 516.244 592.791 516.244 589.688V548.143C516.244 545.04 518.759 542.525 521.862 542.525H556.383ZM556.383 596.644C559.486 596.644 562.001 599.16 562.001 602.262V643.807C562.001 646.91 559.486 649.425 556.383 649.425H521.862C518.759 649.425 516.244 646.91 516.244 643.807V602.262C516.244 599.16 518.759 596.644 521.862 596.644H556.383ZM556.383 650.762C559.486 650.762 562.001 653.278 562.001 656.381V697.925C562.001 701.028 559.486 703.543 556.383 703.543H521.862C518.759 703.543 516.244 701.028 516.244 697.925V656.381C516.244 653.278 518.759 650.762 521.862 650.762H556.383ZM469.328 697.925C469.328 701.028 471.843 703.543 474.946 703.543H509.466C512.569 703.543 515.084 701.028 515.084 697.925V656.381C515.084 653.278 512.569 650.762 509.466 650.762H474.946C471.843 650.762 469.328 653.278 469.328 656.381V697.925ZM469.328 643.807C469.328 646.91 471.843 649.425 474.946 649.425H509.466C512.569 649.425 515.084 646.91 515.084 643.807V602.262C515.084 599.16 512.569 596.644 509.466 596.644H474.946C471.843 596.644 469.328 599.16 469.328 602.262V643.807ZM469.328 589.688C469.328 592.791 471.843 595.307 474.946 595.307H509.466C512.569 595.307 515.084 592.791 515.084 589.688V548.143C515.084 545.04 512.569 542.525 509.466 542.525H474.946C471.843 542.525 469.328 545.04 469.328 548.143V589.688ZM469.328 535.569C469.328 538.672 471.843 541.187 474.946 541.187H509.466C512.569 541.187 515.084 538.672 515.084 535.569V494.025C515.084 490.922 512.569 488.406 509.466 488.406H474.946C471.843 488.406 469.328 490.922 469.328 494.025L469.328 535.569ZM469.328 481.451C469.328 484.554 471.843 487.069 474.946 487.069H509.466C512.569 487.069 515.084 484.554 515.084 481.451V439.905C515.084 436.802 512.569 434.287 509.466 434.287H474.946C471.843 434.287 469.328 436.802 469.328 439.905V481.451ZM469.328 427.331C469.328 430.434 471.843 432.95 474.946 432.95H509.466C512.569 432.95 515.084 430.434 515.084 427.331V385.787C515.084 382.684 512.569 380.169 509.466 380.169H474.946C471.843 380.169 469.328 382.684 469.328 385.787V427.331ZM469.328 373.213C469.328 376.316 471.843 378.831 474.946 378.831H509.466C512.569 378.831 515.084 376.316 515.084 373.213V331.667C515.084 328.565 512.569 326.049 509.466 326.049H474.946C471.843 326.049 469.328 328.565 469.328 331.667V373.213ZM469.328 319.093C469.328 322.196 471.843 324.712 474.946 324.712H509.466C512.569 324.712 515.084 322.196 515.084 319.093V277.549C515.084 274.446 512.569 271.931 509.466 271.931H474.946C471.843 271.931 469.328 274.446 469.328 277.549V319.093ZM469.328 264.975C469.328 268.078 471.843 270.594 474.946 270.594H509.466C512.569 270.594 515.084 268.078 515.084 264.975V223.43C515.084 220.327 512.569 217.811 509.466 217.811H474.946C471.843 217.811 469.328 220.327 469.328 223.43V264.975ZM469.328 210.856C469.328 213.959 471.843 216.474 474.946 216.474H509.466C512.569 216.474 515.084 213.959 515.084 210.856V169.312C515.084 166.209 512.569 163.693 509.466 163.693H474.946C471.843 163.693 469.328 166.209 469.328 169.312V210.856ZM469.328 156.738C469.328 159.841 471.843 162.356 474.946 162.356H509.466C512.569 162.356 515.084 159.841 515.084 156.738V115.193C515.084 112.09 512.569 109.575 509.466 109.575H474.946C471.843 109.575 469.328 112.09 469.328 115.193V156.738ZM469.328 102.619C469.328 105.722 471.843 108.238 474.946 108.238H509.466C512.569 108.238 515.084 105.722 515.084 102.619L515.084 61.0738C515.084 57.9708 512.569 55.4554 509.466 55.4554H474.946C471.843 55.4554 469.328 57.9708 469.328 61.0738L469.328 102.619ZM462.55 55.4554C465.653 55.4554 468.169 57.9708 468.169 61.0738L468.169 102.619C468.169 105.722 465.653 108.238 462.55 108.238H428.029C424.926 108.238 422.411 105.722 422.411 102.619L422.411 61.0738C422.411 57.9708 424.926 55.4554 428.029 55.4554H462.55ZM462.55 109.575C465.653 109.575 468.169 112.09 468.169 115.193V156.738C468.169 159.841 465.653 162.356 462.55 162.356H428.029C424.926 162.356 422.411 159.841 422.411 156.738V115.193C422.411 112.09 424.926 109.575 428.029 109.575H462.55ZM462.55 163.693C465.653 163.693 468.169 166.209 468.169 169.312V210.856C468.169 213.959 465.653 216.474 462.55 216.474H428.029C424.926 216.474 422.411 213.959 422.411 210.856V169.312C422.411 166.209 424.926 163.693 428.029 163.693H462.55ZM462.55 217.811C465.653 217.811 468.169 220.327 468.169 223.43V264.975C468.169 268.078 465.653 270.594 462.55 270.594H428.029C424.926 270.594 422.411 268.078 422.411 264.975V223.43C422.411 220.327 424.926 217.811 428.029 217.811H462.55ZM462.55 271.931C465.653 271.931 468.169 274.446 468.169 277.549V319.093C468.169 322.196 465.653 324.712 462.55 324.712H428.029C424.926 324.712 422.411 322.196 422.411 319.093V277.549C422.411 274.446 424.926 271.931 428.029 271.931H462.55ZM462.55 326.049C465.653 326.049 468.169 328.565 468.169 331.667V373.213C468.169 376.316 465.653 378.831 462.55 378.831H428.029C424.926 378.831 422.411 376.316 422.411 373.213V331.667C422.411 328.565 424.926 326.049 428.029 326.049H462.55ZM462.55 380.169C465.653 380.169 468.169 382.684 468.169 385.787V427.331C468.169 430.434 465.653 432.95 462.55 432.95H428.029C424.926 432.95 422.411 430.434 422.411 427.331V385.787C422.411 382.684 424.926 380.169 428.029 380.169H462.55ZM462.55 434.287C465.653 434.287 468.169 436.802 468.169 439.905V481.451C468.169 484.554 465.653 487.069 462.55 487.069H428.029C424.926 487.069 422.411 484.554 422.411 481.451V439.905C422.411 436.802 424.926 434.287 428.029 434.287H462.55ZM462.55 488.406C465.653 488.406 468.169 490.922 468.169 494.025L468.169 535.569C468.169 538.672 465.653 541.187 462.55 541.187H428.029C424.926 541.187 422.411 538.672 422.411 535.569L422.411 494.025C422.411 490.922 424.926 488.406 428.029 488.406H462.55ZM462.55 542.525C465.653 542.525 468.169 545.04 468.169 548.143V589.688C468.169 592.791 465.653 595.307 462.55 595.307H428.029C424.926 595.307 422.411 592.791 422.411 589.688V548.143C422.411 545.04 424.926 542.525 428.029 542.525H462.55ZM462.55 596.644C465.653 596.644 468.169 599.16 468.169 602.262V643.807C468.169 646.91 465.653 649.425 462.55 649.425H428.029C424.926 649.425 422.411 646.91 422.411 643.807V602.262C422.411 599.16 424.926 596.644 428.029 596.644H462.55ZM462.55 650.762C465.653 650.762 468.169 653.278 468.169 656.381V697.925C468.169 701.028 465.653 703.543 462.55 703.543H428.029C424.926 703.543 422.411 701.028 422.411 697.925V656.381C422.411 653.278 424.926 650.762 428.029 650.762H462.55ZM375.495 697.925C375.495 701.028 378.01 703.543 381.113 703.543H415.633C418.736 703.543 421.251 701.028 421.251 697.925V656.381C421.251 653.278 418.736 650.762 415.633 650.762H381.113C378.01 650.762 375.495 653.278 375.495 656.381V697.925ZM375.495 643.807C375.495 646.91 378.01 649.425 381.113 649.425H415.633C418.736 649.425 421.251 646.91 421.251 643.807V602.262C421.251 599.16 418.736 596.644 415.633 596.644H381.113C378.01 596.644 375.495 599.16 375.495 602.262V643.807ZM375.495 589.688C375.495 592.791 378.01 595.307 381.113 595.307H415.633C418.736 595.307 421.251 592.791 421.251 589.688V548.143C421.251 545.04 418.736 542.525 415.633 542.525H381.113C378.01 542.525 375.495 545.04 375.495 548.143V589.688ZM375.495 535.569C375.495 538.672 378.01 541.187 381.113 541.187H415.633C418.736 541.187 421.251 538.672 421.251 535.569L421.251 494.025C421.251 490.922 418.736 488.406 415.633 488.406H381.113C378.01 488.406 375.495 490.922 375.495 494.025L375.495 535.569ZM375.495 481.451C375.495 484.554 378.01 487.069 381.113 487.069H415.633C418.736 487.069 421.251 484.554 421.251 481.451V439.905C421.251 436.802 418.736 434.287 415.633 434.287H381.113C378.01 434.287 375.495 436.802 375.495 439.905V481.451ZM375.495 427.331C375.495 430.434 378.01 432.95 381.113 432.95H415.633C418.736 432.95 421.251 430.434 421.251 427.331V385.787C421.251 382.684 418.736 380.169 415.633 380.169H381.113C378.01 380.169 375.495 382.684 375.495 385.787V427.331ZM375.495 373.213C375.495 376.316 378.01 378.831 381.113 378.831H415.633C418.736 378.831 421.251 376.316 421.251 373.213V331.667C421.251 328.565 418.736 326.049 415.633 326.049H381.113C378.01 326.049 375.495 328.565 375.495 331.667V373.213ZM375.495 319.093C375.495 322.196 378.01 324.712 381.113 324.712H415.633C418.736 324.712 421.251 322.196 421.251 319.093V277.549C421.251 274.446 418.736 271.931 415.633 271.931H381.113C378.01 271.931 375.495 274.446 375.495 277.549V319.093ZM375.495 264.975C375.495 268.078 378.01 270.594 381.113 270.594H415.633C418.736 270.594 421.251 268.078 421.251 264.975V223.43C421.251 220.327 418.736 217.811 415.633 217.811H381.113C378.01 217.811 375.495 220.327 375.495 223.43V264.975ZM375.495 210.856C375.495 213.959 378.01 216.474 381.113 216.474H415.633C418.736 216.474 421.251 213.959 421.251 210.856V169.312C421.251 166.209 418.736 163.693 415.633 163.693H381.113C378.01 163.693 375.495 166.209 375.495 169.312V210.856ZM375.495 156.738C375.495 159.841 378.01 162.356 381.113 162.356H415.633C418.736 162.356 421.251 159.841 421.251 156.738V115.193C421.251 112.09 418.736 109.575 415.633 109.575H381.113C378.01 109.575 375.495 112.09 375.495 115.193V156.738ZM375.495 102.619C375.495 105.722 378.01 108.238 381.113 108.238H415.633C418.736 108.238 421.251 105.722 421.251 102.619L421.251 61.0738C421.251 57.9708 418.736 55.4554 415.633 55.4554H381.113C378.01 55.4554 375.495 57.9708 375.495 61.0738L375.495 102.619ZM368.717 55.4554C371.82 55.4554 374.336 57.9708 374.336 61.0738L374.336 102.619C374.336 105.722 371.82 108.238 368.717 108.238H334.196C331.093 108.238 328.578 105.722 328.578 102.619L328.578 61.0738C328.578 57.9708 331.093 55.4554 334.196 55.4554H368.717ZM368.717 109.575C371.82 109.575 374.336 112.09 374.336 115.193V156.738C374.336 159.841 371.82 162.356 368.717 162.356H334.196C331.093 162.356 328.578 159.841 328.578 156.738V115.193C328.578 112.09 331.093 109.575 334.196 109.575H368.717ZM368.717 163.693C371.82 163.693 374.336 166.209 374.336 169.312V210.856C374.336 213.959 371.82 216.474 368.717 216.474H334.196C331.093 216.474 328.578 213.959 328.578 210.856V169.312C328.578 166.209 331.093 163.693 334.196 163.693H368.717ZM368.717 217.811C371.82 217.811 374.336 220.327 374.336 223.43V264.975C374.336 268.078 371.82 270.594 368.717 270.594H334.196C331.093 270.594 328.578 268.078 328.578 264.975V223.43C328.578 220.327 331.093 217.811 334.196 217.811H368.717ZM368.717 271.931C371.82 271.931 374.336 274.446 374.336 277.549V319.093C374.336 322.196 371.82 324.712 368.717 324.712H334.196C331.093 324.712 328.578 322.196 328.578 319.093V277.549C328.578 274.446 331.093 271.931 334.196 271.931H368.717ZM368.717 326.049C371.82 326.049 374.336 328.565 374.336 331.667V373.213C374.336 376.316 371.82 378.831 368.717 378.831H334.196C331.093 378.831 328.578 376.316 328.578 373.213V331.667C328.578 328.565 331.093 326.049 334.196 326.049H368.717ZM368.717 380.169C371.82 380.169 374.336 382.684 374.336 385.787V427.331C374.336 430.434 371.82 432.95 368.717 432.95H334.196C331.093 432.95 328.578 430.434 328.578 427.331V385.787C328.578 382.684 331.093 380.169 334.196 380.169H368.717ZM368.717 434.287C371.82 434.287 374.336 436.802 374.336 439.905V481.451C374.336 484.554 371.82 487.069 368.717 487.069H334.196C331.093 487.069 328.578 484.554 328.578 481.451V439.905C328.578 436.802 331.093 434.287 334.196 434.287H368.717ZM368.717 488.406C371.82 488.406 374.336 490.922 374.336 494.025L374.336 535.569C374.336 538.672 371.82 541.187 368.717 541.187H334.196C331.093 541.187 328.578 538.672 328.578 535.569L328.578 494.025C328.578 490.922 331.093 488.406 334.196 488.406H368.717ZM368.717 542.525C371.82 542.525 374.336 545.04 374.336 548.143V589.688C374.336 592.791 371.82 595.307 368.717 595.307H334.196C331.093 595.307 328.578 592.791 328.578 589.688V548.143C328.578 545.04 331.093 542.525 334.196 542.525H368.717ZM368.717 596.644C371.82 596.644 374.336 599.16 374.336 602.262V643.807C374.336 646.91 371.82 649.425 368.717 649.425H334.196C331.093 649.425 328.578 646.91 328.578 643.807V602.262C328.578 599.16 331.093 596.644 334.196 596.644H368.717ZM368.717 650.762C371.82 650.762 374.336 653.278 374.336 656.381V697.925C374.336 701.028 371.82 703.543 368.717 703.543H334.196C331.093 703.543 328.578 701.028 328.578 697.925V656.381C328.578 653.278 331.093 650.762 334.196 650.762H368.717ZM281.662 697.925C281.662 701.028 284.177 703.543 287.28 703.543H321.8C324.903 703.543 327.419 701.028 327.419 697.925V656.381C327.419 653.278 324.903 650.762 321.8 650.762H287.28C284.177 650.762 281.662 653.278 281.662 656.381V697.925ZM281.662 643.807C281.662 646.91 284.177 649.425 287.28 649.425H321.8C324.903 649.425 327.419 646.91 327.419 643.807V602.262C327.419 599.16 324.903 596.644 321.8 596.644H287.28C284.177 596.644 281.662 599.16 281.662 602.262V643.807ZM281.662 589.688C281.662 592.791 284.177 595.307 287.28 595.307H321.8C324.903 595.307 327.419 592.791 327.419 589.688V548.143C327.419 545.04 324.903 542.525 321.8 542.525H287.28C284.177 542.525 281.662 545.04 281.662 548.143V589.688ZM281.662 535.569C281.662 538.672 284.177 541.187 287.28 541.187H321.8C324.903 541.187 327.419 538.672 327.419 535.569L327.419 494.025C327.419 490.922 324.903 488.406 321.8 488.406H287.28C284.177 488.406 281.662 490.922 281.662 494.025L281.662 535.569ZM281.662 481.451C281.662 484.554 284.177 487.069 287.28 487.069H321.8C324.903 487.069 327.419 484.554 327.419 481.451V439.905C327.419 436.802 324.903 434.287 321.8 434.287H287.28C284.177 434.287 281.662 436.802 281.662 439.905V481.451ZM281.662 427.331C281.662 430.434 284.177 432.95 287.28 432.95H321.8C324.903 432.95 327.419 430.434 327.419 427.331V385.787C327.419 382.684 324.903 380.169 321.8 380.169H287.28C284.177 380.169 281.662 382.684 281.662 385.787V427.331ZM281.662 373.213C281.662 376.316 284.177 378.831 287.28 378.831H321.8C324.903 378.831 327.419 376.316 327.419 373.213V331.667C327.419 328.565 324.903 326.049 321.8 326.049H287.28C284.177 326.049 281.662 328.565 281.662 331.667V373.213ZM281.662 319.093C281.662 322.196 284.177 324.712 287.28 324.712H321.8C324.903 324.712 327.419 322.196 327.419 319.093V277.549C327.419 274.446 324.903 271.931 321.8 271.931H287.28C284.177 271.931 281.662 274.446 281.662 277.549V319.093ZM281.662 264.975C281.662 268.078 284.177 270.594 287.28 270.594H321.8C324.903 270.594 327.419 268.078 327.419 264.975V223.43C327.419 220.327 324.903 217.811 321.8 217.811L287.28 217.811C284.177 217.811 281.662 220.327 281.662 223.43V264.975ZM281.662 210.856C281.662 213.959 284.177 216.474 287.28 216.474L321.8 216.474C324.903 216.474 327.419 213.959 327.419 210.856V169.312C327.419 166.209 324.903 163.693 321.8 163.693L287.28 163.693C284.177 163.693 281.662 166.209 281.662 169.312V210.856ZM281.662 156.738C281.662 159.841 284.177 162.356 287.28 162.356L321.8 162.356C324.903 162.356 327.419 159.841 327.419 156.738V115.193C327.419 112.09 324.903 109.575 321.8 109.575L287.28 109.575C284.177 109.575 281.662 112.09 281.662 115.193V156.738ZM281.662 102.619C281.662 105.722 284.177 108.238 287.28 108.238L321.8 108.238C324.903 108.238 327.419 105.722 327.419 102.619L327.419 61.0738C327.419 57.9708 324.903 55.4554 321.8 55.4554L287.28 55.4554C284.177 55.4554 281.662 57.9708 281.662 61.0738L281.662 102.619ZM274.884 55.4554C277.987 55.4554 280.503 57.9708 280.503 61.0738L280.503 102.619C280.503 105.722 277.987 108.238 274.884 108.238H240.363C237.26 108.238 234.745 105.722 234.745 102.619V61.0738C234.745 57.9708 237.26 55.4554 240.363 55.4554H274.884ZM274.884 109.575C277.987 109.575 280.503 112.09 280.503 115.193V156.738C280.503 159.841 277.987 162.356 274.884 162.356H240.363C237.26 162.356 234.745 159.841 234.745 156.738V115.193C234.745 112.09 237.26 109.575 240.363 109.575H274.884ZM274.884 163.693C277.987 163.693 280.503 166.209 280.503 169.312V210.856C280.503 213.959 277.987 216.474 274.884 216.474H240.363C237.26 216.474 234.745 213.959 234.745 210.856V169.312C234.745 166.209 237.26 163.693 240.363 163.693H274.884ZM274.884 217.811C277.987 217.811 280.503 220.327 280.503 223.43V264.975C280.503 268.078 277.987 270.594 274.884 270.594H240.363C237.26 270.594 234.745 268.078 234.745 264.975V223.43C234.745 220.327 237.26 217.811 240.363 217.811H274.884ZM274.884 271.931C277.987 271.931 280.503 274.446 280.503 277.549V319.093C280.503 322.196 277.987 324.712 274.884 324.712H240.363C237.26 324.712 234.745 322.196 234.745 319.093L234.745 277.549C234.745 274.446 237.26 271.931 240.363 271.931H274.884ZM274.884 326.049C277.987 326.049 280.503 328.565 280.503 331.667V373.213C280.503 376.316 277.987 378.831 274.884 378.831H240.363C237.26 378.831 234.745 376.316 234.745 373.213V331.667C234.745 328.565 237.26 326.049 240.363 326.049H274.884ZM274.884 380.169C277.987 380.169 280.503 382.684 280.503 385.787V427.331C280.503 430.434 277.987 432.95 274.884 432.95H240.363C237.26 432.95 234.745 430.434 234.745 427.331V385.787C234.745 382.684 237.26 380.169 240.363 380.169H274.884ZM274.884 434.287C277.987 434.287 280.503 436.802 280.503 439.905V481.451C280.503 484.554 277.987 487.069 274.884 487.069H240.363C237.26 487.069 234.745 484.554 234.745 481.451V439.905C234.745 436.802 237.26 434.287 240.363 434.287H274.884ZM274.884 488.406C277.987 488.406 280.503 490.922 280.503 494.025L280.503 535.569C280.503 538.672 277.987 541.187 274.884 541.187H240.363C237.26 541.187 234.745 538.672 234.745 535.569V494.025C234.745 490.922 237.26 488.406 240.363 488.406H274.884ZM274.884 542.525C277.987 542.525 280.503 545.04 280.503 548.143V589.688C280.503 592.791 277.987 595.307 274.884 595.307H240.363C237.26 595.307 234.745 592.791 234.745 589.688V548.143C234.745 545.04 237.26 542.525 240.363 542.525H274.884ZM274.884 596.644C277.987 596.644 280.503 599.16 280.503 602.262V643.807C280.503 646.91 277.987 649.425 274.884 649.425L240.363 649.425C237.26 649.425 234.745 646.91 234.745 643.807V602.262C234.745 599.16 237.26 596.644 240.363 596.644H274.884ZM274.884 650.762C277.987 650.762 280.503 653.278 280.503 656.381V697.925C280.503 701.028 277.987 703.543 274.884 703.543H240.363C237.26 703.543 234.745 701.028 234.745 697.925V656.381C234.745 653.278 237.26 650.762 240.363 650.762L274.884 650.762ZM187.829 697.925C187.829 701.028 190.344 703.543 193.447 703.543H227.967C231.07 703.543 233.586 701.028 233.586 697.925V656.381C233.586 653.278 231.07 650.762 227.967 650.762H193.447C190.344 650.762 187.829 653.278 187.829 656.381V697.925ZM187.829 643.807C187.829 646.91 190.344 649.425 193.447 649.425H227.967C231.07 649.425 233.586 646.91 233.586 643.807V602.262C233.586 599.16 231.07 596.644 227.967 596.644L193.447 596.644C190.344 596.644 187.829 599.16 187.829 602.262V643.807ZM187.829 589.688C187.829 592.791 190.344 595.307 193.447 595.307L227.967 595.307C231.07 595.307 233.586 592.791 233.586 589.688V548.143C233.586 545.04 231.07 542.525 227.967 542.525L193.447 542.525C190.344 542.525 187.829 545.04 187.829 548.143V589.688ZM187.829 535.569C187.829 538.672 190.344 541.187 193.447 541.187L227.967 541.187C231.07 541.187 233.586 538.672 233.586 535.569V494.025C233.586 490.922 231.07 488.406 227.967 488.406H193.447C190.344 488.406 187.829 490.922 187.829 494.025V535.569ZM187.829 481.451C187.829 484.554 190.344 487.069 193.447 487.069H227.967C231.07 487.069 233.586 484.554 233.586 481.451V439.905C233.586 436.802 231.07 434.287 227.967 434.287H193.447C190.344 434.287 187.829 436.802 187.829 439.905V481.451ZM187.829 427.331C187.829 430.434 190.344 432.95 193.447 432.95H227.967C231.07 432.95 233.586 430.434 233.586 427.331V385.787C233.586 382.684 231.07 380.169 227.967 380.169H193.447C190.344 380.169 187.829 382.684 187.829 385.787V427.331ZM187.829 373.213C187.829 376.316 190.344 378.831 193.447 378.831H227.967C231.07 378.831 233.586 376.316 233.586 373.213V331.667C233.586 328.565 231.07 326.049 227.967 326.049H193.447C190.344 326.049 187.829 328.565 187.829 331.667V373.213ZM187.829 319.093C187.829 322.196 190.344 324.712 193.447 324.712H227.967C231.07 324.712 233.586 322.196 233.586 319.093L233.586 277.549C233.586 274.446 231.07 271.931 227.967 271.931H193.447C190.344 271.931 187.829 274.446 187.829 277.549L187.829 319.093ZM187.829 264.975C187.829 268.078 190.344 270.594 193.447 270.594H227.967C231.07 270.594 233.586 268.078 233.586 264.975V223.43C233.586 220.327 231.07 217.811 227.967 217.811H193.447C190.344 217.811 187.829 220.327 187.829 223.43V264.975ZM187.829 210.856C187.829 213.959 190.344 216.474 193.447 216.474H227.967C231.07 216.474 233.586 213.959 233.586 210.856V169.312C233.586 166.209 231.07 163.693 227.967 163.693H193.447C190.344 163.693 187.829 166.209 187.829 169.312V210.856ZM187.829 156.738C187.829 159.841 190.344 162.356 193.447 162.356H227.967C231.07 162.356 233.586 159.841 233.586 156.738V115.193C233.586 112.09 231.07 109.575 227.967 109.575H193.447C190.344 109.575 187.829 112.09 187.829 115.193V156.738ZM187.829 102.619C187.829 105.722 190.344 108.238 193.447 108.238H227.967C231.07 108.238 233.586 105.722 233.586 102.619V61.0738C233.586 57.9708 231.07 55.4554 227.967 55.4554H193.447C190.344 55.4554 187.829 57.9708 187.829 61.0738V102.619ZM181.051 55.4554C184.154 55.4554 186.67 57.9708 186.67 61.0738V102.619C186.67 105.722 184.154 108.238 181.051 108.238H146.53C143.427 108.238 140.912 105.722 140.912 102.619V61.0738C140.912 57.9708 143.427 55.4554 146.53 55.4554H181.051ZM181.051 109.575C184.154 109.575 186.67 112.09 186.67 115.193V156.738C186.67 159.841 184.154 162.356 181.051 162.356H146.53C143.427 162.356 140.912 159.841 140.912 156.738V115.193C140.912 112.09 143.427 109.575 146.53 109.575H181.051ZM181.051 163.693C184.154 163.693 186.67 166.209 186.67 169.312V210.856C186.67 213.959 184.154 216.474 181.051 216.474H146.53C143.427 216.474 140.912 213.959 140.912 210.856V169.312C140.912 166.209 143.427 163.693 146.53 163.693H181.051ZM181.051 217.811C184.154 217.811 186.67 220.327 186.67 223.43V264.975C186.67 268.078 184.154 270.594 181.051 270.594H146.53C143.427 270.594 140.912 268.078 140.912 264.975V223.43C140.912 220.327 143.427 217.811 146.53 217.811H181.051ZM181.051 271.931C184.154 271.931 186.67 274.446 186.67 277.549L186.67 319.093C186.67 322.196 184.154 324.712 181.051 324.712H146.53C143.427 324.712 140.912 322.196 140.912 319.093L140.912 277.549C140.912 274.446 143.427 271.931 146.53 271.931H181.051ZM181.051 326.049C184.154 326.049 186.67 328.565 186.67 331.667V373.213C186.67 376.316 184.154 378.831 181.051 378.831H146.53C143.427 378.831 140.912 376.316 140.912 373.213V331.667C140.912 328.565 143.427 326.049 146.53 326.049H181.051ZM181.051 380.169C184.154 380.169 186.67 382.684 186.67 385.787V427.331C186.67 430.434 184.154 432.95 181.051 432.95H146.53C143.427 432.95 140.912 430.434 140.912 427.331V385.787C140.912 382.684 143.427 380.169 146.53 380.169H181.051ZM181.051 434.287C184.154 434.287 186.67 436.802 186.67 439.905V481.451C186.67 484.554 184.154 487.069 181.051 487.069H146.53C143.427 487.069 140.912 484.554 140.912 481.451V439.905C140.912 436.802 143.427 434.287 146.53 434.287H181.051ZM181.051 488.406C184.154 488.406 186.67 490.922 186.67 494.025V535.569C186.67 538.672 184.154 541.187 181.051 541.187H146.53C143.427 541.187 140.912 538.672 140.912 535.569V494.025C140.912 490.922 143.427 488.406 146.53 488.406H181.051ZM181.051 542.525C184.154 542.525 186.67 545.04 186.67 548.143V589.688C186.67 592.791 184.154 595.307 181.051 595.307H146.53C143.427 595.307 140.912 592.791 140.912 589.688V548.143C140.912 545.04 143.427 542.525 146.53 542.525H181.051ZM181.051 596.644C184.154 596.644 186.67 599.16 186.67 602.262V643.807C186.67 646.91 184.154 649.425 181.051 649.425H146.53C143.427 649.425 140.912 646.91 140.912 643.807V602.262C140.912 599.16 143.427 596.644 146.53 596.644H181.051ZM181.051 650.762C184.154 650.762 186.67 653.278 186.67 656.381V697.925C186.67 701.028 184.154 703.543 181.051 703.543H146.53C143.427 703.543 140.912 701.028 140.912 697.925V656.381C140.912 653.278 143.427 650.762 146.53 650.762H181.051ZM93.9962 697.925C93.9962 701.028 96.5116 703.543 99.6146 703.543H134.134C137.237 703.543 139.753 701.028 139.753 697.925V656.381C139.753 653.278 137.237 650.762 134.134 650.762H99.6146C96.5116 650.762 93.9962 653.278 93.9962 656.381V697.925ZM93.9962 643.807C93.9962 646.91 96.5116 649.425 99.6146 649.425H134.134C137.237 649.425 139.753 646.91 139.753 643.807V602.262C139.753 599.16 137.237 596.644 134.134 596.644H99.6146C96.5116 596.644 93.9962 599.16 93.9962 602.262V643.807ZM93.9962 589.688C93.9962 592.791 96.5116 595.307 99.6146 595.307H134.134C137.237 595.307 139.753 592.791 139.753 589.688V548.143C139.753 545.04 137.237 542.525 134.134 542.525H99.6146C96.5116 542.525 93.9962 545.04 93.9962 548.143V589.688ZM93.9962 535.569C93.9962 538.672 96.5116 541.187 99.6146 541.187H134.134C137.237 541.187 139.753 538.672 139.753 535.569V494.025C139.753 490.922 137.237 488.406 134.134 488.406H99.6146C96.5116 488.406 93.9962 490.922 93.9962 494.025V535.569ZM93.9962 481.451C93.9962 484.554 96.5116 487.069 99.6146 487.069H134.134C137.237 487.069 139.753 484.554 139.753 481.451V439.905C139.753 436.802 137.237 434.287 134.134 434.287H99.6146C96.5116 434.287 93.9962 436.802 93.9962 439.905V481.451ZM93.9962 427.331C93.9962 430.434 96.5116 432.95 99.6146 432.95H134.134C137.237 432.95 139.753 430.434 139.753 427.331V385.787C139.753 382.684 137.237 380.169 134.134 380.169H99.6146C96.5116 380.169 93.9962 382.684 93.9962 385.787V427.331ZM93.9962 373.213C93.9962 376.316 96.5116 378.831 99.6146 378.831H134.134C137.237 378.831 139.753 376.316 139.753 373.213V331.667C139.753 328.565 137.237 326.049 134.134 326.049H99.6146C96.5116 326.049 93.9962 328.565 93.9962 331.667V373.213ZM93.9962 319.093C93.9962 322.196 96.5116 324.712 99.6146 324.712H134.134C137.237 324.712 139.753 322.196 139.753 319.093L139.753 277.549C139.753 274.446 137.237 271.931 134.134 271.931H99.6146C96.5116 271.931 93.9962 274.446 93.9962 277.549L93.9962 319.093ZM93.9962 264.975C93.9962 268.078 96.5116 270.594 99.6146 270.594H134.134C137.237 270.594 139.753 268.078 139.753 264.975V223.43C139.753 220.327 137.237 217.811 134.134 217.811H99.6146C96.5116 217.811 93.9962 220.327 93.9962 223.43V264.975ZM93.9962 210.856C93.9962 213.959 96.5116 216.474 99.6146 216.474H134.134C137.237 216.474 139.753 213.959 139.753 210.856V169.312C139.753 166.209 137.237 163.693 134.134 163.693H99.6146C96.5116 163.693 93.9962 166.209 93.9962 169.312V210.856ZM93.9962 156.738C93.9962 159.841 96.5116 162.356 99.6146 162.356H134.134C137.237 162.356 139.753 159.841 139.753 156.738V115.193C139.753 112.09 137.237 109.575 134.134 109.575H99.6146C96.5116 109.575 93.9962 112.09 93.9962 115.193V156.738ZM93.9962 102.619C93.9962 105.722 96.5116 108.238 99.6146 108.238H134.134C137.237 108.238 139.753 105.722 139.753 102.619V61.0738C139.753 57.9708 137.237 55.4554 134.134 55.4554H99.6146C96.5116 55.4554 93.9962 57.9708 93.9962 61.0738V102.619ZM87.2186 55.4554C90.3215 55.4554 92.8369 57.9708 92.8369 61.0738V102.619C92.8369 105.722 90.3215 108.238 87.2186 108.238H52.6975C49.5945 108.238 47.0791 105.722 47.0791 102.619V61.0738C47.0791 57.9708 49.5945 55.4554 52.6975 55.4554H87.2186ZM87.2186 109.575C90.3215 109.575 92.8369 112.09 92.8369 115.193V156.738C92.8369 159.841 90.3215 162.356 87.2186 162.356H52.6975C49.5945 162.356 47.0791 159.841 47.0791 156.738V115.193C47.0791 112.09 49.5945 109.575 52.6975 109.575H87.2186ZM87.2186 163.693C90.3215 163.693 92.8369 166.209 92.8369 169.312V210.856C92.8369 213.959 90.3215 216.474 87.2186 216.474H52.6975C49.5945 216.474 47.0791 213.959 47.0791 210.856V169.312C47.0791 166.209 49.5945 163.693 52.6975 163.693H87.2186ZM87.2186 217.811C90.3215 217.811 92.8369 220.327 92.8369 223.43V264.975C92.8369 268.078 90.3215 270.594 87.2186 270.594L52.6975 270.594C49.5945 270.594 47.0791 268.078 47.0791 264.975V223.43C47.0791 220.327 49.5945 217.811 52.6975 217.811H87.2186ZM87.2186 271.931C90.3215 271.931 92.8369 274.446 92.8369 277.549L92.8369 319.093C92.8369 322.196 90.3215 324.712 87.2186 324.712L52.6975 324.712C49.5945 324.712 47.0791 322.196 47.0791 319.093L47.0791 277.549C47.0791 274.446 49.5945 271.931 52.6975 271.931L87.2186 271.931ZM87.2186 326.049C90.3215 326.049 92.8369 328.565 92.8369 331.667V373.213C92.8369 376.316 90.3215 378.831 87.2186 378.831L52.6975 378.831C49.5945 378.831 47.0791 376.316 47.0791 373.213V331.667C47.0791 328.565 49.5945 326.049 52.6975 326.049L87.2186 326.049ZM87.2186 380.169C90.3215 380.169 92.8369 382.684 92.8369 385.787V427.331C92.8369 430.434 90.3215 432.95 87.2186 432.95L52.6975 432.95C49.5945 432.95 47.0791 430.434 47.0791 427.331V385.787C47.0791 382.684 49.5945 380.169 52.6975 380.169L87.2186 380.169ZM87.2186 434.287C90.3215 434.287 92.8369 436.802 92.8369 439.905V481.451C92.8369 484.554 90.3215 487.069 87.2186 487.069L52.6975 487.069C49.5945 487.069 47.0791 484.554 47.0791 481.451V439.905C47.0791 436.802 49.5945 434.287 52.6975 434.287L87.2186 434.287ZM87.2186 488.406C90.3215 488.406 92.8369 490.922 92.8369 494.025V535.569C92.8369 538.672 90.3215 541.187 87.2186 541.187H52.6975C49.5945 541.187 47.0791 538.672 47.0791 535.569V494.025C47.0791 490.922 49.5945 488.406 52.6975 488.406L87.2186 488.406ZM87.2186 542.525C90.3215 542.525 92.8369 545.04 92.8369 548.143V589.688C92.8369 592.791 90.3215 595.307 87.2186 595.307H52.6975C49.5945 595.307 47.0791 592.791 47.0791 589.688V548.143C47.0791 545.04 49.5945 542.525 52.6975 542.525H87.2186ZM87.2186 596.644C90.3215 596.644 92.8369 599.16 92.8369 602.262V643.807C92.8369 646.91 90.3215 649.425 87.2186 649.425H52.6975C49.5945 649.425 47.0791 646.91 47.0791 643.807V602.262C47.0791 599.16 49.5945 596.644 52.6975 596.644H87.2186ZM87.2186 650.762C90.3215 650.762 92.8369 653.278 92.8369 656.381V697.925C92.8369 701.028 90.3215 703.543 87.2186 703.543H52.6975C49.5945 703.543 47.0791 701.028 47.0791 697.925V656.381C47.0791 653.278 49.5945 650.762 52.6975 650.762H87.2186ZM0.16333 697.925C0.16333 701.028 2.67877 703.543 5.78168 703.543H40.3015C43.4045 703.543 45.9199 701.028 45.9199 697.925V656.381C45.9199 653.278 43.4044 650.762 40.3015 650.762H5.78168C2.67877 650.762 0.16333 653.278 0.16333 656.381V697.925ZM0.16333 643.807C0.16333 646.91 2.67877 649.425 5.78168 649.425H40.3015C43.4045 649.425 45.9199 646.91 45.9199 643.807V602.262C45.9199 599.16 43.4044 596.644 40.3015 596.644H5.78168C2.67877 596.644 0.16333 599.16 0.16333 602.262V643.807ZM0.16333 589.688C0.16333 592.791 2.67877 595.307 5.78168 595.307H40.3015C43.4045 595.307 45.9199 592.791 45.9199 589.688V548.143C45.9199 545.04 43.4044 542.525 40.3015 542.525H5.78168C2.67877 542.525 0.16333 545.04 0.16333 548.143V589.688ZM0.16333 535.569C0.16333 538.672 2.67877 541.187 5.78168 541.187H40.3015C43.4045 541.187 45.9199 538.672 45.9199 535.569V494.025C45.9199 490.922 43.4044 488.406 40.3015 488.406H5.78168C2.67877 488.406 0.16333 490.922 0.16333 494.025V535.569ZM0.16333 481.451C0.16333 484.554 2.67877 487.069 5.78168 487.069H40.3015C43.4045 487.069 45.9199 484.554 45.9199 481.451V439.905C45.9199 436.802 43.4044 434.287 40.3015 434.287H5.78168C2.67877 434.287 0.16333 436.802 0.16333 439.905V481.451ZM0.16333 427.331C0.16333 430.434 2.67877 432.95 5.78168 432.95H40.3015C43.4045 432.95 45.9199 430.434 45.9199 427.331V385.787C45.9199 382.684 43.4044 380.169 40.3015 380.169H5.78168C2.67877 380.169 0.16333 382.684 0.16333 385.787V427.331ZM0.16333 373.213C0.16333 376.316 2.67877 378.831 5.78168 378.831H40.3015C43.4045 378.831 45.9199 376.316 45.9199 373.213V331.667C45.9199 328.565 43.4044 326.049 40.3015 326.049H5.78168C2.67877 326.049 0.16333 328.565 0.16333 331.667V373.213ZM0.16333 319.093C0.16333 322.196 2.67877 324.712 5.78168 324.712H40.3015C43.4045 324.712 45.9199 322.196 45.9199 319.093L45.9199 277.549C45.9199 274.446 43.4044 271.931 40.3015 271.931H5.78168C2.67877 271.931 0.16333 274.446 0.16333 277.549L0.16333 319.093ZM0.16333 264.975C0.16333 268.078 2.67877 270.594 5.78168 270.594H40.3015C43.4045 270.594 45.9199 268.078 45.9199 264.975V223.43C45.9199 220.327 43.4044 217.811 40.3015 217.811H5.78168C2.67877 217.811 0.16333 220.327 0.16333 223.43V264.975ZM0.16333 210.856C0.16333 213.959 2.67877 216.474 5.78168 216.474H40.3015C43.4045 216.474 45.9199 213.959 45.9199 210.856V169.312C45.9199 166.209 43.4044 163.693 40.3015 163.693H5.78168C2.67877 163.693 0.16333 166.209 0.16333 169.312V210.856ZM0.16333 156.738C0.16333 159.841 2.67877 162.356 5.78168 162.356H40.3015C43.4045 162.356 45.9199 159.841 45.9199 156.738V115.193C45.9199 112.09 43.4044 109.575 40.3015 109.575H5.78168C2.67877 109.575 0.16333 112.09 0.16333 115.193V156.738ZM0.16333 102.619C0.16333 105.722 2.67877 108.238 5.78168 108.238H40.3015C43.4045 108.238 45.9199 105.722 45.9199 102.619V61.0738C45.9199 57.9708 43.4044 55.4554 40.3015 55.4554H5.78168C2.67877 55.4554 0.16333 57.9708 0.16333 61.0738V102.619ZM-6.61432 55.4554C-3.51141 55.4554 -0.995972 57.9708 -0.995972 61.0738V102.619C-0.995972 105.722 -3.51141 108.238 -6.61432 108.238H-41.1354C-44.2383 108.238 -46.7537 105.722 -46.7537 102.619V61.0738C-46.7537 57.9708 -44.2383 55.4554 -41.1354 55.4554H-6.61432ZM-6.61432 109.575C-3.51141 109.575 -0.995972 112.09 -0.995972 115.193V156.738C-0.995972 159.841 -3.51141 162.356 -6.61432 162.356H-41.1354C-44.2383 162.356 -46.7537 159.841 -46.7537 156.738V115.193C-46.7537 112.09 -44.2383 109.575 -41.1354 109.575H-6.61432ZM-6.61432 163.693C-3.51141 163.693 -0.995972 166.209 -0.995972 169.312V210.856C-0.995972 213.959 -3.51141 216.474 -6.61432 216.474H-41.1354C-44.2383 216.474 -46.7537 213.959 -46.7537 210.856V169.312C-46.7537 166.209 -44.2383 163.693 -41.1354 163.693H-6.61432ZM-6.61432 217.811C-3.51141 217.811 -0.995972 220.327 -0.995972 223.43V264.975C-0.995972 268.078 -3.51141 270.594 -6.61432 270.594H-41.1354C-44.2383 270.594 -46.7537 268.078 -46.7537 264.975V223.43C-46.7537 220.327 -44.2383 217.811 -41.1354 217.811H-6.61432ZM-6.61432 271.931C-3.51141 271.931 -0.995972 274.446 -0.995972 277.549L-0.995972 319.093C-0.995972 322.196 -3.51141 324.712 -6.61432 324.712H-41.1354C-44.2383 324.712 -46.7537 322.196 -46.7537 319.093L-46.7537 277.549C-46.7537 274.446 -44.2383 271.931 -41.1354 271.931H-6.61432ZM-6.61432 326.049C-3.51141 326.049 -0.995972 328.565 -0.995972 331.667V373.213C-0.995972 376.316 -3.51141 378.831 -6.61432 378.831H-41.1354C-44.2383 378.831 -46.7537 376.316 -46.7537 373.213V331.667C-46.7537 328.565 -44.2383 326.049 -41.1354 326.049H-6.61432ZM-6.61432 380.169C-3.51141 380.169 -0.995972 382.684 -0.995972 385.787V427.331C-0.995972 430.434 -3.51141 432.95 -6.61432 432.95H-41.1354C-44.2383 432.95 -46.7537 430.434 -46.7537 427.331V385.787C-46.7537 382.684 -44.2383 380.169 -41.1354 380.169H-6.61432ZM-6.61432 434.287C-3.51141 434.287 -0.995972 436.802 -0.995972 439.905V481.451C-0.995972 484.554 -3.51141 487.069 -6.61432 487.069H-41.1354C-44.2383 487.069 -46.7537 484.554 -46.7537 481.451V439.905C-46.7537 436.802 -44.2383 434.287 -41.1354 434.287H-6.61432ZM-6.61432 488.406C-3.51141 488.406 -0.995972 490.922 -0.995972 494.025V535.569C-0.995972 538.672 -3.51141 541.187 -6.61432 541.187H-41.1354C-44.2383 541.187 -46.7537 538.672 -46.7537 535.569V494.025C-46.7537 490.922 -44.2383 488.406 -41.1354 488.406H-6.61432ZM-6.61432 542.525C-3.51141 542.525 -0.995972 545.04 -0.995972 548.143V589.688C-0.995972 592.791 -3.51141 595.307 -6.61432 595.307H-41.1354C-44.2383 595.307 -46.7537 592.791 -46.7537 589.688V548.143C-46.7537 545.04 -44.2383 542.525 -41.1354 542.525H-6.61432ZM-6.61432 596.644C-3.51141 596.644 -0.995972 599.16 -0.995972 602.262V643.807C-0.995972 646.91 -3.51141 649.425 -6.61432 649.425H-41.1354C-44.2383 649.425 -46.7537 646.91 -46.7537 643.807V602.262C-46.7537 599.16 -44.2383 596.644 -41.1354 596.644H-6.61432ZM-6.61432 650.762C-3.51141 650.762 -0.995972 653.278 -0.995972 656.381V697.925C-0.995972 701.028 -3.51141 703.543 -6.61432 703.543H-41.1354C-44.2383 703.543 -46.7537 701.028 -46.7537 697.925V656.381C-46.7537 653.278 -44.2383 650.762 -41.1354 650.762H-6.61432ZM-93.6684 697.925C-93.6684 701.028 -91.153 703.543 -88.05 703.543H-53.5313C-50.4284 703.543 -47.913 701.028 -47.913 697.925V656.381C-47.913 653.278 -50.4284 650.762 -53.5313 650.762H-88.05C-91.153 650.762 -93.6684 653.278 -93.6684 656.381V697.925ZM-93.6684 643.807C-93.6684 646.91 -91.153 649.425 -88.05 649.425H-53.5313C-50.4284 649.425 -47.913 646.91 -47.913 643.807V602.262C-47.913 599.16 -50.4284 596.644 -53.5313 596.644H-88.05C-91.153 596.644 -93.6684 599.16 -93.6684 602.262V643.807ZM-93.6684 589.688C-93.6684 592.791 -91.153 595.307 -88.05 595.307H-53.5313C-50.4284 595.307 -47.913 592.791 -47.913 589.688V548.143C-47.913 545.04 -50.4284 542.525 -53.5313 542.525H-88.05C-91.153 542.525 -93.6684 545.04 -93.6684 548.143V589.688ZM-93.6684 535.569C-93.6684 538.672 -91.153 541.187 -88.05 541.187H-53.5313C-50.4284 541.187 -47.913 538.672 -47.913 535.569V494.025C-47.913 490.922 -50.4284 488.406 -53.5313 488.406H-88.05C-91.153 488.406 -93.6684 490.922 -93.6684 494.025V535.569ZM-93.6684 481.451C-93.6684 484.554 -91.153 487.069 -88.05 487.069H-53.5313C-50.4284 487.069 -47.913 484.554 -47.913 481.451V439.905C-47.913 436.802 -50.4284 434.287 -53.5313 434.287H-88.05C-91.153 434.287 -93.6684 436.802 -93.6684 439.905V481.451ZM-93.6684 427.331C-93.6684 430.434 -91.153 432.95 -88.05 432.95H-53.5313C-50.4284 432.95 -47.913 430.434 -47.913 427.331V385.787C-47.913 382.684 -50.4284 380.169 -53.5313 380.169H-88.05C-91.153 380.169 -93.6684 382.684 -93.6684 385.787V427.331ZM-93.6684 373.213C-93.6684 376.316 -91.153 378.831 -88.05 378.831H-53.5313C-50.4284 378.831 -47.913 376.316 -47.913 373.213V331.667C-47.913 328.565 -50.4284 326.049 -53.5313 326.049H-88.05C-91.153 326.049 -93.6684 328.565 -93.6684 331.667V373.213ZM-93.6684 319.093C-93.6684 322.196 -91.153 324.712 -88.05 324.712H-53.5313C-50.4284 324.712 -47.913 322.196 -47.913 319.093L-47.913 277.549C-47.913 274.446 -50.4284 271.931 -53.5313 271.931H-88.05C-91.153 271.931 -93.6684 274.446 -93.6684 277.549L-93.6684 319.093ZM-93.6684 264.975C-93.6684 268.078 -91.153 270.594 -88.05 270.594H-53.5313C-50.4284 270.594 -47.913 268.078 -47.913 264.975V223.43C-47.913 220.327 -50.4284 217.811 -53.5313 217.811H-88.05C-91.153 217.811 -93.6684 220.327 -93.6684 223.43V264.975ZM-93.6684 210.856C-93.6684 213.959 -91.153 216.474 -88.05 216.474H-53.5313C-50.4284 216.474 -47.913 213.959 -47.913 210.856V169.312C-47.913 166.209 -50.4284 163.693 -53.5313 163.693H-88.05C-91.153 163.693 -93.6684 166.209 -93.6684 169.312V210.856ZM-93.6684 156.738C-93.6684 159.841 -91.153 162.356 -88.05 162.356H-53.5313C-50.4284 162.356 -47.913 159.841 -47.913 156.738V115.193C-47.913 112.09 -50.4284 109.575 -53.5313 109.575H-88.05C-91.153 109.575 -93.6684 112.09 -93.6684 115.193V156.738ZM-93.6684 102.619C-93.6684 105.722 -91.153 108.238 -88.05 108.238H-53.5313C-50.4284 108.238 -47.913 105.722 -47.913 102.619V61.0738C-47.913 57.9708 -50.4284 55.4554 -53.5313 55.4554H-88.05C-91.153 55.4554 -93.6684 57.9708 -93.6684 61.0738V102.619ZM-100.446 55.4554C-97.3431 55.4554 -94.8276 57.9708 -94.8276 61.0738V102.619C-94.8276 105.722 -97.3431 108.238 -100.446 108.238H-134.967C-138.07 108.238 -140.585 105.722 -140.585 102.619V61.0738C-140.585 57.9708 -138.07 55.4554 -134.967 55.4554H-100.446ZM-100.446 109.575C-97.3431 109.575 -94.8276 112.09 -94.8276 115.193V156.738C-94.8276 159.841 -97.3431 162.356 -100.446 162.356H-134.967C-138.07 162.356 -140.585 159.841 -140.585 156.738V115.193C-140.585 112.09 -138.07 109.575 -134.967 109.575H-100.446ZM-100.446 163.693C-97.3431 163.693 -94.8276 166.209 -94.8276 169.312V210.856C-94.8276 213.959 -97.3431 216.474 -100.446 216.474H-134.967C-138.07 216.474 -140.585 213.959 -140.585 210.856V169.312C-140.585 166.209 -138.07 163.693 -134.967 163.693H-100.446ZM-100.446 217.811C-97.3431 217.811 -94.8276 220.327 -94.8276 223.43V264.975C-94.8276 268.078 -97.3431 270.594 -100.446 270.594H-134.967C-138.07 270.594 -140.585 268.078 -140.585 264.975V223.43C-140.585 220.327 -138.07 217.811 -134.967 217.811H-100.446ZM-100.446 271.931C-97.3431 271.931 -94.8276 274.446 -94.8276 277.549L-94.8276 319.093C-94.8276 322.196 -97.3431 324.712 -100.446 324.712H-134.967C-138.07 324.712 -140.585 322.196 -140.585 319.093L-140.585 277.549C-140.585 274.446 -138.07 271.931 -134.967 271.931H-100.446ZM-100.446 326.049C-97.3431 326.049 -94.8276 328.565 -94.8276 331.667V373.213C-94.8276 376.316 -97.3431 378.831 -100.446 378.831H-134.967C-138.07 378.831 -140.585 376.316 -140.585 373.213V331.667C-140.585 328.565 -138.07 326.049 -134.967 326.049H-100.446ZM-100.446 380.169C-97.3431 380.169 -94.8276 382.684 -94.8276 385.787V427.331C-94.8276 430.434 -97.3431 432.95 -100.446 432.95H-134.967C-138.07 432.95 -140.585 430.434 -140.585 427.331V385.787C-140.585 382.684 -138.07 380.169 -134.967 380.169H-100.446ZM-100.446 434.287C-97.3431 434.287 -94.8276 436.802 -94.8276 439.905V481.451C-94.8276 484.554 -97.3431 487.069 -100.446 487.069H-134.967C-138.07 487.069 -140.585 484.554 -140.585 481.451V439.905C-140.585 436.802 -138.07 434.287 -134.967 434.287H-100.446ZM-100.446 488.406C-97.3431 488.406 -94.8276 490.922 -94.8276 494.025V535.569C-94.8276 538.672 -97.3431 541.187 -100.446 541.187H-134.967C-138.07 541.187 -140.585 538.672 -140.585 535.569V494.025C-140.585 490.922 -138.07 488.406 -134.967 488.406H-100.446ZM-100.446 542.525C-97.3431 542.525 -94.8276 545.04 -94.8276 548.143V589.688C-94.8276 592.791 -97.3431 595.307 -100.446 595.307H-134.967C-138.07 595.307 -140.585 592.791 -140.585 589.688V548.143C-140.585 545.04 -138.07 542.525 -134.967 542.525H-100.446ZM-100.446 596.644C-97.3431 596.644 -94.8276 599.16 -94.8276 602.262V643.807C-94.8276 646.91 -97.3431 649.425 -100.446 649.425H-134.967C-138.07 649.425 -140.585 646.91 -140.585 643.807V602.262C-140.585 599.16 -138.07 596.644 -134.967 596.644H-100.446ZM-100.446 650.762C-97.3431 650.762 -94.8276 653.278 -94.8276 656.381V697.925C-94.8276 701.028 -97.3431 703.543 -100.446 703.543H-134.967C-138.07 703.543 -140.585 701.028 -140.585 697.925V656.381C-140.585 653.278 -138.07 650.762 -134.967 650.762H-100.446ZM-187.501 697.925C-187.501 701.028 -184.986 703.543 -181.883 703.543H-147.363C-144.26 703.543 -141.745 701.028 -141.745 697.925V656.381C-141.745 653.278 -144.26 650.762 -147.363 650.762H-181.883C-184.986 650.762 -187.501 653.278 -187.501 656.381V697.925ZM-187.501 643.807C-187.501 646.91 -184.986 649.425 -181.883 649.425H-147.363C-144.26 649.425 -141.745 646.91 -141.745 643.807V602.262C-141.745 599.16 -144.26 596.644 -147.363 596.644H-181.883C-184.986 596.644 -187.501 599.16 -187.501 602.262V643.807ZM-187.501 589.688C-187.501 592.791 -184.986 595.307 -181.883 595.307H-147.363C-144.26 595.307 -141.745 592.791 -141.745 589.688V548.143C-141.745 545.04 -144.26 542.525 -147.363 542.525H-181.883C-184.986 542.525 -187.501 545.04 -187.501 548.143V589.688ZM-187.501 535.569C-187.501 538.672 -184.986 541.187 -181.883 541.187H-147.363C-144.26 541.187 -141.745 538.672 -141.745 535.569V494.025C-141.745 490.922 -144.26 488.406 -147.363 488.406H-181.883C-184.986 488.406 -187.501 490.922 -187.501 494.025V535.569ZM-187.501 481.451C-187.501 484.554 -184.986 487.069 -181.883 487.069H-147.363C-144.26 487.069 -141.745 484.554 -141.745 481.451V439.905C-141.745 436.802 -144.26 434.287 -147.363 434.287H-181.883C-184.986 434.287 -187.501 436.802 -187.501 439.905V481.451ZM-187.501 427.331C-187.501 430.434 -184.986 432.95 -181.883 432.95H-147.363C-144.26 432.95 -141.745 430.434 -141.745 427.331V385.787C-141.745 382.684 -144.26 380.169 -147.363 380.169H-181.883C-184.986 380.169 -187.501 382.684 -187.501 385.787V427.331ZM-187.501 373.213C-187.501 376.316 -184.986 378.831 -181.883 378.831H-147.363C-144.26 378.831 -141.745 376.316 -141.745 373.213V331.667C-141.745 328.565 -144.26 326.049 -147.363 326.049H-181.883C-184.986 326.049 -187.501 328.565 -187.501 331.667V373.213ZM-187.501 319.093C-187.501 322.196 -184.986 324.712 -181.883 324.712H-147.363C-144.26 324.712 -141.745 322.196 -141.745 319.093L-141.745 277.549C-141.745 274.446 -144.26 271.931 -147.363 271.931H-181.883C-184.986 271.931 -187.501 274.446 -187.501 277.549L-187.501 319.093ZM-187.501 264.975C-187.501 268.078 -184.986 270.594 -181.883 270.594H-147.363C-144.26 270.594 -141.745 268.078 -141.745 264.975V223.43C-141.745 220.327 -144.26 217.811 -147.363 217.811H-181.883C-184.986 217.811 -187.501 220.327 -187.501 223.43V264.975ZM-187.501 210.856C-187.501 213.959 -184.986 216.474 -181.883 216.474H-147.363C-144.26 216.474 -141.745 213.959 -141.745 210.856V169.312C-141.745 166.209 -144.26 163.693 -147.363 163.693H-181.883C-184.986 163.693 -187.501 166.209 -187.501 169.312V210.856ZM-187.501 156.738C-187.501 159.841 -184.986 162.356 -181.883 162.356H-147.363C-144.26 162.356 -141.745 159.841 -141.745 156.738V115.193C-141.745 112.09 -144.26 109.575 -147.363 109.575H-181.883C-184.986 109.575 -187.501 112.09 -187.501 115.193V156.738ZM-187.501 102.619C-187.501 105.722 -184.986 108.238 -181.883 108.238H-147.363C-144.26 108.238 -141.745 105.722 -141.745 102.619V61.0738C-141.745 57.9708 -144.26 55.4554 -147.363 55.4554H-181.883C-184.986 55.4554 -187.501 57.9708 -187.501 61.0738V102.619ZM-194.279 55.4554C-191.176 55.4554 -188.661 57.9708 -188.661 61.0738V102.619C-188.661 105.722 -191.176 108.238 -194.279 108.238H-228.799C-231.902 108.238 -234.417 105.722 -234.417 102.619V61.0738C-234.417 57.9708 -231.902 55.4554 -228.799 55.4554H-194.279ZM-194.279 109.575C-191.176 109.575 -188.661 112.09 -188.661 115.193V156.738C-188.661 159.841 -191.176 162.356 -194.279 162.356H-228.799C-231.902 162.356 -234.417 159.841 -234.417 156.738V115.193C-234.417 112.09 -231.902 109.575 -228.799 109.575H-194.279ZM-194.279 163.693C-191.176 163.693 -188.661 166.209 -188.661 169.312V210.856C-188.661 213.959 -191.176 216.474 -194.279 216.474H-228.799C-231.902 216.474 -234.417 213.959 -234.417 210.856V169.312C-234.417 166.209 -231.902 163.693 -228.799 163.693H-194.279ZM-194.279 217.811C-191.176 217.811 -188.661 220.327 -188.661 223.43V264.975C-188.661 268.078 -191.176 270.594 -194.279 270.594H-228.799C-231.902 270.594 -234.417 268.078 -234.417 264.975V223.43C-234.417 220.327 -231.902 217.811 -228.799 217.811H-194.279ZM-194.279 271.931C-191.176 271.931 -188.661 274.446 -188.661 277.549L-188.661 319.093C-188.661 322.196 -191.176 324.712 -194.279 324.712H-228.799C-231.902 324.712 -234.417 322.196 -234.417 319.093L-234.417 277.549C-234.417 274.446 -231.902 271.931 -228.799 271.931H-194.279ZM-194.279 326.049C-191.176 326.049 -188.661 328.565 -188.661 331.667V373.213C-188.661 376.316 -191.176 378.831 -194.279 378.831H-228.799C-231.902 378.831 -234.417 376.316 -234.417 373.213V331.667C-234.417 328.565 -231.902 326.049 -228.799 326.049H-194.279ZM-194.279 380.169C-191.176 380.169 -188.661 382.684 -188.661 385.787V427.331C-188.661 430.434 -191.176 432.95 -194.279 432.95H-228.799C-231.902 432.95 -234.417 430.434 -234.417 427.331V385.787C-234.417 382.684 -231.902 380.169 -228.799 380.169H-194.279ZM-194.279 434.287C-191.176 434.287 -188.661 436.802 -188.661 439.905V481.451C-188.661 484.554 -191.176 487.069 -194.279 487.069H-228.799C-231.902 487.069 -234.417 484.554 -234.417 481.451V439.905C-234.417 436.802 -231.902 434.287 -228.799 434.287H-194.279ZM-194.279 488.406C-191.176 488.406 -188.661 490.922 -188.661 494.025V535.569C-188.661 538.672 -191.176 541.187 -194.279 541.187H-228.799C-231.902 541.187 -234.417 538.672 -234.417 535.569V494.025C-234.417 490.922 -231.902 488.406 -228.799 488.406H-194.279ZM-194.279 542.525C-191.176 542.525 -188.661 545.04 -188.661 548.143V589.688C-188.661 592.791 -191.176 595.307 -194.279 595.307H-228.799C-231.902 595.307 -234.417 592.791 -234.417 589.688V548.143C-234.417 545.04 -231.902 542.525 -228.799 542.525H-194.279ZM-194.279 596.644C-191.176 596.644 -188.661 599.16 -188.661 602.262V643.807C-188.661 646.91 -191.176 649.425 -194.279 649.425H-228.799C-231.902 649.425 -234.417 646.91 -234.417 643.807V602.262C-234.417 599.16 -231.902 596.644 -228.799 596.644H-194.279ZM-194.279 650.762C-191.176 650.762 -188.661 653.278 -188.661 656.381V697.925C-188.661 701.028 -191.176 703.543 -194.279 703.543H-228.799C-231.902 703.543 -234.417 701.028 -234.417 697.925V656.381C-234.417 653.278 -231.902 650.762 -228.799 650.762H-194.279ZM-281.334 697.925C-281.334 701.028 -278.819 703.543 -275.716 703.543H-241.195C-238.092 703.543 -235.576 701.028 -235.576 697.925V656.381C-235.576 653.278 -238.092 650.762 -241.195 650.762H-275.716C-278.819 650.762 -281.334 653.278 -281.334 656.381V697.925ZM-281.334 643.807C-281.334 646.91 -278.819 649.425 -275.716 649.425H-241.195C-238.092 649.425 -235.576 646.91 -235.576 643.807V602.262C-235.576 599.16 -238.092 596.644 -241.195 596.644H-275.716C-278.819 596.644 -281.334 599.16 -281.334 602.262V643.807ZM-281.334 589.688C-281.334 592.791 -278.819 595.307 -275.716 595.307H-241.195C-238.092 595.307 -235.576 592.791 -235.576 589.688V548.143C-235.576 545.04 -238.092 542.525 -241.195 542.525H-275.716C-278.819 542.525 -281.334 545.04 -281.334 548.143V589.688ZM-281.334 535.569C-281.334 538.672 -278.819 541.187 -275.716 541.187H-241.195C-238.092 541.187 -235.576 538.672 -235.576 535.569V494.025C-235.576 490.922 -238.092 488.406 -241.195 488.406H-275.716C-278.819 488.406 -281.334 490.922 -281.334 494.025V535.569ZM-281.334 481.451C-281.334 484.554 -278.819 487.069 -275.716 487.069H-241.195C-238.092 487.069 -235.576 484.554 -235.576 481.451V439.905C-235.576 436.802 -238.092 434.287 -241.195 434.287H-275.716C-278.819 434.287 -281.334 436.802 -281.334 439.905V481.451ZM-281.334 427.331C-281.334 430.434 -278.819 432.95 -275.716 432.95H-241.195C-238.092 432.95 -235.576 430.434 -235.576 427.331V385.787C-235.576 382.684 -238.092 380.169 -241.195 380.169H-275.716C-278.819 380.169 -281.334 382.684 -281.334 385.787V427.331ZM-281.334 373.213C-281.334 376.316 -278.819 378.831 -275.716 378.831H-241.195C-238.092 378.831 -235.576 376.316 -235.576 373.213V331.667C-235.576 328.565 -238.092 326.049 -241.195 326.049H-275.716C-278.819 326.049 -281.334 328.565 -281.334 331.667V373.213ZM-281.334 319.093C-281.334 322.196 -278.819 324.712 -275.716 324.712H-241.195C-238.092 324.712 -235.576 322.196 -235.576 319.093L-235.576 277.549C-235.576 274.446 -238.092 271.931 -241.195 271.931H-275.716C-278.819 271.931 -281.334 274.446 -281.334 277.549V319.093ZM-281.334 264.975C-281.334 268.078 -278.819 270.594 -275.716 270.594H-241.195C-238.092 270.594 -235.576 268.078 -235.576 264.975V223.43C-235.576 220.327 -238.092 217.811 -241.195 217.811H-275.716C-278.819 217.811 -281.334 220.327 -281.334 223.43V264.975ZM-281.334 210.856C-281.334 213.959 -278.819 216.474 -275.716 216.474H-241.195C-238.092 216.474 -235.576 213.959 -235.576 210.856V169.312C-235.576 166.209 -238.092 163.693 -241.195 163.693H-275.716C-278.819 163.693 -281.334 166.209 -281.334 169.312V210.856ZM-281.334 156.738C-281.334 159.841 -278.819 162.356 -275.716 162.356H-241.195C-238.092 162.356 -235.576 159.841 -235.576 156.738V115.193C-235.576 112.09 -238.092 109.575 -241.195 109.575H-275.716C-278.819 109.575 -281.334 112.09 -281.334 115.193V156.738ZM-281.334 102.619C-281.334 105.722 -278.819 108.238 -275.716 108.238H-241.195C-238.092 108.238 -235.576 105.722 -235.576 102.619V61.0738C-235.576 57.9708 -238.092 55.4554 -241.195 55.4554H-275.716C-278.819 55.4554 -281.334 57.9708 -281.334 61.0738V102.619ZM-288.112 55.4554C-285.009 55.4554 -282.493 57.9708 -282.493 61.0738V102.619C-282.493 105.722 -285.009 108.238 -288.112 108.238H-322.632C-325.735 108.238 -328.25 105.722 -328.25 102.619V61.0738C-328.25 57.9708 -325.735 55.4554 -322.632 55.4554H-288.112ZM-288.112 109.575C-285.009 109.575 -282.493 112.09 -282.493 115.193V156.738C-282.493 159.841 -285.009 162.356 -288.112 162.356H-322.632C-325.735 162.356 -328.25 159.841 -328.25 156.738V115.193C-328.25 112.09 -325.735 109.575 -322.632 109.575H-288.112ZM-288.112 163.693C-285.009 163.693 -282.493 166.209 -282.493 169.312V210.856C-282.493 213.959 -285.009 216.474 -288.112 216.474H-322.632C-325.735 216.474 -328.25 213.959 -328.25 210.856V169.312C-328.25 166.209 -325.735 163.693 -322.632 163.693H-288.112ZM-288.112 217.811C-285.009 217.811 -282.493 220.327 -282.493 223.43V264.975C-282.493 268.078 -285.009 270.594 -288.112 270.594H-322.632C-325.735 270.594 -328.25 268.078 -328.25 264.975V223.43C-328.25 220.327 -325.735 217.811 -322.632 217.811H-288.112ZM-288.112 271.931C-285.009 271.931 -282.493 274.446 -282.493 277.549V319.093C-282.493 322.196 -285.009 324.712 -288.112 324.712H-322.632C-325.735 324.712 -328.25 322.196 -328.25 319.093V277.549C-328.25 274.446 -325.735 271.931 -322.632 271.931H-288.112ZM-288.112 326.049C-285.009 326.049 -282.493 328.565 -282.493 331.667V373.213C-282.493 376.316 -285.009 378.831 -288.112 378.831H-322.632C-325.735 378.831 -328.25 376.316 -328.25 373.213V331.667C-328.25 328.565 -325.735 326.049 -322.632 326.049H-288.112ZM-288.112 380.169C-285.009 380.169 -282.493 382.684 -282.493 385.787V427.331C-282.493 430.434 -285.009 432.95 -288.112 432.95H-322.632C-325.735 432.95 -328.25 430.434 -328.25 427.331V385.787C-328.25 382.684 -325.735 380.169 -322.632 380.169H-288.112ZM-288.112 434.287C-285.009 434.287 -282.493 436.802 -282.493 439.905V481.451C-282.493 484.554 -285.009 487.069 -288.112 487.069H-322.632C-325.735 487.069 -328.25 484.554 -328.25 481.451V439.905C-328.25 436.802 -325.735 434.287 -322.632 434.287H-288.112ZM-288.112 488.406C-285.009 488.406 -282.493 490.922 -282.493 494.025V535.569C-282.493 538.672 -285.009 541.187 -288.112 541.187H-322.632C-325.735 541.187 -328.25 538.672 -328.25 535.569V494.025C-328.25 490.922 -325.735 488.406 -322.632 488.406H-288.112ZM-288.112 542.525C-285.009 542.525 -282.493 545.04 -282.493 548.143V589.688C-282.493 592.791 -285.009 595.307 -288.112 595.307H-322.632C-325.735 595.307 -328.25 592.791 -328.25 589.688V548.143C-328.25 545.04 -325.735 542.525 -322.632 542.525H-288.112ZM-288.112 596.644C-285.009 596.644 -282.493 599.16 -282.493 602.262V643.807C-282.493 646.91 -285.009 649.425 -288.112 649.425H-322.632C-325.735 649.425 -328.25 646.91 -328.25 643.807V602.262C-328.25 599.16 -325.735 596.644 -322.632 596.644H-288.112ZM-288.112 650.762C-285.009 650.762 -282.493 653.278 -282.493 656.381V697.925C-282.493 701.028 -285.009 703.543 -288.112 703.543H-322.632C-325.735 703.543 -328.25 701.028 -328.25 697.925V656.381C-328.25 653.278 -325.735 650.762 -322.632 650.762H-288.112ZM-375.167 697.925C-375.167 701.028 -372.652 703.543 -369.549 703.543H-335.028C-331.925 703.543 -329.409 701.028 -329.409 697.925V656.381C-329.409 653.278 -331.925 650.762 -335.028 650.762H-369.549C-372.652 650.762 -375.167 653.278 -375.167 656.381V697.925ZM-375.167 643.807C-375.167 646.91 -372.652 649.425 -369.549 649.425H-335.028C-331.925 649.425 -329.409 646.91 -329.409 643.807V602.262C-329.409 599.16 -331.925 596.644 -335.028 596.644H-369.549C-372.652 596.644 -375.167 599.16 -375.167 602.262V643.807ZM-375.167 589.688C-375.167 592.791 -372.652 595.307 -369.549 595.307H-335.028C-331.925 595.307 -329.409 592.791 -329.409 589.688V548.143C-329.409 545.04 -331.925 542.525 -335.028 542.525H-369.549C-372.652 542.525 -375.167 545.04 -375.167 548.143V589.688ZM-375.167 535.569C-375.167 538.672 -372.652 541.187 -369.549 541.187H-335.028C-331.925 541.187 -329.409 538.672 -329.409 535.569V494.025C-329.409 490.922 -331.925 488.406 -335.028 488.406H-369.549C-372.652 488.406 -375.167 490.922 -375.167 494.025V535.569ZM-375.167 481.451C-375.167 484.554 -372.652 487.069 -369.549 487.069H-335.028C-331.925 487.069 -329.409 484.554 -329.409 481.451V439.905C-329.409 436.802 -331.925 434.287 -335.028 434.287H-369.549C-372.652 434.287 -375.167 436.802 -375.167 439.905V481.451ZM-375.167 427.331C-375.167 430.434 -372.652 432.95 -369.549 432.95H-335.028C-331.925 432.95 -329.409 430.434 -329.409 427.331V385.787C-329.409 382.684 -331.925 380.169 -335.028 380.169H-369.549C-372.652 380.169 -375.167 382.684 -375.167 385.787V427.331ZM-375.167 373.213C-375.167 376.316 -372.652 378.831 -369.549 378.831H-335.028C-331.925 378.831 -329.409 376.316 -329.409 373.213V331.667C-329.409 328.565 -331.925 326.049 -335.028 326.049H-369.549C-372.652 326.049 -375.167 328.565 -375.167 331.667V373.213ZM-375.167 319.093C-375.167 322.196 -372.652 324.712 -369.549 324.712H-335.028C-331.925 324.712 -329.409 322.196 -329.409 319.093V277.549C-329.409 274.446 -331.925 271.931 -335.028 271.931H-369.549C-372.652 271.931 -375.167 274.446 -375.167 277.549V319.093ZM-375.167 264.975C-375.167 268.078 -372.652 270.594 -369.549 270.594H-335.028C-331.925 270.594 -329.409 268.078 -329.409 264.975V223.43C-329.409 220.327 -331.925 217.811 -335.028 217.811H-369.549C-372.652 217.811 -375.167 220.327 -375.167 223.43V264.975ZM-375.167 210.856C-375.167 213.959 -372.652 216.474 -369.549 216.474H-335.028C-331.925 216.474 -329.409 213.959 -329.409 210.856V169.312C-329.409 166.209 -331.925 163.693 -335.028 163.693H-369.549C-372.652 163.693 -375.167 166.209 -375.167 169.312V210.856ZM-375.167 156.738C-375.167 159.841 -372.652 162.356 -369.549 162.356H-335.028C-331.925 162.356 -329.409 159.841 -329.409 156.738V115.193C-329.409 112.09 -331.925 109.575 -335.028 109.575H-369.549C-372.652 109.575 -375.167 112.09 -375.167 115.193V156.738ZM-375.167 102.619C-375.167 105.722 -372.652 108.238 -369.549 108.238H-335.028C-331.925 108.238 -329.409 105.722 -329.409 102.619V61.0738C-329.409 57.9708 -331.925 55.4554 -335.028 55.4554H-369.549C-372.652 55.4554 -375.167 57.9708 -375.167 61.0738V102.619ZM-381.945 55.4554C-378.842 55.4554 -376.326 57.9708 -376.326 61.0738V102.619C-376.326 105.722 -378.842 108.238 -381.945 108.238H-416.468C-419.571 108.238 -422.086 105.722 -422.086 102.619V61.0738C-422.086 57.9708 -419.571 55.4554 -416.468 55.4554H-381.945ZM-381.945 109.575C-378.842 109.575 -376.326 112.09 -376.326 115.193V156.738C-376.326 159.841 -378.842 162.356 -381.945 162.356H-416.468C-419.571 162.356 -422.086 159.841 -422.086 156.738V115.193C-422.086 112.09 -419.571 109.575 -416.468 109.575H-381.945ZM-381.945 163.693C-378.842 163.693 -376.326 166.209 -376.326 169.312V210.856C-376.326 213.959 -378.842 216.474 -381.945 216.474H-416.468C-419.571 216.474 -422.086 213.959 -422.086 210.856V169.312C-422.086 166.209 -419.571 163.693 -416.468 163.693H-381.945ZM-381.945 217.811C-378.842 217.811 -376.326 220.327 -376.326 223.43V264.975C-376.326 268.078 -378.842 270.594 -381.945 270.594L-416.468 270.594C-419.571 270.594 -422.086 268.078 -422.086 264.975V223.43C-422.086 220.327 -419.571 217.811 -416.468 217.811H-381.945ZM-381.945 271.931C-378.842 271.931 -376.326 274.446 -376.326 277.549V319.093C-376.326 322.196 -378.842 324.712 -381.945 324.712L-416.468 324.712C-419.571 324.712 -422.086 322.196 -422.086 319.093V277.549C-422.086 274.446 -419.571 271.931 -416.468 271.931L-381.945 271.931ZM-381.945 326.049C-378.842 326.049 -376.326 328.565 -376.326 331.667V373.213C-376.326 376.316 -378.842 378.831 -381.945 378.831L-416.468 378.831C-419.571 378.831 -422.086 376.316 -422.086 373.213V331.667C-422.086 328.565 -419.571 326.049 -416.468 326.049L-381.945 326.049ZM-381.945 380.169C-378.842 380.169 -376.326 382.684 -376.326 385.787V427.331C-376.326 430.434 -378.842 432.95 -381.945 432.95L-416.468 432.95C-419.571 432.95 -422.086 430.434 -422.086 427.331V385.787C-422.086 382.684 -419.571 380.169 -416.468 380.169L-381.945 380.169ZM-381.945 434.287C-378.842 434.287 -376.326 436.802 -376.326 439.905V481.451C-376.326 484.554 -378.842 487.069 -381.945 487.069L-416.468 487.069C-419.571 487.069 -422.086 484.554 -422.086 481.451V439.905C-422.086 436.802 -419.571 434.287 -416.468 434.287L-381.945 434.287ZM-381.945 488.406C-378.842 488.406 -376.326 490.922 -376.326 494.025V535.569C-376.326 538.672 -378.842 541.187 -381.945 541.187H-416.468C-419.571 541.187 -422.086 538.672 -422.086 535.569V494.025C-422.086 490.922 -419.571 488.406 -416.468 488.406L-381.945 488.406ZM-381.945 542.525C-378.842 542.525 -376.326 545.04 -376.326 548.143V589.688C-376.326 592.791 -378.842 595.307 -381.945 595.307H-416.468C-419.571 595.307 -422.086 592.791 -422.086 589.688V548.143C-422.086 545.04 -419.571 542.525 -416.468 542.525H-381.945ZM-381.945 596.644C-378.842 596.644 -376.326 599.16 -376.326 602.262V643.807C-376.326 646.91 -378.842 649.425 -381.945 649.425H-416.468C-419.571 649.425 -422.086 646.91 -422.086 643.807V602.262C-422.086 599.16 -419.571 596.644 -416.468 596.644H-381.945ZM-381.945 650.762C-378.842 650.762 -376.326 653.278 -376.326 656.381V697.925C-376.326 701.028 -378.842 703.543 -381.945 703.543H-416.468C-419.571 703.543 -422.086 701.028 -422.086 697.925V656.381C-422.086 653.278 -419.571 650.762 -416.468 650.762H-381.945Z" fill="#B4B2B2" fill-opacity="0.15"/>
</svg>
