<svg width="375" height="523" viewBox="0 0 375 523" fill="none" xmlns="http://www.w3.org/2000/svg">
<path fill-rule="evenodd" clip-rule="evenodd" d="M756.444 468.88C753.341 468.88 750.825 471.396 750.825 474.499V522.42C750.825 522.74 750.566 523 750.246 523C749.926 523 749.666 522.741 749.666 522.42V474.499C749.666 471.396 747.151 468.88 744.048 468.88H709.527C706.424 468.88 703.908 471.396 703.908 474.499V521.083C703.908 521.403 703.649 521.663 703.329 521.663C703.009 521.663 702.749 521.403 702.749 521.083V474.499C702.749 471.396 700.234 468.88 697.131 468.88H662.611C659.508 468.88 656.992 471.396 656.992 474.499V521.083C656.992 521.403 656.733 521.663 656.413 521.663C656.093 521.663 655.833 521.403 655.833 521.083V474.499C655.833 471.396 653.318 468.88 650.215 468.88H615.694C612.591 468.88 610.075 471.396 610.075 474.499V521.083C610.075 521.403 609.816 521.663 609.496 521.663C609.176 521.663 608.916 521.403 608.916 521.083V474.499C608.916 471.396 606.401 468.88 603.298 468.88H568.778C565.675 468.88 563.159 471.396 563.159 474.499V521.083C563.159 521.403 562.9 521.663 562.58 521.663C562.26 521.663 562 521.403 562 521.083V474.499C562 471.396 559.485 468.88 556.382 468.88H521.861C518.758 468.88 516.242 471.396 516.242 474.499V521.083C516.242 521.403 515.983 521.663 515.663 521.663C515.343 521.663 515.083 521.403 515.083 521.083V474.499C515.083 471.396 512.568 468.88 509.465 468.88H474.945C471.842 468.88 469.327 471.396 469.327 474.499V521.083C469.327 521.403 469.067 521.663 468.747 521.663C468.427 521.663 468.167 521.403 468.167 521.083V474.499C468.167 471.396 465.652 468.88 462.549 468.88H428.028C424.925 468.88 422.41 471.396 422.41 474.499V521.083C422.41 521.403 422.15 521.663 421.83 521.663C421.51 521.663 421.25 521.403 421.25 521.083V474.499C421.25 471.396 418.735 468.88 415.632 468.88H381.112C378.009 468.88 375.494 471.396 375.494 474.499V521.083C375.494 521.403 375.234 521.663 374.914 521.663C374.594 521.663 374.334 521.403 374.334 521.083V474.499C374.334 471.396 371.819 468.88 368.716 468.88H334.195C331.092 468.88 328.577 471.396 328.577 474.499V521.083C328.577 521.403 328.317 521.663 327.997 521.663C327.677 521.663 327.417 521.403 327.417 521.083V474.499C327.417 471.396 324.902 468.88 321.799 468.88H287.279C284.176 468.88 281.661 471.396 281.661 474.499V521.083C281.661 521.403 281.401 521.663 281.081 521.663C280.761 521.663 280.502 521.403 280.502 521.083V474.499C280.502 471.396 277.986 468.88 274.883 468.88H240.362C237.259 468.88 234.744 471.396 234.744 474.499V521.083C234.744 521.403 234.484 521.663 234.164 521.663C233.844 521.663 233.585 521.403 233.585 521.083V474.499C233.585 471.396 231.069 468.88 227.966 468.88H193.446C190.343 468.88 187.828 471.396 187.828 474.499V521.083C187.828 521.403 187.568 521.663 187.248 521.663C186.928 521.663 186.669 521.403 186.669 521.083V474.499C186.669 471.396 184.153 468.88 181.05 468.88H146.529C143.426 468.88 140.911 471.396 140.911 474.499V521.083C140.911 521.403 140.651 521.663 140.331 521.663C140.011 521.663 139.752 521.403 139.752 521.083V474.499C139.752 471.396 137.236 468.88 134.133 468.88L99.6135 468.88C96.5105 468.88 93.9951 471.396 93.9951 474.499V521.083C93.9951 521.403 93.7355 521.663 93.4154 521.663C93.0953 521.663 92.8358 521.403 92.8358 521.083V474.499C92.8358 471.396 90.3204 468.88 87.2175 468.88H52.6964C49.5935 468.88 47.0781 471.396 47.0781 474.499V521.083C47.0781 521.403 46.8185 521.663 46.4984 521.663C46.1783 521.663 45.9188 521.403 45.9188 521.083V474.499C45.9188 471.396 43.4033 468.88 40.3004 468.88H5.78058C2.67761 468.88 0.162231 471.396 0.162231 474.499V521.083C0.162231 521.403 -0.09729 521.663 -0.417419 521.663C-0.737488 521.663 -0.997009 521.403 -0.997009 521.083V474.499C-0.997009 471.396 -3.51245 468.88 -6.61542 468.88H-41.1365C-44.2394 468.88 -46.7549 471.396 -46.7549 474.499V521.083C-46.7549 521.403 -47.0144 521.663 -47.3345 521.663C-47.6546 521.663 -47.9141 521.403 -47.9141 521.083V474.499C-47.9141 471.396 -50.4296 468.88 -53.5325 468.88H-88.0512C-91.1541 468.88 -93.6696 471.396 -93.6696 474.499V521.083C-93.6696 521.403 -93.9291 521.663 -94.2492 521.663C-94.5693 521.663 -94.8288 521.403 -94.8288 521.083V474.499C-94.8288 471.396 -97.3442 468.88 -100.447 468.88H-134.968C-138.071 468.88 -140.587 471.396 -140.587 474.499V521.083C-140.587 521.403 -140.846 521.663 -141.166 521.663C-141.486 521.663 -141.746 521.403 -141.746 521.083V474.499C-141.746 471.396 -144.261 468.88 -147.364 468.88H-181.884C-184.987 468.88 -187.503 471.396 -187.503 474.499V521.083C-187.503 521.403 -187.762 521.663 -188.082 521.663C-188.402 521.663 -188.662 521.403 -188.662 521.083V474.499C-188.662 471.396 -191.177 468.88 -194.28 468.88H-228.8C-231.903 468.88 -234.418 471.396 -234.418 474.499V521.083C-234.418 521.403 -234.678 521.663 -234.998 521.663C-235.318 521.663 -235.578 521.403 -235.578 521.083V474.499C-235.578 471.396 -238.093 468.88 -241.196 468.88H-275.717C-278.82 468.88 -281.335 471.396 -281.335 474.499V521.083C-281.335 521.403 -281.595 521.663 -281.915 521.663C-282.235 521.663 -282.495 521.403 -282.495 521.083V474.499C-282.495 471.396 -285.01 468.88 -288.113 468.88H-322.633C-325.736 468.88 -328.251 471.396 -328.251 474.499V521.083C-328.251 521.403 -328.511 521.663 -328.831 521.663C-329.151 521.663 -329.41 521.403 -329.41 521.083V474.499C-329.41 471.396 -331.926 468.88 -335.029 468.88H-369.55C-372.653 468.88 -375.168 471.396 -375.168 474.499V521.083C-375.168 521.403 -375.428 521.663 -375.748 521.663C-376.068 521.663 -376.328 521.403 -376.328 521.083V474.499C-376.328 471.396 -378.843 468.88 -381.946 468.88L-416.469 468.88C-419.572 468.88 -422.088 471.396 -422.088 474.499V521.083C-422.088 521.403 -422.347 521.663 -422.667 521.663C-422.987 521.663 -423.247 521.403 -423.247 521.083V474.499C-423.247 471.396 -425.762 468.88 -428.865 468.88H-468.331C-468.701 468.88 -469 468.581 -469 468.212C-469 467.843 -468.701 467.543 -468.331 467.543H-428.864C-425.761 467.543 -423.246 465.028 -423.246 461.925V420.381C-423.246 417.278 -425.761 414.762 -428.864 414.762L-468.331 414.762C-468.701 414.762 -469 414.463 -469 414.094C-469 413.724 -468.701 413.425 -468.331 413.425L-428.864 413.425C-425.761 413.425 -423.246 410.91 -423.246 407.807V366.262C-423.246 363.16 -425.761 360.644 -428.864 360.644H-468.331C-468.701 360.644 -469 360.345 -469 359.975C-469 359.606 -468.701 359.307 -468.331 359.307H-428.864C-425.761 359.307 -423.246 356.791 -423.246 353.688V312.143C-423.246 309.04 -425.761 306.525 -428.864 306.525H-468.331C-468.701 306.525 -469 306.225 -469 305.856C-469 305.487 -468.701 305.187 -468.331 305.187H-428.864C-425.761 305.187 -423.246 302.672 -423.246 299.569V258.025C-423.246 254.922 -425.761 252.406 -428.864 252.406H-468.331C-468.701 252.406 -469 252.107 -469 251.738C-469 251.368 -468.701 251.069 -468.331 251.069H-428.864C-425.761 251.069 -423.246 248.554 -423.246 245.451V203.905C-423.246 200.802 -425.761 198.287 -428.864 198.287H-468.331C-468.701 198.287 -469 197.987 -469 197.618C-469 197.249 -468.701 196.95 -468.331 196.95H-428.864C-425.761 196.95 -423.246 194.434 -423.246 191.331V149.787C-423.246 146.684 -425.761 144.169 -428.864 144.169H-468.331C-468.701 144.169 -469 143.869 -469 143.5C-469 143.131 -468.701 142.831 -468.331 142.831H-428.864C-425.761 142.831 -423.246 140.316 -423.246 137.213V95.6675C-423.246 92.5645 -425.761 90.0491 -428.864 90.0491H-468.331C-468.701 90.0491 -469 89.7497 -469 89.3805C-469 89.0112 -468.701 88.7119 -468.331 88.7119H-428.864C-425.761 88.7119 -423.246 86.1964 -423.246 83.0935V41.5492C-423.246 38.4463 -425.761 35.9308 -428.864 35.9308H-468.331C-468.701 35.9308 -469 35.6315 -469 35.2623C-469 34.893 -468.701 34.5937 -468.331 34.5937H-428.864C-425.761 34.5937 -423.246 32.0783 -423.246 28.9753V-12.5703C-423.246 -15.6733 -425.761 -18.1887 -428.864 -18.1887H-468.331C-468.701 -18.1887 -469 -18.488 -469 -18.8573C-469 -19.2265 -468.701 -19.5259 -468.331 -19.5259H-428.864C-425.761 -19.5259 -423.246 -22.0413 -423.246 -25.1442V-66.6885C-423.246 -69.7914 -425.761 -72.3069 -428.864 -72.3069H-468.331C-468.701 -72.3069 -469 -72.6062 -469 -72.9755C-469 -73.3447 -468.701 -73.644 -468.331 -73.644H-428.864C-425.761 -73.644 -423.246 -76.1595 -423.246 -79.2625V-120.807C-423.246 -123.91 -425.761 -126.425 -428.864 -126.425H-468.331C-468.701 -126.425 -469 -126.724 -469 -127.094C-469 -127.463 -468.701 -127.762 -468.331 -127.762H-428.864C-425.761 -127.762 -423.246 -130.278 -423.246 -133.381V-174.926C-423.246 -178.029 -425.761 -180.545 -428.864 -180.545H-468.331C-468.701 -180.545 -469 -180.844 -469 -181.213C-469 -181.582 -468.701 -181.882 -468.331 -181.882H-428.864C-425.761 -181.882 -423.246 -184.397 -423.246 -187.5V-235.42C-423.246 -235.74 -422.986 -236 -422.666 -236C-422.346 -236 -422.086 -235.74 -422.086 -235.42V-187.5C-422.086 -184.397 -419.571 -181.882 -416.468 -181.882H-381.945C-378.842 -181.882 -376.326 -184.397 -376.326 -187.5V-235.42C-376.326 -235.741 -376.067 -236 -375.747 -236C-375.427 -236 -375.167 -235.741 -375.167 -235.42V-187.5C-375.167 -184.397 -372.652 -181.882 -369.549 -181.882H-335.028C-331.925 -181.882 -329.409 -184.397 -329.409 -187.5V-235.42C-329.409 -235.74 -329.15 -236 -328.83 -236C-328.51 -236 -328.25 -235.74 -328.25 -235.42V-187.5C-328.25 -184.397 -325.735 -181.882 -322.632 -181.882H-288.112C-285.009 -181.882 -282.493 -184.397 -282.493 -187.5V-235.42C-282.493 -235.741 -282.234 -236 -281.914 -236C-281.594 -236 -281.334 -235.741 -281.334 -235.42V-187.5C-281.334 -184.397 -278.819 -181.882 -275.716 -181.882H-241.195C-238.092 -181.882 -235.576 -184.397 -235.576 -187.5V-235.42C-235.576 -235.741 -235.317 -236 -234.997 -236C-234.677 -236 -234.417 -235.741 -234.417 -235.42V-187.5C-234.417 -184.397 -231.902 -181.882 -228.799 -181.882H-194.279C-191.176 -181.882 -188.661 -184.397 -188.661 -187.5V-235.42C-188.661 -235.741 -188.401 -236 -188.081 -236C-187.761 -236 -187.501 -235.741 -187.501 -235.42V-187.5C-187.501 -184.397 -184.986 -181.882 -181.883 -181.882H-147.363C-144.26 -181.882 -141.745 -184.397 -141.745 -187.5V-235.42C-141.745 -235.741 -141.485 -236 -141.165 -236C-140.845 -236 -140.585 -235.741 -140.585 -235.42V-187.5C-140.585 -184.397 -138.07 -181.882 -134.967 -181.882H-100.446C-97.3431 -181.882 -94.8276 -184.397 -94.8276 -187.5V-235.42C-94.8276 -235.741 -94.5681 -236 -94.248 -236C-93.9279 -236 -93.6684 -235.741 -93.6684 -235.42V-187.5C-93.6684 -184.397 -91.153 -181.882 -88.05 -181.882H-53.5313C-50.4284 -181.882 -47.913 -184.397 -47.913 -187.5V-235.42C-47.913 -235.741 -47.6534 -236 -47.3333 -236C-47.0132 -236 -46.7537 -235.741 -46.7537 -235.42V-187.5C-46.7537 -184.397 -44.2383 -181.882 -41.1354 -181.882H-6.61432C-3.51141 -181.882 -0.995972 -184.397 -0.995972 -187.5V-235.42C-0.995972 -235.741 -0.73645 -236 -0.416321 -236C-0.0961914 -236 0.16333 -235.741 0.16333 -235.42V-187.5C0.16333 -184.397 2.67877 -181.882 5.78168 -181.882H40.3015C43.4045 -181.882 45.9199 -184.397 45.9199 -187.5V-235.42C45.9199 -235.741 46.1794 -236 46.4995 -236C46.8196 -236 47.0791 -235.741 47.0791 -235.42V-187.5C47.0791 -184.397 49.5945 -181.882 52.6975 -181.882H87.2186C90.3215 -181.882 92.8369 -184.397 92.8369 -187.5V-235.42C92.8369 -235.741 93.0964 -236 93.4166 -236C93.7366 -236 93.9962 -235.741 93.9962 -235.42V-187.5C93.9962 -184.397 96.5116 -181.882 99.6146 -181.882H134.134C137.237 -181.882 139.753 -184.397 139.753 -187.5V-235.42C139.753 -235.741 140.012 -236 140.332 -236C140.653 -236 140.912 -235.741 140.912 -235.42V-187.5C140.912 -184.397 143.427 -181.882 146.53 -181.882H181.051C184.154 -181.882 186.67 -184.397 186.67 -187.5V-235.42C186.67 -235.741 186.929 -236 187.249 -236C187.57 -236 187.829 -235.741 187.829 -235.42V-187.5C187.829 -184.397 190.344 -181.882 193.447 -181.882H227.967C231.07 -181.882 233.586 -184.397 233.586 -187.5V-235.42C233.586 -235.741 233.845 -236 234.165 -236C234.485 -236 234.745 -235.741 234.745 -235.42V-187.5C234.745 -184.397 237.26 -181.882 240.363 -181.882H274.884C277.987 -181.882 280.503 -184.397 280.503 -187.5V-235.42C280.503 -235.741 280.762 -236 281.082 -236C281.402 -236 281.662 -235.741 281.662 -235.42V-187.5C281.662 -184.397 284.177 -181.882 287.28 -181.882L321.8 -181.882C324.903 -181.882 327.419 -184.397 327.419 -187.5V-235.42C327.419 -235.741 327.678 -236 327.998 -236C328.318 -236 328.578 -235.741 328.578 -235.42V-187.5C328.578 -184.397 331.093 -181.882 334.196 -181.882H368.717C371.82 -181.882 374.336 -184.397 374.336 -187.5V-235.42C374.336 -235.741 374.595 -236 374.915 -236C375.235 -236 375.495 -235.741 375.495 -235.42V-187.5C375.495 -184.397 378.01 -181.882 381.113 -181.882H415.633C418.736 -181.882 421.251 -184.397 421.251 -187.5V-235.42C421.251 -235.741 421.511 -236 421.831 -236C422.151 -236 422.411 -235.741 422.411 -235.42V-187.5C422.411 -184.397 424.926 -181.882 428.029 -181.882H462.55C465.653 -181.882 468.169 -184.397 468.169 -187.5V-235.42C468.169 -235.741 468.428 -236 468.748 -236C469.068 -236 469.328 -235.741 469.328 -235.42V-187.5C469.328 -184.397 471.843 -181.882 474.946 -181.882H509.466C512.569 -181.882 515.084 -184.397 515.084 -187.5V-235.42C515.084 -235.741 515.344 -236 515.664 -236C515.984 -236 516.244 -235.741 516.244 -235.42V-187.5C516.244 -184.397 518.759 -181.882 521.862 -181.882H556.383C559.486 -181.882 562.001 -184.397 562.001 -187.5V-235.42C562.001 -235.741 562.261 -236 562.581 -236C562.901 -236 563.161 -235.741 563.161 -235.42V-187.5C563.161 -184.397 565.676 -181.882 568.779 -181.882H603.299C606.402 -181.882 608.917 -184.397 608.917 -187.5V-235.42C608.917 -235.741 609.177 -236 609.497 -236C609.817 -236 610.077 -235.741 610.077 -235.42V-187.5C610.077 -184.397 612.592 -181.882 615.695 -181.882H650.216C653.319 -181.882 655.834 -184.397 655.834 -187.5V-235.42C655.834 -235.741 656.094 -236 656.414 -236C656.734 -236 656.994 -235.741 656.994 -235.42V-187.5C656.994 -184.397 659.509 -181.882 662.612 -181.882H697.132C700.235 -181.882 702.75 -184.397 702.75 -187.5V-235.42C702.75 -235.741 703.01 -236 703.33 -236C703.65 -236 703.909 -235.741 703.909 -235.42V-187.5C703.909 -184.397 706.425 -181.882 709.528 -181.882H744.048C747.151 -181.882 749.666 -184.397 749.666 -187.5V-234.083C749.666 -234.403 749.926 -234.663 750.246 -234.663C750.566 -234.663 750.825 -234.403 750.825 -234.083V-187.5C750.825 -184.397 753.341 -181.882 756.444 -181.882H775.331C775.701 -181.882 776 -181.582 776 -181.213C776 -180.844 775.701 -180.545 775.331 -180.545H756.444C753.341 -180.545 750.825 -178.029 750.825 -174.926V-133.381C750.825 -130.278 753.341 -127.762 756.444 -127.762H775.331C775.701 -127.762 776 -127.463 776 -127.094C776 -126.724 775.701 -126.425 775.331 -126.425H756.444C753.341 -126.425 750.825 -123.91 750.825 -120.807V-79.2625C750.825 -76.1595 753.341 -73.644 756.444 -73.644H775.331C775.701 -73.644 776 -73.3447 776 -72.9755C776 -72.6062 775.701 -72.3069 775.331 -72.3069H756.444C753.341 -72.3069 750.825 -69.7914 750.825 -66.6885V-25.1442C750.825 -22.0413 753.341 -19.5259 756.444 -19.5259H775.331C775.701 -19.5259 776 -19.2265 776 -18.8573C776 -18.488 775.701 -18.1887 775.331 -18.1887H756.444C753.341 -18.1887 750.825 -15.6733 750.825 -12.5703V28.9753C750.825 32.0783 753.341 34.5937 756.444 34.5937H775.331C775.701 34.5937 776 34.893 776 35.2623C776 35.6315 775.701 35.9308 775.331 35.9308H756.444C753.341 35.9308 750.825 38.4463 750.825 41.5492L750.825 83.0935C750.825 86.1964 753.341 88.7119 756.444 88.7119H775.331C775.701 88.7119 776 89.0112 776 89.3805C776 89.7497 775.701 90.0491 775.331 90.0491H756.444C753.341 90.0491 750.825 92.5645 750.825 95.6675V137.213C750.825 140.316 753.341 142.831 756.444 142.831H775.331C775.701 142.831 776 143.131 776 143.5C776 143.869 775.701 144.169 775.331 144.169H756.444C753.341 144.169 750.825 146.684 750.825 149.787V191.331C750.825 194.434 753.341 196.95 756.444 196.95H775.331C775.701 196.95 776 197.249 776 197.618C776 197.987 775.701 198.287 775.331 198.287H756.444C753.341 198.287 750.825 200.802 750.825 203.905V245.451C750.825 248.554 753.341 251.069 756.444 251.069H775.331C775.701 251.069 776 251.368 776 251.738C776 252.107 775.701 252.406 775.331 252.406H756.444C753.341 252.406 750.825 254.922 750.825 258.025V299.569C750.825 302.672 753.341 305.187 756.444 305.187H775.331C775.701 305.187 776 305.487 776 305.856C776 306.225 775.701 306.525 775.331 306.525H756.444C753.341 306.525 750.825 309.04 750.825 312.143V353.688C750.825 356.791 753.341 359.307 756.444 359.307H775.331C775.701 359.307 776 359.606 776 359.975C776 360.345 775.701 360.644 775.331 360.644H756.444C753.341 360.644 750.825 363.16 750.825 366.262V407.807C750.825 410.91 753.341 413.425 756.444 413.425H775.331C775.701 413.425 776 413.724 776 414.094C776 414.463 775.701 414.762 775.331 414.762H756.444C753.341 414.762 750.825 417.278 750.825 420.381V461.925C750.825 465.028 753.341 467.543 756.444 467.543H775.331C775.701 467.543 776 467.843 776 468.212C776 468.581 775.701 468.88 775.331 468.88H756.444ZM749.666 461.925C749.666 465.028 747.151 467.543 744.048 467.543H709.527C706.424 467.543 703.908 465.028 703.908 461.925V420.381C703.908 417.278 706.424 414.762 709.527 414.762H744.048C747.151 414.762 749.666 417.278 749.666 420.381V461.925ZM749.666 407.807C749.666 410.91 747.151 413.425 744.048 413.425H709.527C706.424 413.425 703.908 410.91 703.908 407.807V366.262C703.908 363.16 706.424 360.644 709.527 360.644H744.048C747.151 360.644 749.666 363.16 749.666 366.262V407.807ZM749.666 353.688C749.666 356.791 747.151 359.307 744.048 359.307H709.527C706.424 359.307 703.908 356.791 703.908 353.688V312.143C703.908 309.04 706.424 306.525 709.527 306.525H744.048C747.151 306.525 749.666 309.04 749.666 312.143V353.688ZM749.666 299.569C749.666 302.672 747.151 305.187 744.048 305.187H709.527C706.424 305.187 703.908 302.672 703.908 299.569V258.025C703.908 254.922 706.424 252.406 709.527 252.406H744.048C747.151 252.406 749.666 254.922 749.666 258.025V299.569ZM749.666 245.451C749.666 248.554 747.151 251.069 744.048 251.069H709.527C706.424 251.069 703.908 248.554 703.908 245.451V203.905C703.908 200.802 706.424 198.287 709.527 198.287H744.048C747.151 198.287 749.666 200.802 749.666 203.905V245.451ZM749.666 191.331C749.666 194.434 747.151 196.95 744.048 196.95H709.527C706.424 196.95 703.908 194.434 703.908 191.331V149.787C703.908 146.684 706.424 144.169 709.527 144.169H744.048C747.151 144.169 749.666 146.684 749.666 149.787V191.331ZM749.666 137.213C749.666 140.316 747.151 142.831 744.048 142.831H709.527C706.424 142.831 703.908 140.316 703.908 137.213V95.6675C703.908 92.5645 706.424 90.0491 709.527 90.0491H744.048C747.151 90.0491 749.666 92.5645 749.666 95.6675V137.213ZM749.666 83.0935C749.666 86.1964 747.151 88.7119 744.048 88.7119H709.527C706.424 88.7119 703.908 86.1964 703.908 83.0935V41.5492C703.908 38.4463 706.424 35.9308 709.527 35.9308H744.048C747.151 35.9308 749.666 38.4463 749.666 41.5492L749.666 83.0935ZM749.666 28.9753C749.666 32.0783 747.151 34.5937 744.048 34.5937H709.527C706.424 34.5937 703.908 32.0783 703.908 28.9753L703.908 -12.5703C703.908 -15.6733 706.424 -18.1887 709.527 -18.1887H744.048C747.151 -18.1887 749.666 -15.6733 749.666 -12.5703V28.9753ZM749.666 -25.1442C749.666 -22.0413 747.151 -19.5259 744.048 -19.5259H709.527C706.424 -19.5259 703.908 -22.0413 703.908 -25.1442V-66.6885C703.908 -69.7914 706.424 -72.3069 709.527 -72.3069H744.048C747.151 -72.3069 749.666 -69.7914 749.666 -66.6885V-25.1442ZM749.666 -79.2625C749.666 -76.1595 747.151 -73.644 744.048 -73.644H709.527C706.424 -73.644 703.908 -76.1595 703.908 -79.2625V-120.807C703.908 -123.91 706.424 -126.425 709.527 -126.425H744.048C747.151 -126.425 749.666 -123.91 749.666 -120.807V-79.2625ZM749.666 -133.381C749.666 -130.278 747.151 -127.762 744.048 -127.762H709.527C706.424 -127.762 703.908 -130.278 703.908 -133.381V-174.926C703.908 -178.029 706.424 -180.545 709.527 -180.545H744.048C747.151 -180.545 749.666 -178.029 749.666 -174.926V-133.381ZM656.994 461.925C656.994 465.028 659.509 467.543 662.612 467.543H697.132C700.235 467.543 702.75 465.028 702.75 461.925V420.381C702.75 417.278 700.235 414.762 697.132 414.762H662.612C659.509 414.762 656.994 417.278 656.994 420.381V461.925ZM656.994 407.807C656.994 410.91 659.509 413.425 662.612 413.425H697.132C700.235 413.425 702.75 410.91 702.75 407.807V366.262C702.75 363.16 700.235 360.644 697.132 360.644H662.612C659.509 360.644 656.994 363.16 656.994 366.262V407.807ZM656.994 353.688C656.994 356.791 659.509 359.307 662.612 359.307H697.132C700.235 359.307 702.75 356.791 702.75 353.688V312.143C702.75 309.04 700.235 306.525 697.132 306.525H662.612C659.509 306.525 656.994 309.04 656.994 312.143V353.688ZM656.994 299.569C656.994 302.672 659.509 305.187 662.612 305.187H697.132C700.235 305.187 702.75 302.672 702.75 299.569V258.025C702.75 254.922 700.235 252.406 697.132 252.406H662.612C659.509 252.406 656.994 254.922 656.994 258.025V299.569ZM656.994 245.451C656.994 248.554 659.509 251.069 662.612 251.069H697.132C700.235 251.069 702.75 248.554 702.75 245.451V203.905C702.75 200.802 700.235 198.287 697.132 198.287H662.612C659.509 198.287 656.994 200.802 656.994 203.905V245.451ZM656.994 191.331C656.994 194.434 659.509 196.95 662.612 196.95H697.132C700.235 196.95 702.75 194.434 702.75 191.331V149.787C702.75 146.684 700.235 144.169 697.132 144.169H662.612C659.509 144.169 656.994 146.684 656.994 149.787V191.331ZM656.994 137.213C656.994 140.316 659.509 142.831 662.612 142.831H697.132C700.235 142.831 702.75 140.316 702.75 137.213V95.6675C702.75 92.5645 700.235 90.0491 697.132 90.0491H662.612C659.509 90.0491 656.994 92.5645 656.994 95.6675V137.213ZM656.994 83.0935C656.994 86.1964 659.509 88.7119 662.612 88.7119H697.132C700.235 88.7119 702.75 86.1964 702.75 83.0935V41.5492C702.75 38.4463 700.235 35.9308 697.132 35.9308H662.612C659.509 35.9308 656.994 38.4463 656.994 41.5492V83.0935ZM656.994 28.9753C656.994 32.0783 659.509 34.5937 662.612 34.5937H697.132C700.235 34.5937 702.75 32.0783 702.75 28.9753L702.75 -12.5703C702.75 -15.6733 700.235 -18.1887 697.132 -18.1887H662.612C659.509 -18.1887 656.994 -15.6733 656.994 -12.5703L656.994 28.9753ZM656.994 -25.1442C656.994 -22.0413 659.509 -19.5259 662.612 -19.5259H697.132C700.235 -19.5259 702.75 -22.0413 702.75 -25.1442V-66.6885C702.75 -69.7914 700.235 -72.3069 697.132 -72.3069H662.612C659.509 -72.3069 656.994 -69.7914 656.994 -66.6885V-25.1442ZM656.994 -79.2625C656.994 -76.1595 659.509 -73.644 662.612 -73.644H697.132C700.235 -73.644 702.75 -76.1595 702.75 -79.2625V-120.807C702.75 -123.91 700.235 -126.425 697.132 -126.425H662.612C659.509 -126.425 656.994 -123.91 656.994 -120.807V-79.2625ZM656.994 -133.381C656.994 -130.278 659.509 -127.762 662.612 -127.762H697.132C700.235 -127.762 702.75 -130.278 702.75 -133.381V-174.926C702.75 -178.029 700.235 -180.545 697.132 -180.545H662.612C659.509 -180.545 656.994 -178.029 656.994 -174.926V-133.381ZM650.216 -180.545C653.319 -180.545 655.834 -178.029 655.834 -174.926V-133.381C655.834 -130.278 653.319 -127.762 650.216 -127.762H615.695C612.592 -127.762 610.077 -130.278 610.077 -133.381V-174.926C610.077 -178.029 612.592 -180.545 615.695 -180.545H650.216ZM650.216 -126.425C653.319 -126.425 655.834 -123.91 655.834 -120.807V-79.2625C655.834 -76.1595 653.319 -73.644 650.216 -73.644H615.695C612.592 -73.644 610.077 -76.1595 610.077 -79.2625V-120.807C610.077 -123.91 612.592 -126.425 615.695 -126.425H650.216ZM650.216 -72.3069C653.319 -72.3069 655.834 -69.7914 655.834 -66.6885V-25.1442C655.834 -22.0413 653.319 -19.5259 650.216 -19.5259H615.695C612.592 -19.5259 610.077 -22.0413 610.077 -25.1442L610.077 -66.6885C610.077 -69.7914 612.592 -72.3069 615.695 -72.3069H650.216ZM650.216 -18.1887C653.319 -18.1887 655.834 -15.6733 655.834 -12.5703L655.834 28.9753C655.834 32.0783 653.319 34.5937 650.216 34.5937H615.695C612.592 34.5937 610.077 32.0783 610.077 28.9753V-12.5703C610.077 -15.6733 612.592 -18.1887 615.695 -18.1887H650.216ZM650.216 35.9308C653.319 35.9308 655.834 38.4463 655.834 41.5492V83.0935C655.834 86.1964 653.319 88.7119 650.216 88.7119H615.695C612.592 88.7119 610.077 86.1964 610.077 83.0935V41.5492C610.077 38.4463 612.592 35.9308 615.695 35.9308H650.216ZM650.216 90.0491C653.319 90.0491 655.834 92.5645 655.834 95.6675V137.213C655.834 140.316 653.319 142.831 650.216 142.831H615.695C612.592 142.831 610.077 140.316 610.077 137.213V95.6675C610.077 92.5645 612.592 90.0491 615.695 90.0491H650.216ZM650.216 144.169C653.319 144.169 655.834 146.684 655.834 149.787V191.331C655.834 194.434 653.319 196.95 650.216 196.95H615.695C612.592 196.95 610.077 194.434 610.077 191.331V149.787C610.077 146.684 612.592 144.169 615.695 144.169H650.216ZM650.216 198.287C653.319 198.287 655.834 200.802 655.834 203.905V245.451C655.834 248.554 653.319 251.069 650.216 251.069H615.695C612.592 251.069 610.077 248.554 610.077 245.451V203.905C610.077 200.802 612.592 198.287 615.695 198.287H650.216ZM650.216 252.406C653.319 252.406 655.834 254.922 655.834 258.025V299.569C655.834 302.672 653.319 305.187 650.216 305.187H615.695C612.592 305.187 610.077 302.672 610.077 299.569V258.025C610.077 254.922 612.592 252.406 615.695 252.406H650.216ZM650.216 306.525C653.319 306.525 655.834 309.04 655.834 312.143V353.688C655.834 356.791 653.319 359.307 650.216 359.307H615.695C612.592 359.307 610.077 356.791 610.077 353.688V312.143C610.077 309.04 612.592 306.525 615.695 306.525H650.216ZM650.216 360.644C653.319 360.644 655.834 363.16 655.834 366.262V407.807C655.834 410.91 653.319 413.425 650.216 413.425H615.695C612.592 413.425 610.077 410.91 610.077 407.807V366.262C610.077 363.16 612.592 360.644 615.695 360.644H650.216ZM650.216 414.762C653.319 414.762 655.834 417.278 655.834 420.381V461.925C655.834 465.028 653.319 467.543 650.216 467.543H615.695C612.592 467.543 610.077 465.028 610.077 461.925V420.381C610.077 417.278 612.592 414.762 615.695 414.762H650.216ZM563.161 461.925C563.161 465.028 565.676 467.543 568.779 467.543H603.299C606.402 467.543 608.917 465.028 608.917 461.925V420.381C608.917 417.278 606.402 414.762 603.299 414.762H568.779C565.676 414.762 563.161 417.278 563.161 420.381V461.925ZM563.161 407.807C563.161 410.91 565.676 413.425 568.779 413.425H603.299C606.402 413.425 608.917 410.91 608.917 407.807V366.262C608.917 363.16 606.402 360.644 603.299 360.644H568.779C565.676 360.644 563.161 363.16 563.161 366.262V407.807ZM563.161 353.688C563.161 356.791 565.676 359.307 568.779 359.307H603.299C606.402 359.307 608.917 356.791 608.917 353.688V312.143C608.917 309.04 606.402 306.525 603.299 306.525H568.779C565.676 306.525 563.161 309.04 563.161 312.143V353.688ZM563.161 299.569C563.161 302.672 565.676 305.187 568.779 305.187H603.299C606.402 305.187 608.917 302.672 608.917 299.569V258.025C608.917 254.922 606.402 252.406 603.299 252.406H568.779C565.676 252.406 563.161 254.922 563.161 258.025V299.569ZM563.161 245.451C563.161 248.554 565.676 251.069 568.779 251.069H603.299C606.402 251.069 608.917 248.554 608.917 245.451V203.905C608.917 200.802 606.402 198.287 603.299 198.287H568.779C565.676 198.287 563.161 200.802 563.161 203.905V245.451ZM563.161 191.331C563.161 194.434 565.676 196.95 568.779 196.95H603.299C606.402 196.95 608.917 194.434 608.917 191.331V149.787C608.917 146.684 606.402 144.169 603.299 144.169H568.779C565.676 144.169 563.161 146.684 563.161 149.787V191.331ZM563.161 137.213C563.161 140.316 565.676 142.831 568.779 142.831H603.299C606.402 142.831 608.917 140.316 608.917 137.213V95.6675C608.917 92.5645 606.402 90.0491 603.299 90.0491H568.779C565.676 90.0491 563.161 92.5645 563.161 95.6675V137.213ZM563.161 83.0935C563.161 86.1964 565.676 88.7119 568.779 88.7119H603.299C606.402 88.7119 608.917 86.1964 608.917 83.0935V41.5492C608.917 38.4463 606.402 35.9308 603.299 35.9308H568.779C565.676 35.9308 563.161 38.4463 563.161 41.5492V83.0935ZM563.161 28.9753C563.161 32.0783 565.676 34.5937 568.779 34.5937H603.299C606.402 34.5937 608.917 32.0783 608.917 28.9753V-12.5703C608.917 -15.6733 606.402 -18.1887 603.299 -18.1887H568.779C565.676 -18.1887 563.161 -15.6733 563.161 -12.5703V28.9753ZM563.161 -25.1442C563.161 -22.0413 565.676 -19.5259 568.779 -19.5259H603.299C606.402 -19.5259 608.917 -22.0413 608.917 -25.1442L608.917 -66.6885C608.917 -69.7914 606.402 -72.3069 603.299 -72.3069H568.779C565.676 -72.3069 563.161 -69.7914 563.161 -66.6885L563.161 -25.1442ZM563.161 -79.2625C563.161 -76.1595 565.676 -73.644 568.779 -73.644H603.299C606.402 -73.644 608.917 -76.1595 608.917 -79.2625V-120.807C608.917 -123.91 606.402 -126.425 603.299 -126.425H568.779C565.676 -126.425 563.161 -123.91 563.161 -120.807V-79.2625ZM563.161 -133.381C563.161 -130.278 565.676 -127.762 568.779 -127.762H603.299C606.402 -127.762 608.917 -130.278 608.917 -133.381V-174.926C608.917 -178.029 606.402 -180.545 603.299 -180.545H568.779C565.676 -180.545 563.161 -178.029 563.161 -174.926V-133.381ZM556.383 -180.545C559.486 -180.545 562.001 -178.029 562.001 -174.926V-133.381C562.001 -130.278 559.486 -127.762 556.383 -127.762H521.862C518.759 -127.762 516.244 -130.278 516.244 -133.381L516.244 -174.926C516.244 -178.029 518.759 -180.545 521.862 -180.545H556.383ZM556.383 -126.425C559.486 -126.425 562.001 -123.91 562.001 -120.807V-79.2625C562.001 -76.1595 559.486 -73.644 556.383 -73.644H521.862C518.759 -73.644 516.244 -76.1595 516.244 -79.2625V-120.807C516.244 -123.91 518.759 -126.425 521.862 -126.425H556.383ZM556.383 -72.3069C559.486 -72.3069 562.001 -69.7914 562.001 -66.6885L562.001 -25.1442C562.001 -22.0413 559.486 -19.5259 556.383 -19.5259H521.862C518.759 -19.5259 516.244 -22.0413 516.244 -25.1442V-66.6885C516.244 -69.7914 518.759 -72.3069 521.862 -72.3069H556.383ZM556.383 -18.1887C559.486 -18.1887 562.001 -15.6733 562.001 -12.5703V28.9753C562.001 32.0783 559.486 34.5937 556.383 34.5937L521.862 34.5937C518.759 34.5937 516.244 32.0783 516.244 28.9753V-12.5703C516.244 -15.6733 518.759 -18.1887 521.862 -18.1887H556.383ZM556.383 35.9308C559.486 35.9308 562.001 38.4463 562.001 41.5492V83.0935C562.001 86.1964 559.486 88.7119 556.383 88.7119L521.862 88.7119C518.759 88.7119 516.244 86.1964 516.244 83.0935V41.5492C516.244 38.4463 518.759 35.9308 521.862 35.9308L556.383 35.9308ZM556.383 90.0491C559.486 90.0491 562.001 92.5645 562.001 95.6675V137.213C562.001 140.316 559.486 142.831 556.383 142.831L521.862 142.831C518.759 142.831 516.244 140.316 516.244 137.213V95.6675C516.244 92.5645 518.759 90.0491 521.862 90.0491L556.383 90.0491ZM556.383 144.169C559.486 144.169 562.001 146.684 562.001 149.787V191.331C562.001 194.434 559.486 196.95 556.383 196.95L521.862 196.95C518.759 196.95 516.244 194.434 516.244 191.331V149.787C516.244 146.684 518.759 144.169 521.862 144.169L556.383 144.169ZM556.383 198.287C559.486 198.287 562.001 200.802 562.001 203.905V245.451C562.001 248.554 559.486 251.069 556.383 251.069L521.862 251.069C518.759 251.069 516.244 248.554 516.244 245.451V203.905C516.244 200.802 518.759 198.287 521.862 198.287L556.383 198.287ZM556.383 252.406C559.486 252.406 562.001 254.922 562.001 258.025V299.569C562.001 302.672 559.486 305.187 556.383 305.187H521.862C518.759 305.187 516.244 302.672 516.244 299.569V258.025C516.244 254.922 518.759 252.406 521.862 252.406L556.383 252.406ZM556.383 306.525C559.486 306.525 562.001 309.04 562.001 312.143V353.688C562.001 356.791 559.486 359.307 556.383 359.307H521.862C518.759 359.307 516.244 356.791 516.244 353.688V312.143C516.244 309.04 518.759 306.525 521.862 306.525H556.383ZM556.383 360.644C559.486 360.644 562.001 363.16 562.001 366.262V407.807C562.001 410.91 559.486 413.425 556.383 413.425H521.862C518.759 413.425 516.244 410.91 516.244 407.807V366.262C516.244 363.16 518.759 360.644 521.862 360.644H556.383ZM556.383 414.762C559.486 414.762 562.001 417.278 562.001 420.381V461.925C562.001 465.028 559.486 467.543 556.383 467.543H521.862C518.759 467.543 516.244 465.028 516.244 461.925V420.381C516.244 417.278 518.759 414.762 521.862 414.762H556.383ZM469.328 461.925C469.328 465.028 471.843 467.543 474.946 467.543H509.466C512.569 467.543 515.084 465.028 515.084 461.925V420.381C515.084 417.278 512.569 414.762 509.466 414.762L474.946 414.762C471.843 414.762 469.328 417.278 469.328 420.381V461.925ZM469.328 407.807C469.328 410.91 471.843 413.425 474.946 413.425L509.466 413.425C512.569 413.425 515.084 410.91 515.084 407.807V366.262C515.084 363.16 512.569 360.644 509.466 360.644H474.946C471.843 360.644 469.328 363.16 469.328 366.262V407.807ZM469.328 353.688C469.328 356.791 471.843 359.307 474.946 359.307H509.466C512.569 359.307 515.084 356.791 515.084 353.688V312.143C515.084 309.04 512.569 306.525 509.466 306.525H474.946C471.843 306.525 469.328 309.04 469.328 312.143V353.688ZM469.328 299.569C469.328 302.672 471.843 305.187 474.946 305.187H509.466C512.569 305.187 515.084 302.672 515.084 299.569V258.025C515.084 254.922 512.569 252.406 509.466 252.406H474.946C471.843 252.406 469.328 254.922 469.328 258.025L469.328 299.569ZM469.328 245.451C469.328 248.554 471.843 251.069 474.946 251.069H509.466C512.569 251.069 515.084 248.554 515.084 245.451V203.905C515.084 200.802 512.569 198.287 509.466 198.287H474.946C471.843 198.287 469.328 200.802 469.328 203.905V245.451ZM469.328 191.331C469.328 194.434 471.843 196.95 474.946 196.95H509.466C512.569 196.95 515.084 194.434 515.084 191.331V149.787C515.084 146.684 512.569 144.169 509.466 144.169H474.946C471.843 144.169 469.328 146.684 469.328 149.787V191.331ZM469.328 137.213C469.328 140.316 471.843 142.831 474.946 142.831H509.466C512.569 142.831 515.084 140.316 515.084 137.213V95.6675C515.084 92.5645 512.569 90.0491 509.466 90.0491H474.946C471.843 90.0491 469.328 92.5645 469.328 95.6675V137.213ZM469.328 83.0935C469.328 86.1964 471.843 88.7119 474.946 88.7119H509.466C512.569 88.7119 515.084 86.1964 515.084 83.0935V41.5492C515.084 38.4463 512.569 35.9308 509.466 35.9308H474.946C471.843 35.9308 469.328 38.4463 469.328 41.5492V83.0935ZM469.328 28.9753C469.328 32.0783 471.843 34.5937 474.946 34.5937H509.466C512.569 34.5937 515.084 32.0783 515.084 28.9753V-12.5703C515.084 -15.6733 512.569 -18.1887 509.466 -18.1887H474.946C471.843 -18.1887 469.328 -15.6733 469.328 -12.5703V28.9753ZM469.328 -25.1442C469.328 -22.0413 471.843 -19.5259 474.946 -19.5259H509.466C512.569 -19.5259 515.084 -22.0413 515.084 -25.1442V-66.6885C515.084 -69.7914 512.569 -72.3069 509.466 -72.3069H474.946C471.843 -72.3069 469.328 -69.7914 469.328 -66.6885V-25.1442ZM469.328 -79.2625C469.328 -76.1595 471.843 -73.644 474.946 -73.644H509.466C512.569 -73.644 515.084 -76.1595 515.084 -79.2625V-120.807C515.084 -123.91 512.569 -126.425 509.466 -126.425H474.946C471.843 -126.425 469.328 -123.91 469.328 -120.807V-79.2625ZM469.328 -133.381C469.328 -130.278 471.843 -127.762 474.946 -127.762H509.466C512.569 -127.762 515.084 -130.278 515.084 -133.381L515.084 -174.926C515.084 -178.029 512.569 -180.545 509.466 -180.545H474.946C471.843 -180.545 469.328 -178.029 469.328 -174.926L469.328 -133.381ZM462.55 -180.545C465.653 -180.545 468.169 -178.029 468.169 -174.926L468.169 -133.381C468.169 -130.278 465.653 -127.762 462.55 -127.762H428.029C424.926 -127.762 422.411 -130.278 422.411 -133.381L422.411 -174.926C422.411 -178.029 424.926 -180.545 428.029 -180.545H462.55ZM462.55 -126.425C465.653 -126.425 468.169 -123.91 468.169 -120.807V-79.2625C468.169 -76.1595 465.653 -73.644 462.55 -73.644H428.029C424.926 -73.644 422.411 -76.1595 422.411 -79.2625V-120.807C422.411 -123.91 424.926 -126.425 428.029 -126.425H462.55ZM462.55 -72.3069C465.653 -72.3069 468.169 -69.7914 468.169 -66.6885V-25.1442C468.169 -22.0413 465.653 -19.5259 462.55 -19.5259H428.029C424.926 -19.5259 422.411 -22.0413 422.411 -25.1442V-66.6885C422.411 -69.7914 424.926 -72.3069 428.029 -72.3069H462.55ZM462.55 -18.1887C465.653 -18.1887 468.169 -15.6733 468.169 -12.5703V28.9753C468.169 32.0783 465.653 34.5937 462.55 34.5937H428.029C424.926 34.5937 422.411 32.0783 422.411 28.9753V-12.5703C422.411 -15.6733 424.926 -18.1887 428.029 -18.1887H462.55ZM462.55 35.9308C465.653 35.9308 468.169 38.4463 468.169 41.5492V83.0935C468.169 86.1964 465.653 88.7119 462.55 88.7119H428.029C424.926 88.7119 422.411 86.1964 422.411 83.0935V41.5492C422.411 38.4463 424.926 35.9308 428.029 35.9308H462.55ZM462.55 90.0491C465.653 90.0491 468.169 92.5645 468.169 95.6675V137.213C468.169 140.316 465.653 142.831 462.55 142.831H428.029C424.926 142.831 422.411 140.316 422.411 137.213V95.6675C422.411 92.5645 424.926 90.0491 428.029 90.0491H462.55ZM462.55 144.169C465.653 144.169 468.169 146.684 468.169 149.787V191.331C468.169 194.434 465.653 196.95 462.55 196.95H428.029C424.926 196.95 422.411 194.434 422.411 191.331V149.787C422.411 146.684 424.926 144.169 428.029 144.169H462.55ZM462.55 198.287C465.653 198.287 468.169 200.802 468.169 203.905V245.451C468.169 248.554 465.653 251.069 462.55 251.069H428.029C424.926 251.069 422.411 248.554 422.411 245.451V203.905C422.411 200.802 424.926 198.287 428.029 198.287H462.55ZM462.55 252.406C465.653 252.406 468.169 254.922 468.169 258.025L468.169 299.569C468.169 302.672 465.653 305.187 462.55 305.187H428.029C424.926 305.187 422.411 302.672 422.411 299.569L422.411 258.025C422.411 254.922 424.926 252.406 428.029 252.406H462.55ZM462.55 306.525C465.653 306.525 468.169 309.04 468.169 312.143V353.688C468.169 356.791 465.653 359.307 462.55 359.307H428.029C424.926 359.307 422.411 356.791 422.411 353.688V312.143C422.411 309.04 424.926 306.525 428.029 306.525H462.55ZM462.55 360.644C465.653 360.644 468.169 363.16 468.169 366.262V407.807C468.169 410.91 465.653 413.425 462.55 413.425H428.029C424.926 413.425 422.411 410.91 422.411 407.807V366.262C422.411 363.16 424.926 360.644 428.029 360.644H462.55ZM462.55 414.762C465.653 414.762 468.169 417.278 468.169 420.381V461.925C468.169 465.028 465.653 467.543 462.55 467.543H428.029C424.926 467.543 422.411 465.028 422.411 461.925V420.381C422.411 417.278 424.926 414.762 428.029 414.762H462.55ZM375.495 461.925C375.495 465.028 378.01 467.543 381.113 467.543H415.633C418.736 467.543 421.251 465.028 421.251 461.925V420.381C421.251 417.278 418.736 414.762 415.633 414.762H381.113C378.01 414.762 375.495 417.278 375.495 420.381V461.925ZM375.495 407.807C375.495 410.91 378.01 413.425 381.113 413.425H415.633C418.736 413.425 421.251 410.91 421.251 407.807V366.262C421.251 363.16 418.736 360.644 415.633 360.644H381.113C378.01 360.644 375.495 363.16 375.495 366.262V407.807ZM375.495 353.688C375.495 356.791 378.01 359.307 381.113 359.307H415.633C418.736 359.307 421.251 356.791 421.251 353.688V312.143C421.251 309.04 418.736 306.525 415.633 306.525H381.113C378.01 306.525 375.495 309.04 375.495 312.143V353.688ZM375.495 299.569C375.495 302.672 378.01 305.187 381.113 305.187H415.633C418.736 305.187 421.251 302.672 421.251 299.569L421.251 258.025C421.251 254.922 418.736 252.406 415.633 252.406H381.113C378.01 252.406 375.495 254.922 375.495 258.025L375.495 299.569ZM375.495 245.451C375.495 248.554 378.01 251.069 381.113 251.069H415.633C418.736 251.069 421.251 248.554 421.251 245.451V203.905C421.251 200.802 418.736 198.287 415.633 198.287H381.113C378.01 198.287 375.495 200.802 375.495 203.905V245.451ZM375.495 191.331C375.495 194.434 378.01 196.95 381.113 196.95H415.633C418.736 196.95 421.251 194.434 421.251 191.331V149.787C421.251 146.684 418.736 144.169 415.633 144.169H381.113C378.01 144.169 375.495 146.684 375.495 149.787V191.331ZM375.495 137.213C375.495 140.316 378.01 142.831 381.113 142.831H415.633C418.736 142.831 421.251 140.316 421.251 137.213V95.6675C421.251 92.5645 418.736 90.0491 415.633 90.0491H381.113C378.01 90.0491 375.495 92.5645 375.495 95.6675V137.213ZM375.495 83.0935C375.495 86.1964 378.01 88.7119 381.113 88.7119H415.633C418.736 88.7119 421.251 86.1964 421.251 83.0935V41.5492C421.251 38.4463 418.736 35.9308 415.633 35.9308H381.113C378.01 35.9308 375.495 38.4463 375.495 41.5492V83.0935ZM375.495 28.9753C375.495 32.0783 378.01 34.5937 381.113 34.5937H415.633C418.736 34.5937 421.251 32.0783 421.251 28.9753V-12.5703C421.251 -15.6733 418.736 -18.1887 415.633 -18.1887H381.113C378.01 -18.1887 375.495 -15.6733 375.495 -12.5703V28.9753ZM375.495 -25.1442C375.495 -22.0413 378.01 -19.5259 381.113 -19.5259H415.633C418.736 -19.5259 421.251 -22.0413 421.251 -25.1442V-66.6885C421.251 -69.7914 418.736 -72.3069 415.633 -72.3069H381.113C378.01 -72.3069 375.495 -69.7914 375.495 -66.6885V-25.1442ZM375.495 -79.2625C375.495 -76.1595 378.01 -73.644 381.113 -73.644H415.633C418.736 -73.644 421.251 -76.1595 421.251 -79.2625V-120.807C421.251 -123.91 418.736 -126.425 415.633 -126.425H381.113C378.01 -126.425 375.495 -123.91 375.495 -120.807V-79.2625ZM375.495 -133.381C375.495 -130.278 378.01 -127.762 381.113 -127.762H415.633C418.736 -127.762 421.251 -130.278 421.251 -133.381L421.251 -174.926C421.251 -178.029 418.736 -180.545 415.633 -180.545H381.113C378.01 -180.545 375.495 -178.029 375.495 -174.926L375.495 -133.381ZM368.717 -180.545C371.82 -180.545 374.336 -178.029 374.336 -174.926L374.336 -133.381C374.336 -130.278 371.82 -127.762 368.717 -127.762H334.196C331.093 -127.762 328.578 -130.278 328.578 -133.381L328.578 -174.926C328.578 -178.029 331.093 -180.545 334.196 -180.545H368.717ZM368.717 -126.425C371.82 -126.425 374.336 -123.91 374.336 -120.807V-79.2625C374.336 -76.1595 371.82 -73.644 368.717 -73.644H334.196C331.093 -73.644 328.578 -76.1595 328.578 -79.2625V-120.807C328.578 -123.91 331.093 -126.425 334.196 -126.425H368.717ZM368.717 -72.3069C371.82 -72.3069 374.336 -69.7914 374.336 -66.6885V-25.1442C374.336 -22.0413 371.82 -19.5259 368.717 -19.5259H334.196C331.093 -19.5259 328.578 -22.0413 328.578 -25.1442V-66.6885C328.578 -69.7914 331.093 -72.3069 334.196 -72.3069H368.717ZM368.717 -18.1887C371.82 -18.1887 374.336 -15.6733 374.336 -12.5703V28.9753C374.336 32.0783 371.82 34.5937 368.717 34.5937H334.196C331.093 34.5937 328.578 32.0783 328.578 28.9753V-12.5703C328.578 -15.6733 331.093 -18.1887 334.196 -18.1887H368.717ZM368.717 35.9308C371.82 35.9308 374.336 38.4463 374.336 41.5492V83.0935C374.336 86.1964 371.82 88.7119 368.717 88.7119H334.196C331.093 88.7119 328.578 86.1964 328.578 83.0935V41.5492C328.578 38.4463 331.093 35.9308 334.196 35.9308H368.717ZM368.717 90.0491C371.82 90.0491 374.336 92.5645 374.336 95.6675V137.213C374.336 140.316 371.82 142.831 368.717 142.831H334.196C331.093 142.831 328.578 140.316 328.578 137.213V95.6675C328.578 92.5645 331.093 90.0491 334.196 90.0491H368.717ZM368.717 144.169C371.82 144.169 374.336 146.684 374.336 149.787V191.331C374.336 194.434 371.82 196.95 368.717 196.95H334.196C331.093 196.95 328.578 194.434 328.578 191.331V149.787C328.578 146.684 331.093 144.169 334.196 144.169H368.717ZM368.717 198.287C371.82 198.287 374.336 200.802 374.336 203.905V245.451C374.336 248.554 371.82 251.069 368.717 251.069H334.196C331.093 251.069 328.578 248.554 328.578 245.451V203.905C328.578 200.802 331.093 198.287 334.196 198.287H368.717ZM368.717 252.406C371.82 252.406 374.336 254.922 374.336 258.025L374.336 299.569C374.336 302.672 371.82 305.187 368.717 305.187H334.196C331.093 305.187 328.578 302.672 328.578 299.569L328.578 258.025C328.578 254.922 331.093 252.406 334.196 252.406H368.717ZM368.717 306.525C371.82 306.525 374.336 309.04 374.336 312.143V353.688C374.336 356.791 371.82 359.307 368.717 359.307H334.196C331.093 359.307 328.578 356.791 328.578 353.688V312.143C328.578 309.04 331.093 306.525 334.196 306.525H368.717ZM368.717 360.644C371.82 360.644 374.336 363.16 374.336 366.262V407.807C374.336 410.91 371.82 413.425 368.717 413.425H334.196C331.093 413.425 328.578 410.91 328.578 407.807V366.262C328.578 363.16 331.093 360.644 334.196 360.644H368.717ZM368.717 414.762C371.82 414.762 374.336 417.278 374.336 420.381V461.925C374.336 465.028 371.82 467.543 368.717 467.543H334.196C331.093 467.543 328.578 465.028 328.578 461.925V420.381C328.578 417.278 331.093 414.762 334.196 414.762H368.717ZM281.662 461.925C281.662 465.028 284.177 467.543 287.28 467.543H321.8C324.903 467.543 327.419 465.028 327.419 461.925V420.381C327.419 417.278 324.903 414.762 321.8 414.762H287.28C284.177 414.762 281.662 417.278 281.662 420.381V461.925ZM281.662 407.807C281.662 410.91 284.177 413.425 287.28 413.425H321.8C324.903 413.425 327.419 410.91 327.419 407.807V366.262C327.419 363.16 324.903 360.644 321.8 360.644H287.28C284.177 360.644 281.662 363.16 281.662 366.262V407.807ZM281.662 353.688C281.662 356.791 284.177 359.307 287.28 359.307H321.8C324.903 359.307 327.419 356.791 327.419 353.688V312.143C327.419 309.04 324.903 306.525 321.8 306.525H287.28C284.177 306.525 281.662 309.04 281.662 312.143V353.688ZM281.662 299.569C281.662 302.672 284.177 305.187 287.28 305.187H321.8C324.903 305.187 327.419 302.672 327.419 299.569L327.419 258.025C327.419 254.922 324.903 252.406 321.8 252.406H287.28C284.177 252.406 281.662 254.922 281.662 258.025L281.662 299.569ZM281.662 245.451C281.662 248.554 284.177 251.069 287.28 251.069H321.8C324.903 251.069 327.419 248.554 327.419 245.451V203.905C327.419 200.802 324.903 198.287 321.8 198.287H287.28C284.177 198.287 281.662 200.802 281.662 203.905V245.451ZM281.662 191.331C281.662 194.434 284.177 196.95 287.28 196.95H321.8C324.903 196.95 327.419 194.434 327.419 191.331V149.787C327.419 146.684 324.903 144.169 321.8 144.169H287.28C284.177 144.169 281.662 146.684 281.662 149.787V191.331ZM281.662 137.213C281.662 140.316 284.177 142.831 287.28 142.831H321.8C324.903 142.831 327.419 140.316 327.419 137.213V95.6675C327.419 92.5645 324.903 90.0491 321.8 90.0491H287.28C284.177 90.0491 281.662 92.5645 281.662 95.6675V137.213ZM281.662 83.0935C281.662 86.1964 284.177 88.7119 287.28 88.7119H321.8C324.903 88.7119 327.419 86.1964 327.419 83.0935V41.5492C327.419 38.4463 324.903 35.9308 321.8 35.9308H287.28C284.177 35.9308 281.662 38.4463 281.662 41.5492V83.0935ZM281.662 28.9753C281.662 32.0783 284.177 34.5937 287.28 34.5937H321.8C324.903 34.5937 327.419 32.0783 327.419 28.9753V-12.5703C327.419 -15.6733 324.903 -18.1887 321.8 -18.1887L287.28 -18.1887C284.177 -18.1887 281.662 -15.6733 281.662 -12.5703V28.9753ZM281.662 -25.1442C281.662 -22.0413 284.177 -19.5259 287.28 -19.5259L321.8 -19.5259C324.903 -19.5259 327.419 -22.0413 327.419 -25.1442V-66.6885C327.419 -69.7914 324.903 -72.3069 321.8 -72.3069L287.28 -72.3069C284.177 -72.3069 281.662 -69.7914 281.662 -66.6885V-25.1442ZM281.662 -79.2625C281.662 -76.1595 284.177 -73.644 287.28 -73.644L321.8 -73.644C324.903 -73.644 327.419 -76.1595 327.419 -79.2625V-120.807C327.419 -123.91 324.903 -126.425 321.8 -126.425L287.28 -126.425C284.177 -126.425 281.662 -123.91 281.662 -120.807V-79.2625ZM281.662 -133.381C281.662 -130.278 284.177 -127.762 287.28 -127.762L321.8 -127.762C324.903 -127.762 327.419 -130.278 327.419 -133.381L327.419 -174.926C327.419 -178.029 324.903 -180.545 321.8 -180.545L287.28 -180.545C284.177 -180.545 281.662 -178.029 281.662 -174.926L281.662 -133.381ZM274.884 -180.545C277.987 -180.545 280.503 -178.029 280.503 -174.926L280.503 -133.381C280.503 -130.278 277.987 -127.762 274.884 -127.762H240.363C237.26 -127.762 234.745 -130.278 234.745 -133.381V-174.926C234.745 -178.029 237.26 -180.545 240.363 -180.545H274.884ZM274.884 -126.425C277.987 -126.425 280.503 -123.91 280.503 -120.807V-79.2625C280.503 -76.1595 277.987 -73.644 274.884 -73.644H240.363C237.26 -73.644 234.745 -76.1595 234.745 -79.2625V-120.807C234.745 -123.91 237.26 -126.425 240.363 -126.425H274.884ZM274.884 -72.3069C277.987 -72.3069 280.503 -69.7914 280.503 -66.6885V-25.1442C280.503 -22.0413 277.987 -19.5259 274.884 -19.5259H240.363C237.26 -19.5259 234.745 -22.0413 234.745 -25.1442V-66.6885C234.745 -69.7914 237.26 -72.3069 240.363 -72.3069H274.884ZM274.884 -18.1887C277.987 -18.1887 280.503 -15.6733 280.503 -12.5703V28.9753C280.503 32.0783 277.987 34.5937 274.884 34.5937H240.363C237.26 34.5937 234.745 32.0783 234.745 28.9753V-12.5703C234.745 -15.6733 237.26 -18.1887 240.363 -18.1887H274.884ZM274.884 35.9308C277.987 35.9308 280.503 38.4463 280.503 41.5492V83.0935C280.503 86.1964 277.987 88.7119 274.884 88.7119H240.363C237.26 88.7119 234.745 86.1964 234.745 83.0935L234.745 41.5492C234.745 38.4463 237.26 35.9308 240.363 35.9308H274.884ZM274.884 90.0491C277.987 90.0491 280.503 92.5645 280.503 95.6675V137.213C280.503 140.316 277.987 142.831 274.884 142.831H240.363C237.26 142.831 234.745 140.316 234.745 137.213V95.6675C234.745 92.5645 237.26 90.0491 240.363 90.0491H274.884ZM274.884 144.169C277.987 144.169 280.503 146.684 280.503 149.787V191.331C280.503 194.434 277.987 196.95 274.884 196.95H240.363C237.26 196.95 234.745 194.434 234.745 191.331V149.787C234.745 146.684 237.26 144.169 240.363 144.169H274.884ZM274.884 198.287C277.987 198.287 280.503 200.802 280.503 203.905V245.451C280.503 248.554 277.987 251.069 274.884 251.069H240.363C237.26 251.069 234.745 248.554 234.745 245.451V203.905C234.745 200.802 237.26 198.287 240.363 198.287H274.884ZM274.884 252.406C277.987 252.406 280.503 254.922 280.503 258.025L280.503 299.569C280.503 302.672 277.987 305.187 274.884 305.187H240.363C237.26 305.187 234.745 302.672 234.745 299.569V258.025C234.745 254.922 237.26 252.406 240.363 252.406H274.884ZM274.884 306.525C277.987 306.525 280.503 309.04 280.503 312.143V353.688C280.503 356.791 277.987 359.307 274.884 359.307H240.363C237.26 359.307 234.745 356.791 234.745 353.688V312.143C234.745 309.04 237.26 306.525 240.363 306.525H274.884ZM274.884 360.644C277.987 360.644 280.503 363.16 280.503 366.262V407.807C280.503 410.91 277.987 413.425 274.884 413.425H240.363C237.26 413.425 234.745 410.91 234.745 407.807V366.262C234.745 363.16 237.26 360.644 240.363 360.644H274.884ZM274.884 414.762C277.987 414.762 280.503 417.278 280.503 420.381V461.925C280.503 465.028 277.987 467.543 274.884 467.543H240.363C237.26 467.543 234.745 465.028 234.745 461.925V420.381C234.745 417.278 237.26 414.762 240.363 414.762H274.884ZM187.829 461.925C187.829 465.028 190.344 467.543 193.447 467.543H227.967C231.07 467.543 233.586 465.028 233.586 461.925V420.381C233.586 417.278 231.07 414.762 227.967 414.762H193.447C190.344 414.762 187.829 417.278 187.829 420.381V461.925ZM187.829 407.807C187.829 410.91 190.344 413.425 193.447 413.425H227.967C231.07 413.425 233.586 410.91 233.586 407.807V366.262C233.586 363.16 231.07 360.644 227.967 360.644L193.447 360.644C190.344 360.644 187.829 363.16 187.829 366.262V407.807ZM187.829 353.688C187.829 356.791 190.344 359.307 193.447 359.307L227.967 359.307C231.07 359.307 233.586 356.791 233.586 353.688V312.143C233.586 309.04 231.07 306.525 227.967 306.525L193.447 306.525C190.344 306.525 187.829 309.04 187.829 312.143V353.688ZM187.829 299.569C187.829 302.672 190.344 305.187 193.447 305.187L227.967 305.187C231.07 305.187 233.586 302.672 233.586 299.569V258.025C233.586 254.922 231.07 252.406 227.967 252.406H193.447C190.344 252.406 187.829 254.922 187.829 258.025V299.569ZM187.829 245.451C187.829 248.554 190.344 251.069 193.447 251.069H227.967C231.07 251.069 233.586 248.554 233.586 245.451V203.905C233.586 200.802 231.07 198.287 227.967 198.287H193.447C190.344 198.287 187.829 200.802 187.829 203.905V245.451ZM187.829 191.331C187.829 194.434 190.344 196.95 193.447 196.95H227.967C231.07 196.95 233.586 194.434 233.586 191.331V149.787C233.586 146.684 231.07 144.169 227.967 144.169H193.447C190.344 144.169 187.829 146.684 187.829 149.787V191.331ZM187.829 137.213C187.829 140.316 190.344 142.831 193.447 142.831H227.967C231.07 142.831 233.586 140.316 233.586 137.213V95.6675C233.586 92.5645 231.07 90.0491 227.967 90.0491H193.447C190.344 90.0491 187.829 92.5645 187.829 95.6675V137.213ZM187.829 83.0935C187.829 86.1964 190.344 88.7119 193.447 88.7119H227.967C231.07 88.7119 233.586 86.1964 233.586 83.0935L233.586 41.5492C233.586 38.4463 231.07 35.9308 227.967 35.9308H193.447C190.344 35.9308 187.829 38.4463 187.829 41.5492L187.829 83.0935ZM187.829 28.9753C187.829 32.0783 190.344 34.5937 193.447 34.5937H227.967C231.07 34.5937 233.586 32.0783 233.586 28.9753V-12.5703C233.586 -15.6733 231.07 -18.1887 227.967 -18.1887H193.447C190.344 -18.1887 187.829 -15.6733 187.829 -12.5703V28.9753ZM187.829 -25.1442C187.829 -22.0413 190.344 -19.5259 193.447 -19.5259H227.967C231.07 -19.5259 233.586 -22.0413 233.586 -25.1442V-66.6885C233.586 -69.7914 231.07 -72.3069 227.967 -72.3069H193.447C190.344 -72.3069 187.829 -69.7914 187.829 -66.6885V-25.1442ZM187.829 -79.2625C187.829 -76.1595 190.344 -73.644 193.447 -73.644H227.967C231.07 -73.644 233.586 -76.1595 233.586 -79.2625V-120.807C233.586 -123.91 231.07 -126.425 227.967 -126.425H193.447C190.344 -126.425 187.829 -123.91 187.829 -120.807V-79.2625ZM187.829 -133.381C187.829 -130.278 190.344 -127.762 193.447 -127.762H227.967C231.07 -127.762 233.586 -130.278 233.586 -133.381V-174.926C233.586 -178.029 231.07 -180.545 227.967 -180.545H193.447C190.344 -180.545 187.829 -178.029 187.829 -174.926V-133.381ZM181.051 -180.545C184.154 -180.545 186.67 -178.029 186.67 -174.926V-133.381C186.67 -130.278 184.154 -127.762 181.051 -127.762H146.53C143.427 -127.762 140.912 -130.278 140.912 -133.381V-174.926C140.912 -178.029 143.427 -180.545 146.53 -180.545H181.051ZM181.051 -126.425C184.154 -126.425 186.67 -123.91 186.67 -120.807V-79.2625C186.67 -76.1595 184.154 -73.644 181.051 -73.644H146.53C143.427 -73.644 140.912 -76.1595 140.912 -79.2625V-120.807C140.912 -123.91 143.427 -126.425 146.53 -126.425H181.051ZM181.051 -72.3069C184.154 -72.3069 186.67 -69.7914 186.67 -66.6885V-25.1442C186.67 -22.0413 184.154 -19.5259 181.051 -19.5259H146.53C143.427 -19.5259 140.912 -22.0413 140.912 -25.1442V-66.6885C140.912 -69.7914 143.427 -72.3069 146.53 -72.3069H181.051ZM181.051 -18.1887C184.154 -18.1887 186.67 -15.6733 186.67 -12.5703V28.9753C186.67 32.0783 184.154 34.5937 181.051 34.5937H146.53C143.427 34.5937 140.912 32.0783 140.912 28.9753V-12.5703C140.912 -15.6733 143.427 -18.1887 146.53 -18.1887H181.051ZM181.051 35.9308C184.154 35.9308 186.67 38.4463 186.67 41.5492L186.67 83.0935C186.67 86.1964 184.154 88.7119 181.051 88.7119H146.53C143.427 88.7119 140.912 86.1964 140.912 83.0935L140.912 41.5492C140.912 38.4463 143.427 35.9308 146.53 35.9308H181.051ZM181.051 90.0491C184.154 90.0491 186.67 92.5645 186.67 95.6675V137.213C186.67 140.316 184.154 142.831 181.051 142.831H146.53C143.427 142.831 140.912 140.316 140.912 137.213V95.6675C140.912 92.5645 143.427 90.0491 146.53 90.0491H181.051ZM181.051 144.169C184.154 144.169 186.67 146.684 186.67 149.787V191.331C186.67 194.434 184.154 196.95 181.051 196.95H146.53C143.427 196.95 140.912 194.434 140.912 191.331V149.787C140.912 146.684 143.427 144.169 146.53 144.169H181.051ZM181.051 198.287C184.154 198.287 186.67 200.802 186.67 203.905V245.451C186.67 248.554 184.154 251.069 181.051 251.069H146.53C143.427 251.069 140.912 248.554 140.912 245.451V203.905C140.912 200.802 143.427 198.287 146.53 198.287H181.051ZM181.051 252.406C184.154 252.406 186.67 254.922 186.67 258.025V299.569C186.67 302.672 184.154 305.187 181.051 305.187H146.53C143.427 305.187 140.912 302.672 140.912 299.569V258.025C140.912 254.922 143.427 252.406 146.53 252.406H181.051ZM181.051 306.525C184.154 306.525 186.67 309.04 186.67 312.143V353.688C186.67 356.791 184.154 359.307 181.051 359.307H146.53C143.427 359.307 140.912 356.791 140.912 353.688V312.143C140.912 309.04 143.427 306.525 146.53 306.525H181.051ZM181.051 360.644C184.154 360.644 186.67 363.16 186.67 366.262V407.807C186.67 410.91 184.154 413.425 181.051 413.425H146.53C143.427 413.425 140.912 410.91 140.912 407.807V366.262C140.912 363.16 143.427 360.644 146.53 360.644H181.051ZM181.051 414.762C184.154 414.762 186.67 417.278 186.67 420.381V461.925C186.67 465.028 184.154 467.543 181.051 467.543H146.53C143.427 467.543 140.912 465.028 140.912 461.925V420.381C140.912 417.278 143.427 414.762 146.53 414.762H181.051ZM93.9962 461.925C93.9962 465.028 96.5116 467.543 99.6146 467.543L134.134 467.543C137.237 467.543 139.753 465.028 139.753 461.925V420.381C139.753 417.278 137.237 414.762 134.134 414.762H99.6146C96.5116 414.762 93.9962 417.278 93.9962 420.381V461.925ZM93.9962 407.807C93.9962 410.91 96.5116 413.425 99.6146 413.425H134.134C137.237 413.425 139.753 410.91 139.753 407.807V366.262C139.753 363.16 137.237 360.644 134.134 360.644H99.6146C96.5116 360.644 93.9962 363.16 93.9962 366.262V407.807ZM93.9962 353.688C93.9962 356.791 96.5116 359.307 99.6146 359.307H134.134C137.237 359.307 139.753 356.791 139.753 353.688V312.143C139.753 309.04 137.237 306.525 134.134 306.525H99.6146C96.5116 306.525 93.9962 309.04 93.9962 312.143V353.688ZM93.9962 299.569C93.9962 302.672 96.5116 305.187 99.6146 305.187H134.134C137.237 305.187 139.753 302.672 139.753 299.569V258.025C139.753 254.922 137.237 252.406 134.134 252.406H99.6146C96.5116 252.406 93.9962 254.922 93.9962 258.025V299.569ZM93.9962 245.451C93.9962 248.554 96.5116 251.069 99.6146 251.069H134.134C137.237 251.069 139.753 248.554 139.753 245.451V203.905C139.753 200.802 137.237 198.287 134.134 198.287H99.6146C96.5116 198.287 93.9962 200.802 93.9962 203.905V245.451ZM93.9962 191.331C93.9962 194.434 96.5116 196.95 99.6146 196.95H134.134C137.237 196.95 139.753 194.434 139.753 191.331V149.787C139.753 146.684 137.237 144.169 134.134 144.169H99.6146C96.5116 144.169 93.9962 146.684 93.9962 149.787V191.331ZM93.9962 137.213C93.9962 140.316 96.5116 142.831 99.6146 142.831H134.134C137.237 142.831 139.753 140.316 139.753 137.213V95.6675C139.753 92.5645 137.237 90.0491 134.134 90.0491H99.6146C96.5116 90.0491 93.9962 92.5645 93.9962 95.6675V137.213ZM93.9962 83.0935C93.9962 86.1964 96.5116 88.7119 99.6146 88.7119H134.134C137.237 88.7119 139.753 86.1964 139.753 83.0935L139.753 41.5492C139.753 38.4463 137.237 35.9308 134.134 35.9308H99.6146C96.5116 35.9308 93.9962 38.4463 93.9962 41.5492L93.9962 83.0935ZM93.9962 28.9753C93.9962 32.0783 96.5116 34.5937 99.6146 34.5937H134.134C137.237 34.5937 139.753 32.0783 139.753 28.9753V-12.5703C139.753 -15.6733 137.237 -18.1887 134.134 -18.1887H99.6146C96.5116 -18.1887 93.9962 -15.6733 93.9962 -12.5703V28.9753ZM93.9962 -25.1442C93.9962 -22.0413 96.5116 -19.5259 99.6146 -19.5259H134.134C137.237 -19.5259 139.753 -22.0413 139.753 -25.1442V-66.6885C139.753 -69.7914 137.237 -72.3069 134.134 -72.3069H99.6146C96.5116 -72.3069 93.9962 -69.7914 93.9962 -66.6885V-25.1442ZM93.9962 -79.2625C93.9962 -76.1595 96.5116 -73.644 99.6146 -73.644H134.134C137.237 -73.644 139.753 -76.1595 139.753 -79.2625V-120.807C139.753 -123.91 137.237 -126.425 134.134 -126.425H99.6146C96.5116 -126.425 93.9962 -123.91 93.9962 -120.807V-79.2625ZM93.9962 -133.381C93.9962 -130.278 96.5116 -127.762 99.6146 -127.762H134.134C137.237 -127.762 139.753 -130.278 139.753 -133.381V-174.926C139.753 -178.029 137.237 -180.545 134.134 -180.545H99.6146C96.5116 -180.545 93.9962 -178.029 93.9962 -174.926V-133.381ZM87.2186 -180.545C90.3215 -180.545 92.8369 -178.029 92.8369 -174.926V-133.381C92.8369 -130.278 90.3215 -127.762 87.2186 -127.762H52.6975C49.5945 -127.762 47.0791 -130.278 47.0791 -133.381V-174.926C47.0791 -178.029 49.5945 -180.545 52.6975 -180.545H87.2186ZM87.2186 -126.425C90.3215 -126.425 92.8369 -123.91 92.8369 -120.807V-79.2625C92.8369 -76.1595 90.3215 -73.644 87.2186 -73.644H52.6975C49.5945 -73.644 47.0791 -76.1595 47.0791 -79.2625V-120.807C47.0791 -123.91 49.5945 -126.425 52.6975 -126.425H87.2186ZM87.2186 -72.3069C90.3215 -72.3069 92.8369 -69.7914 92.8369 -66.6885V-25.1442C92.8369 -22.0413 90.3215 -19.5259 87.2186 -19.5259H52.6975C49.5945 -19.5259 47.0791 -22.0413 47.0791 -25.1442V-66.6885C47.0791 -69.7914 49.5945 -72.3069 52.6975 -72.3069H87.2186ZM87.2186 -18.1887C90.3215 -18.1887 92.8369 -15.6733 92.8369 -12.5703V28.9753C92.8369 32.0783 90.3215 34.5937 87.2186 34.5937L52.6975 34.5937C49.5945 34.5937 47.0791 32.0783 47.0791 28.9753V-12.5703C47.0791 -15.6733 49.5945 -18.1887 52.6975 -18.1887H87.2186ZM87.2186 35.9308C90.3215 35.9308 92.8369 38.4463 92.8369 41.5492L92.8369 83.0935C92.8369 86.1964 90.3215 88.7119 87.2186 88.7119L52.6975 88.7119C49.5945 88.7119 47.0791 86.1964 47.0791 83.0935L47.0791 41.5492C47.0791 38.4463 49.5945 35.9308 52.6975 35.9308L87.2186 35.9308ZM87.2186 90.0491C90.3215 90.0491 92.8369 92.5645 92.8369 95.6675V137.213C92.8369 140.316 90.3215 142.831 87.2186 142.831L52.6975 142.831C49.5945 142.831 47.0791 140.316 47.0791 137.213V95.6675C47.0791 92.5645 49.5945 90.0491 52.6975 90.0491L87.2186 90.0491ZM87.2186 144.169C90.3215 144.169 92.8369 146.684 92.8369 149.787V191.331C92.8369 194.434 90.3215 196.95 87.2186 196.95L52.6975 196.95C49.5945 196.95 47.0791 194.434 47.0791 191.331V149.787C47.0791 146.684 49.5945 144.169 52.6975 144.169L87.2186 144.169ZM87.2186 198.287C90.3215 198.287 92.8369 200.802 92.8369 203.905V245.451C92.8369 248.554 90.3215 251.069 87.2186 251.069L52.6975 251.069C49.5945 251.069 47.0791 248.554 47.0791 245.451V203.905C47.0791 200.802 49.5945 198.287 52.6975 198.287L87.2186 198.287ZM87.2186 252.406C90.3215 252.406 92.8369 254.922 92.8369 258.025V299.569C92.8369 302.672 90.3215 305.187 87.2186 305.187H52.6975C49.5945 305.187 47.0791 302.672 47.0791 299.569V258.025C47.0791 254.922 49.5945 252.406 52.6975 252.406L87.2186 252.406ZM87.2186 306.525C90.3215 306.525 92.8369 309.04 92.8369 312.143V353.688C92.8369 356.791 90.3215 359.307 87.2186 359.307H52.6975C49.5945 359.307 47.0791 356.791 47.0791 353.688V312.143C47.0791 309.04 49.5945 306.525 52.6975 306.525H87.2186ZM87.2186 360.644C90.3215 360.644 92.8369 363.16 92.8369 366.262V407.807C92.8369 410.91 90.3215 413.425 87.2186 413.425H52.6975C49.5945 413.425 47.0791 410.91 47.0791 407.807V366.262C47.0791 363.16 49.5945 360.644 52.6975 360.644H87.2186ZM87.2186 414.762C90.3215 414.762 92.8369 417.278 92.8369 420.381V461.925C92.8369 465.028 90.3215 467.543 87.2186 467.543H52.6975C49.5945 467.543 47.0791 465.028 47.0791 461.925V420.381C47.0791 417.278 49.5945 414.762 52.6975 414.762H87.2186ZM0.16333 461.925C0.16333 465.028 2.67877 467.543 5.78168 467.543H40.3015C43.4045 467.543 45.9199 465.028 45.9199 461.925V420.381C45.9199 417.278 43.4044 414.762 40.3015 414.762H5.78168C2.67877 414.762 0.16333 417.278 0.16333 420.381V461.925ZM0.16333 407.807C0.16333 410.91 2.67877 413.425 5.78168 413.425H40.3015C43.4045 413.425 45.9199 410.91 45.9199 407.807V366.262C45.9199 363.16 43.4044 360.644 40.3015 360.644H5.78168C2.67877 360.644 0.16333 363.16 0.16333 366.262V407.807ZM0.16333 353.688C0.16333 356.791 2.67877 359.307 5.78168 359.307H40.3015C43.4045 359.307 45.9199 356.791 45.9199 353.688V312.143C45.9199 309.04 43.4044 306.525 40.3015 306.525H5.78168C2.67877 306.525 0.16333 309.04 0.16333 312.143V353.688ZM0.16333 299.569C0.16333 302.672 2.67877 305.187 5.78168 305.187H40.3015C43.4045 305.187 45.9199 302.672 45.9199 299.569V258.025C45.9199 254.922 43.4044 252.406 40.3015 252.406H5.78168C2.67877 252.406 0.16333 254.922 0.16333 258.025V299.569ZM0.16333 245.451C0.16333 248.554 2.67877 251.069 5.78168 251.069H40.3015C43.4045 251.069 45.9199 248.554 45.9199 245.451V203.905C45.9199 200.802 43.4044 198.287 40.3015 198.287H5.78168C2.67877 198.287 0.16333 200.802 0.16333 203.905V245.451ZM0.16333 191.331C0.16333 194.434 2.67877 196.95 5.78168 196.95H40.3015C43.4045 196.95 45.9199 194.434 45.9199 191.331V149.787C45.9199 146.684 43.4044 144.169 40.3015 144.169H5.78168C2.67877 144.169 0.16333 146.684 0.16333 149.787V191.331ZM0.16333 137.213C0.16333 140.316 2.67877 142.831 5.78168 142.831H40.3015C43.4045 142.831 45.9199 140.316 45.9199 137.213V95.6675C45.9199 92.5645 43.4044 90.0491 40.3015 90.0491H5.78168C2.67877 90.0491 0.16333 92.5645 0.16333 95.6675V137.213ZM0.16333 83.0935C0.16333 86.1964 2.67877 88.7119 5.78168 88.7119H40.3015C43.4045 88.7119 45.9199 86.1964 45.9199 83.0935L45.9199 41.5492C45.9199 38.4463 43.4044 35.9308 40.3015 35.9308H5.78168C2.67877 35.9308 0.16333 38.4463 0.16333 41.5492L0.16333 83.0935ZM0.16333 28.9753C0.16333 32.0783 2.67877 34.5937 5.78168 34.5937H40.3015C43.4045 34.5937 45.9199 32.0783 45.9199 28.9753V-12.5703C45.9199 -15.6733 43.4044 -18.1887 40.3015 -18.1887H5.78168C2.67877 -18.1887 0.16333 -15.6733 0.16333 -12.5703V28.9753ZM0.16333 -25.1442C0.16333 -22.0413 2.67877 -19.5259 5.78168 -19.5259H40.3015C43.4045 -19.5259 45.9199 -22.0413 45.9199 -25.1442V-66.6885C45.9199 -69.7914 43.4044 -72.3069 40.3015 -72.3069H5.78168C2.67877 -72.3069 0.16333 -69.7914 0.16333 -66.6885V-25.1442ZM0.16333 -79.2625C0.16333 -76.1595 2.67877 -73.644 5.78168 -73.644H40.3015C43.4045 -73.644 45.9199 -76.1595 45.9199 -79.2625V-120.807C45.9199 -123.91 43.4044 -126.425 40.3015 -126.425H5.78168C2.67877 -126.425 0.16333 -123.91 0.16333 -120.807V-79.2625ZM0.16333 -133.381C0.16333 -130.278 2.67877 -127.762 5.78168 -127.762H40.3015C43.4045 -127.762 45.9199 -130.278 45.9199 -133.381V-174.926C45.9199 -178.029 43.4044 -180.545 40.3015 -180.545H5.78168C2.67877 -180.545 0.16333 -178.029 0.16333 -174.926V-133.381ZM-6.61432 -180.545C-3.51141 -180.545 -0.995972 -178.029 -0.995972 -174.926V-133.381C-0.995972 -130.278 -3.51141 -127.762 -6.61432 -127.762H-41.1354C-44.2383 -127.762 -46.7537 -130.278 -46.7537 -133.381V-174.926C-46.7537 -178.029 -44.2383 -180.545 -41.1354 -180.545H-6.61432ZM-6.61432 -126.425C-3.51141 -126.425 -0.995972 -123.91 -0.995972 -120.807V-79.2625C-0.995972 -76.1595 -3.51141 -73.644 -6.61432 -73.644H-41.1354C-44.2383 -73.644 -46.7537 -76.1595 -46.7537 -79.2625V-120.807C-46.7537 -123.91 -44.2383 -126.425 -41.1354 -126.425H-6.61432ZM-6.61432 -72.3069C-3.51141 -72.3069 -0.995972 -69.7914 -0.995972 -66.6885V-25.1442C-0.995972 -22.0413 -3.51141 -19.5259 -6.61432 -19.5259H-41.1354C-44.2383 -19.5259 -46.7537 -22.0413 -46.7537 -25.1442V-66.6885C-46.7537 -69.7914 -44.2383 -72.3069 -41.1354 -72.3069H-6.61432ZM-6.61432 -18.1887C-3.51141 -18.1887 -0.995972 -15.6733 -0.995972 -12.5703V28.9753C-0.995972 32.0783 -3.51141 34.5937 -6.61432 34.5937H-41.1354C-44.2383 34.5937 -46.7537 32.0783 -46.7537 28.9753V-12.5703C-46.7537 -15.6733 -44.2383 -18.1887 -41.1354 -18.1887H-6.61432ZM-6.61432 35.9308C-3.51141 35.9308 -0.995972 38.4463 -0.995972 41.5492L-0.995972 83.0935C-0.995972 86.1964 -3.51141 88.7119 -6.61432 88.7119H-41.1354C-44.2383 88.7119 -46.7537 86.1964 -46.7537 83.0935L-46.7537 41.5492C-46.7537 38.4463 -44.2383 35.9308 -41.1354 35.9308H-6.61432ZM-6.61432 90.0491C-3.51141 90.0491 -0.995972 92.5645 -0.995972 95.6675V137.213C-0.995972 140.316 -3.51141 142.831 -6.61432 142.831H-41.1354C-44.2383 142.831 -46.7537 140.316 -46.7537 137.213V95.6675C-46.7537 92.5645 -44.2383 90.0491 -41.1354 90.0491H-6.61432ZM-6.61432 144.169C-3.51141 144.169 -0.995972 146.684 -0.995972 149.787V191.331C-0.995972 194.434 -3.51141 196.95 -6.61432 196.95H-41.1354C-44.2383 196.95 -46.7537 194.434 -46.7537 191.331V149.787C-46.7537 146.684 -44.2383 144.169 -41.1354 144.169H-6.61432ZM-6.61432 198.287C-3.51141 198.287 -0.995972 200.802 -0.995972 203.905V245.451C-0.995972 248.554 -3.51141 251.069 -6.61432 251.069H-41.1354C-44.2383 251.069 -46.7537 248.554 -46.7537 245.451V203.905C-46.7537 200.802 -44.2383 198.287 -41.1354 198.287H-6.61432ZM-6.61432 252.406C-3.51141 252.406 -0.995972 254.922 -0.995972 258.025V299.569C-0.995972 302.672 -3.51141 305.187 -6.61432 305.187H-41.1354C-44.2383 305.187 -46.7537 302.672 -46.7537 299.569V258.025C-46.7537 254.922 -44.2383 252.406 -41.1354 252.406H-6.61432ZM-6.61432 306.525C-3.51141 306.525 -0.995972 309.04 -0.995972 312.143V353.688C-0.995972 356.791 -3.51141 359.307 -6.61432 359.307H-41.1354C-44.2383 359.307 -46.7537 356.791 -46.7537 353.688V312.143C-46.7537 309.04 -44.2383 306.525 -41.1354 306.525H-6.61432ZM-6.61432 360.644C-3.51141 360.644 -0.995972 363.16 -0.995972 366.262V407.807C-0.995972 410.91 -3.51141 413.425 -6.61432 413.425H-41.1354C-44.2383 413.425 -46.7537 410.91 -46.7537 407.807V366.262C-46.7537 363.16 -44.2383 360.644 -41.1354 360.644H-6.61432ZM-6.61432 414.762C-3.51141 414.762 -0.995972 417.278 -0.995972 420.381V461.925C-0.995972 465.028 -3.51141 467.543 -6.61432 467.543H-41.1354C-44.2383 467.543 -46.7537 465.028 -46.7537 461.925V420.381C-46.7537 417.278 -44.2383 414.762 -41.1354 414.762H-6.61432ZM-93.6684 461.925C-93.6684 465.028 -91.153 467.543 -88.05 467.543H-53.5313C-50.4284 467.543 -47.913 465.028 -47.913 461.925V420.381C-47.913 417.278 -50.4284 414.762 -53.5313 414.762H-88.05C-91.153 414.762 -93.6684 417.278 -93.6684 420.381V461.925ZM-93.6684 407.807C-93.6684 410.91 -91.153 413.425 -88.05 413.425H-53.5313C-50.4284 413.425 -47.913 410.91 -47.913 407.807V366.262C-47.913 363.16 -50.4284 360.644 -53.5313 360.644H-88.05C-91.153 360.644 -93.6684 363.16 -93.6684 366.262V407.807ZM-93.6684 353.688C-93.6684 356.791 -91.153 359.307 -88.05 359.307H-53.5313C-50.4284 359.307 -47.913 356.791 -47.913 353.688V312.143C-47.913 309.04 -50.4284 306.525 -53.5313 306.525H-88.05C-91.153 306.525 -93.6684 309.04 -93.6684 312.143V353.688ZM-93.6684 299.569C-93.6684 302.672 -91.153 305.187 -88.05 305.187H-53.5313C-50.4284 305.187 -47.913 302.672 -47.913 299.569V258.025C-47.913 254.922 -50.4284 252.406 -53.5313 252.406H-88.05C-91.153 252.406 -93.6684 254.922 -93.6684 258.025V299.569ZM-93.6684 245.451C-93.6684 248.554 -91.153 251.069 -88.05 251.069H-53.5313C-50.4284 251.069 -47.913 248.554 -47.913 245.451V203.905C-47.913 200.802 -50.4284 198.287 -53.5313 198.287H-88.05C-91.153 198.287 -93.6684 200.802 -93.6684 203.905V245.451ZM-93.6684 191.331C-93.6684 194.434 -91.153 196.95 -88.05 196.95H-53.5313C-50.4284 196.95 -47.913 194.434 -47.913 191.331V149.787C-47.913 146.684 -50.4284 144.169 -53.5313 144.169H-88.05C-91.153 144.169 -93.6684 146.684 -93.6684 149.787V191.331ZM-93.6684 137.213C-93.6684 140.316 -91.153 142.831 -88.05 142.831H-53.5313C-50.4284 142.831 -47.913 140.316 -47.913 137.213V95.6675C-47.913 92.5645 -50.4284 90.0491 -53.5313 90.0491H-88.05C-91.153 90.0491 -93.6684 92.5645 -93.6684 95.6675V137.213ZM-93.6684 83.0935C-93.6684 86.1964 -91.153 88.7119 -88.05 88.7119H-53.5313C-50.4284 88.7119 -47.913 86.1964 -47.913 83.0935L-47.913 41.5492C-47.913 38.4463 -50.4284 35.9308 -53.5313 35.9308H-88.05C-91.153 35.9308 -93.6684 38.4463 -93.6684 41.5492L-93.6684 83.0935ZM-93.6684 28.9753C-93.6684 32.0783 -91.153 34.5937 -88.05 34.5937H-53.5313C-50.4284 34.5937 -47.913 32.0783 -47.913 28.9753V-12.5703C-47.913 -15.6733 -50.4284 -18.1887 -53.5313 -18.1887H-88.05C-91.153 -18.1887 -93.6684 -15.6733 -93.6684 -12.5703V28.9753ZM-93.6684 -25.1442C-93.6684 -22.0413 -91.153 -19.5259 -88.05 -19.5259H-53.5313C-50.4284 -19.5259 -47.913 -22.0413 -47.913 -25.1442V-66.6885C-47.913 -69.7914 -50.4284 -72.3069 -53.5313 -72.3069H-88.05C-91.153 -72.3069 -93.6684 -69.7914 -93.6684 -66.6885V-25.1442ZM-93.6684 -79.2625C-93.6684 -76.1595 -91.153 -73.644 -88.05 -73.644H-53.5313C-50.4284 -73.644 -47.913 -76.1595 -47.913 -79.2625V-120.807C-47.913 -123.91 -50.4284 -126.425 -53.5313 -126.425H-88.05C-91.153 -126.425 -93.6684 -123.91 -93.6684 -120.807V-79.2625ZM-93.6684 -133.381C-93.6684 -130.278 -91.153 -127.762 -88.05 -127.762H-53.5313C-50.4284 -127.762 -47.913 -130.278 -47.913 -133.381V-174.926C-47.913 -178.029 -50.4284 -180.545 -53.5313 -180.545H-88.05C-91.153 -180.545 -93.6684 -178.029 -93.6684 -174.926V-133.381ZM-100.446 -180.545C-97.3431 -180.545 -94.8276 -178.029 -94.8276 -174.926V-133.381C-94.8276 -130.278 -97.3431 -127.762 -100.446 -127.762H-134.967C-138.07 -127.762 -140.585 -130.278 -140.585 -133.381V-174.926C-140.585 -178.029 -138.07 -180.545 -134.967 -180.545H-100.446ZM-100.446 -126.425C-97.3431 -126.425 -94.8276 -123.91 -94.8276 -120.807V-79.2625C-94.8276 -76.1595 -97.3431 -73.644 -100.446 -73.644H-134.967C-138.07 -73.644 -140.585 -76.1595 -140.585 -79.2625V-120.807C-140.585 -123.91 -138.07 -126.425 -134.967 -126.425H-100.446ZM-100.446 -72.3069C-97.3431 -72.3069 -94.8276 -69.7914 -94.8276 -66.6885V-25.1442C-94.8276 -22.0413 -97.3431 -19.5259 -100.446 -19.5259H-134.967C-138.07 -19.5259 -140.585 -22.0413 -140.585 -25.1442V-66.6885C-140.585 -69.7914 -138.07 -72.3069 -134.967 -72.3069H-100.446ZM-100.446 -18.1887C-97.3431 -18.1887 -94.8276 -15.6733 -94.8276 -12.5703V28.9753C-94.8276 32.0783 -97.3431 34.5937 -100.446 34.5937H-134.967C-138.07 34.5937 -140.585 32.0783 -140.585 28.9753V-12.5703C-140.585 -15.6733 -138.07 -18.1887 -134.967 -18.1887H-100.446ZM-100.446 35.9308C-97.3431 35.9308 -94.8276 38.4463 -94.8276 41.5492L-94.8276 83.0935C-94.8276 86.1964 -97.3431 88.7119 -100.446 88.7119H-134.967C-138.07 88.7119 -140.585 86.1964 -140.585 83.0935L-140.585 41.5492C-140.585 38.4463 -138.07 35.9308 -134.967 35.9308H-100.446ZM-100.446 90.0491C-97.3431 90.0491 -94.8276 92.5645 -94.8276 95.6675V137.213C-94.8276 140.316 -97.3431 142.831 -100.446 142.831H-134.967C-138.07 142.831 -140.585 140.316 -140.585 137.213V95.6675C-140.585 92.5645 -138.07 90.0491 -134.967 90.0491H-100.446ZM-100.446 144.169C-97.3431 144.169 -94.8276 146.684 -94.8276 149.787V191.331C-94.8276 194.434 -97.3431 196.95 -100.446 196.95H-134.967C-138.07 196.95 -140.585 194.434 -140.585 191.331V149.787C-140.585 146.684 -138.07 144.169 -134.967 144.169H-100.446ZM-100.446 198.287C-97.3431 198.287 -94.8276 200.802 -94.8276 203.905V245.451C-94.8276 248.554 -97.3431 251.069 -100.446 251.069H-134.967C-138.07 251.069 -140.585 248.554 -140.585 245.451V203.905C-140.585 200.802 -138.07 198.287 -134.967 198.287H-100.446ZM-100.446 252.406C-97.3431 252.406 -94.8276 254.922 -94.8276 258.025V299.569C-94.8276 302.672 -97.3431 305.187 -100.446 305.187H-134.967C-138.07 305.187 -140.585 302.672 -140.585 299.569V258.025C-140.585 254.922 -138.07 252.406 -134.967 252.406H-100.446ZM-100.446 306.525C-97.3431 306.525 -94.8276 309.04 -94.8276 312.143V353.688C-94.8276 356.791 -97.3431 359.307 -100.446 359.307H-134.967C-138.07 359.307 -140.585 356.791 -140.585 353.688V312.143C-140.585 309.04 -138.07 306.525 -134.967 306.525H-100.446ZM-100.446 360.644C-97.3431 360.644 -94.8276 363.16 -94.8276 366.262V407.807C-94.8276 410.91 -97.3431 413.425 -100.446 413.425H-134.967C-138.07 413.425 -140.585 410.91 -140.585 407.807V366.262C-140.585 363.16 -138.07 360.644 -134.967 360.644H-100.446ZM-100.446 414.762C-97.3431 414.762 -94.8276 417.278 -94.8276 420.381V461.925C-94.8276 465.028 -97.3431 467.543 -100.446 467.543H-134.967C-138.07 467.543 -140.585 465.028 -140.585 461.925V420.381C-140.585 417.278 -138.07 414.762 -134.967 414.762H-100.446ZM-187.501 461.925C-187.501 465.028 -184.986 467.543 -181.883 467.543H-147.363C-144.26 467.543 -141.745 465.028 -141.745 461.925V420.381C-141.745 417.278 -144.26 414.762 -147.363 414.762H-181.883C-184.986 414.762 -187.501 417.278 -187.501 420.381V461.925ZM-187.501 407.807C-187.501 410.91 -184.986 413.425 -181.883 413.425H-147.363C-144.26 413.425 -141.745 410.91 -141.745 407.807V366.262C-141.745 363.16 -144.26 360.644 -147.363 360.644H-181.883C-184.986 360.644 -187.501 363.16 -187.501 366.262V407.807ZM-187.501 353.688C-187.501 356.791 -184.986 359.307 -181.883 359.307H-147.363C-144.26 359.307 -141.745 356.791 -141.745 353.688V312.143C-141.745 309.04 -144.26 306.525 -147.363 306.525H-181.883C-184.986 306.525 -187.501 309.04 -187.501 312.143V353.688ZM-187.501 299.569C-187.501 302.672 -184.986 305.187 -181.883 305.187H-147.363C-144.26 305.187 -141.745 302.672 -141.745 299.569V258.025C-141.745 254.922 -144.26 252.406 -147.363 252.406H-181.883C-184.986 252.406 -187.501 254.922 -187.501 258.025V299.569ZM-187.501 245.451C-187.501 248.554 -184.986 251.069 -181.883 251.069H-147.363C-144.26 251.069 -141.745 248.554 -141.745 245.451V203.905C-141.745 200.802 -144.26 198.287 -147.363 198.287H-181.883C-184.986 198.287 -187.501 200.802 -187.501 203.905V245.451ZM-187.501 191.331C-187.501 194.434 -184.986 196.95 -181.883 196.95H-147.363C-144.26 196.95 -141.745 194.434 -141.745 191.331V149.787C-141.745 146.684 -144.26 144.169 -147.363 144.169H-181.883C-184.986 144.169 -187.501 146.684 -187.501 149.787V191.331ZM-187.501 137.213C-187.501 140.316 -184.986 142.831 -181.883 142.831H-147.363C-144.26 142.831 -141.745 140.316 -141.745 137.213V95.6675C-141.745 92.5645 -144.26 90.0491 -147.363 90.0491H-181.883C-184.986 90.0491 -187.501 92.5645 -187.501 95.6675V137.213ZM-187.501 83.0935C-187.501 86.1964 -184.986 88.7119 -181.883 88.7119H-147.363C-144.26 88.7119 -141.745 86.1964 -141.745 83.0935L-141.745 41.5492C-141.745 38.4463 -144.26 35.9308 -147.363 35.9308H-181.883C-184.986 35.9308 -187.501 38.4463 -187.501 41.5492L-187.501 83.0935ZM-187.501 28.9753C-187.501 32.0783 -184.986 34.5937 -181.883 34.5937H-147.363C-144.26 34.5937 -141.745 32.0783 -141.745 28.9753V-12.5703C-141.745 -15.6733 -144.26 -18.1887 -147.363 -18.1887H-181.883C-184.986 -18.1887 -187.501 -15.6733 -187.501 -12.5703V28.9753ZM-187.501 -25.1442C-187.501 -22.0413 -184.986 -19.5259 -181.883 -19.5259H-147.363C-144.26 -19.5259 -141.745 -22.0413 -141.745 -25.1442V-66.6885C-141.745 -69.7914 -144.26 -72.3069 -147.363 -72.3069H-181.883C-184.986 -72.3069 -187.501 -69.7914 -187.501 -66.6885V-25.1442ZM-187.501 -79.2625C-187.501 -76.1595 -184.986 -73.644 -181.883 -73.644H-147.363C-144.26 -73.644 -141.745 -76.1595 -141.745 -79.2625V-120.807C-141.745 -123.91 -144.26 -126.425 -147.363 -126.425H-181.883C-184.986 -126.425 -187.501 -123.91 -187.501 -120.807V-79.2625ZM-187.501 -133.381C-187.501 -130.278 -184.986 -127.762 -181.883 -127.762H-147.363C-144.26 -127.762 -141.745 -130.278 -141.745 -133.381V-174.926C-141.745 -178.029 -144.26 -180.545 -147.363 -180.545H-181.883C-184.986 -180.545 -187.501 -178.029 -187.501 -174.926V-133.381ZM-194.279 -180.545C-191.176 -180.545 -188.661 -178.029 -188.661 -174.926V-133.381C-188.661 -130.278 -191.176 -127.762 -194.279 -127.762H-228.799C-231.902 -127.762 -234.417 -130.278 -234.417 -133.381V-174.926C-234.417 -178.029 -231.902 -180.545 -228.799 -180.545H-194.279ZM-194.279 -126.425C-191.176 -126.425 -188.661 -123.91 -188.661 -120.807V-79.2625C-188.661 -76.1595 -191.176 -73.644 -194.279 -73.644H-228.799C-231.902 -73.644 -234.417 -76.1595 -234.417 -79.2625V-120.807C-234.417 -123.91 -231.902 -126.425 -228.799 -126.425H-194.279ZM-194.279 -72.3069C-191.176 -72.3069 -188.661 -69.7914 -188.661 -66.6885V-25.1442C-188.661 -22.0413 -191.176 -19.5259 -194.279 -19.5259H-228.799C-231.902 -19.5259 -234.417 -22.0413 -234.417 -25.1442V-66.6885C-234.417 -69.7914 -231.902 -72.3069 -228.799 -72.3069H-194.279ZM-194.279 -18.1887C-191.176 -18.1887 -188.661 -15.6733 -188.661 -12.5703V28.9753C-188.661 32.0783 -191.176 34.5937 -194.279 34.5937H-228.799C-231.902 34.5937 -234.417 32.0783 -234.417 28.9753V-12.5703C-234.417 -15.6733 -231.902 -18.1887 -228.799 -18.1887H-194.279ZM-194.279 35.9308C-191.176 35.9308 -188.661 38.4463 -188.661 41.5492L-188.661 83.0935C-188.661 86.1964 -191.176 88.7119 -194.279 88.7119H-228.799C-231.902 88.7119 -234.417 86.1964 -234.417 83.0935L-234.417 41.5492C-234.417 38.4463 -231.902 35.9308 -228.799 35.9308H-194.279ZM-194.279 90.0491C-191.176 90.0491 -188.661 92.5645 -188.661 95.6675V137.213C-188.661 140.316 -191.176 142.831 -194.279 142.831H-228.799C-231.902 142.831 -234.417 140.316 -234.417 137.213V95.6675C-234.417 92.5645 -231.902 90.0491 -228.799 90.0491H-194.279ZM-194.279 144.169C-191.176 144.169 -188.661 146.684 -188.661 149.787V191.331C-188.661 194.434 -191.176 196.95 -194.279 196.95H-228.799C-231.902 196.95 -234.417 194.434 -234.417 191.331V149.787C-234.417 146.684 -231.902 144.169 -228.799 144.169H-194.279ZM-194.279 198.287C-191.176 198.287 -188.661 200.802 -188.661 203.905V245.451C-188.661 248.554 -191.176 251.069 -194.279 251.069H-228.799C-231.902 251.069 -234.417 248.554 -234.417 245.451V203.905C-234.417 200.802 -231.902 198.287 -228.799 198.287H-194.279ZM-194.279 252.406C-191.176 252.406 -188.661 254.922 -188.661 258.025V299.569C-188.661 302.672 -191.176 305.187 -194.279 305.187H-228.799C-231.902 305.187 -234.417 302.672 -234.417 299.569V258.025C-234.417 254.922 -231.902 252.406 -228.799 252.406H-194.279ZM-194.279 306.525C-191.176 306.525 -188.661 309.04 -188.661 312.143V353.688C-188.661 356.791 -191.176 359.307 -194.279 359.307H-228.799C-231.902 359.307 -234.417 356.791 -234.417 353.688V312.143C-234.417 309.04 -231.902 306.525 -228.799 306.525H-194.279ZM-194.279 360.644C-191.176 360.644 -188.661 363.16 -188.661 366.262V407.807C-188.661 410.91 -191.176 413.425 -194.279 413.425H-228.799C-231.902 413.425 -234.417 410.91 -234.417 407.807V366.262C-234.417 363.16 -231.902 360.644 -228.799 360.644H-194.279ZM-194.279 414.762C-191.176 414.762 -188.661 417.278 -188.661 420.381V461.925C-188.661 465.028 -191.176 467.543 -194.279 467.543H-228.799C-231.902 467.543 -234.417 465.028 -234.417 461.925V420.381C-234.417 417.278 -231.902 414.762 -228.799 414.762H-194.279ZM-281.334 461.925C-281.334 465.028 -278.819 467.543 -275.716 467.543H-241.195C-238.092 467.543 -235.576 465.028 -235.576 461.925V420.381C-235.576 417.278 -238.092 414.762 -241.195 414.762H-275.716C-278.819 414.762 -281.334 417.278 -281.334 420.381V461.925ZM-281.334 407.807C-281.334 410.91 -278.819 413.425 -275.716 413.425H-241.195C-238.092 413.425 -235.576 410.91 -235.576 407.807V366.262C-235.576 363.16 -238.092 360.644 -241.195 360.644H-275.716C-278.819 360.644 -281.334 363.16 -281.334 366.262V407.807ZM-281.334 353.688C-281.334 356.791 -278.819 359.307 -275.716 359.307H-241.195C-238.092 359.307 -235.576 356.791 -235.576 353.688V312.143C-235.576 309.04 -238.092 306.525 -241.195 306.525H-275.716C-278.819 306.525 -281.334 309.04 -281.334 312.143V353.688ZM-281.334 299.569C-281.334 302.672 -278.819 305.187 -275.716 305.187H-241.195C-238.092 305.187 -235.576 302.672 -235.576 299.569V258.025C-235.576 254.922 -238.092 252.406 -241.195 252.406H-275.716C-278.819 252.406 -281.334 254.922 -281.334 258.025V299.569ZM-281.334 245.451C-281.334 248.554 -278.819 251.069 -275.716 251.069H-241.195C-238.092 251.069 -235.576 248.554 -235.576 245.451V203.905C-235.576 200.802 -238.092 198.287 -241.195 198.287H-275.716C-278.819 198.287 -281.334 200.802 -281.334 203.905V245.451ZM-281.334 191.331C-281.334 194.434 -278.819 196.95 -275.716 196.95H-241.195C-238.092 196.95 -235.576 194.434 -235.576 191.331V149.787C-235.576 146.684 -238.092 144.169 -241.195 144.169H-275.716C-278.819 144.169 -281.334 146.684 -281.334 149.787V191.331ZM-281.334 137.213C-281.334 140.316 -278.819 142.831 -275.716 142.831H-241.195C-238.092 142.831 -235.576 140.316 -235.576 137.213V95.6675C-235.576 92.5645 -238.092 90.0491 -241.195 90.0491H-275.716C-278.819 90.0491 -281.334 92.5645 -281.334 95.6675V137.213ZM-281.334 83.0935C-281.334 86.1964 -278.819 88.7119 -275.716 88.7119H-241.195C-238.092 88.7119 -235.576 86.1964 -235.576 83.0935L-235.576 41.5492C-235.576 38.4463 -238.092 35.9308 -241.195 35.9308H-275.716C-278.819 35.9308 -281.334 38.4463 -281.334 41.5492V83.0935ZM-281.334 28.9753C-281.334 32.0783 -278.819 34.5937 -275.716 34.5937H-241.195C-238.092 34.5937 -235.576 32.0783 -235.576 28.9753V-12.5703C-235.576 -15.6733 -238.092 -18.1887 -241.195 -18.1887H-275.716C-278.819 -18.1887 -281.334 -15.6733 -281.334 -12.5703V28.9753ZM-281.334 -25.1442C-281.334 -22.0413 -278.819 -19.5259 -275.716 -19.5259H-241.195C-238.092 -19.5259 -235.576 -22.0413 -235.576 -25.1442V-66.6885C-235.576 -69.7914 -238.092 -72.3069 -241.195 -72.3069H-275.716C-278.819 -72.3069 -281.334 -69.7914 -281.334 -66.6885V-25.1442ZM-281.334 -79.2625C-281.334 -76.1595 -278.819 -73.644 -275.716 -73.644H-241.195C-238.092 -73.644 -235.576 -76.1595 -235.576 -79.2625V-120.807C-235.576 -123.91 -238.092 -126.425 -241.195 -126.425H-275.716C-278.819 -126.425 -281.334 -123.91 -281.334 -120.807V-79.2625ZM-281.334 -133.381C-281.334 -130.278 -278.819 -127.762 -275.716 -127.762H-241.195C-238.092 -127.762 -235.576 -130.278 -235.576 -133.381V-174.926C-235.576 -178.029 -238.092 -180.545 -241.195 -180.545H-275.716C-278.819 -180.545 -281.334 -178.029 -281.334 -174.926V-133.381ZM-288.112 -180.545C-285.009 -180.545 -282.493 -178.029 -282.493 -174.926V-133.381C-282.493 -130.278 -285.009 -127.762 -288.112 -127.762H-322.632C-325.735 -127.762 -328.25 -130.278 -328.25 -133.381V-174.926C-328.25 -178.029 -325.735 -180.545 -322.632 -180.545H-288.112ZM-288.112 -126.425C-285.009 -126.425 -282.493 -123.91 -282.493 -120.807V-79.2625C-282.493 -76.1595 -285.009 -73.644 -288.112 -73.644H-322.632C-325.735 -73.644 -328.25 -76.1595 -328.25 -79.2625V-120.807C-328.25 -123.91 -325.735 -126.425 -322.632 -126.425H-288.112ZM-288.112 -72.3069C-285.009 -72.3069 -282.493 -69.7914 -282.493 -66.6885V-25.1442C-282.493 -22.0413 -285.009 -19.5259 -288.112 -19.5259H-322.632C-325.735 -19.5259 -328.25 -22.0413 -328.25 -25.1442V-66.6885C-328.25 -69.7914 -325.735 -72.3069 -322.632 -72.3069H-288.112ZM-288.112 -18.1887C-285.009 -18.1887 -282.493 -15.6733 -282.493 -12.5703V28.9753C-282.493 32.0783 -285.009 34.5937 -288.112 34.5937H-322.632C-325.735 34.5937 -328.25 32.0783 -328.25 28.9753V-12.5703C-328.25 -15.6733 -325.735 -18.1887 -322.632 -18.1887H-288.112ZM-288.112 35.9308C-285.009 35.9308 -282.493 38.4463 -282.493 41.5492V83.0935C-282.493 86.1964 -285.009 88.7119 -288.112 88.7119H-322.632C-325.735 88.7119 -328.25 86.1964 -328.25 83.0935V41.5492C-328.25 38.4463 -325.735 35.9308 -322.632 35.9308H-288.112ZM-288.112 90.0491C-285.009 90.0491 -282.493 92.5645 -282.493 95.6675V137.213C-282.493 140.316 -285.009 142.831 -288.112 142.831H-322.632C-325.735 142.831 -328.25 140.316 -328.25 137.213V95.6675C-328.25 92.5645 -325.735 90.0491 -322.632 90.0491H-288.112ZM-288.112 144.169C-285.009 144.169 -282.493 146.684 -282.493 149.787V191.331C-282.493 194.434 -285.009 196.95 -288.112 196.95H-322.632C-325.735 196.95 -328.25 194.434 -328.25 191.331V149.787C-328.25 146.684 -325.735 144.169 -322.632 144.169H-288.112ZM-288.112 198.287C-285.009 198.287 -282.493 200.802 -282.493 203.905V245.451C-282.493 248.554 -285.009 251.069 -288.112 251.069H-322.632C-325.735 251.069 -328.25 248.554 -328.25 245.451V203.905C-328.25 200.802 -325.735 198.287 -322.632 198.287H-288.112ZM-288.112 252.406C-285.009 252.406 -282.493 254.922 -282.493 258.025V299.569C-282.493 302.672 -285.009 305.187 -288.112 305.187H-322.632C-325.735 305.187 -328.25 302.672 -328.25 299.569V258.025C-328.25 254.922 -325.735 252.406 -322.632 252.406H-288.112ZM-288.112 306.525C-285.009 306.525 -282.493 309.04 -282.493 312.143V353.688C-282.493 356.791 -285.009 359.307 -288.112 359.307H-322.632C-325.735 359.307 -328.25 356.791 -328.25 353.688V312.143C-328.25 309.04 -325.735 306.525 -322.632 306.525H-288.112ZM-288.112 360.644C-285.009 360.644 -282.493 363.16 -282.493 366.262V407.807C-282.493 410.91 -285.009 413.425 -288.112 413.425H-322.632C-325.735 413.425 -328.25 410.91 -328.25 407.807V366.262C-328.25 363.16 -325.735 360.644 -322.632 360.644H-288.112ZM-288.112 414.762C-285.009 414.762 -282.493 417.278 -282.493 420.381V461.925C-282.493 465.028 -285.009 467.543 -288.112 467.543H-322.632C-325.735 467.543 -328.25 465.028 -328.25 461.925V420.381C-328.25 417.278 -325.735 414.762 -322.632 414.762H-288.112ZM-375.167 461.925C-375.167 465.028 -372.652 467.543 -369.549 467.543H-335.028C-331.925 467.543 -329.409 465.028 -329.409 461.925V420.381C-329.409 417.278 -331.925 414.762 -335.028 414.762H-369.549C-372.652 414.762 -375.167 417.278 -375.167 420.381V461.925ZM-375.167 407.807C-375.167 410.91 -372.652 413.425 -369.549 413.425H-335.028C-331.925 413.425 -329.409 410.91 -329.409 407.807V366.262C-329.409 363.16 -331.925 360.644 -335.028 360.644H-369.549C-372.652 360.644 -375.167 363.16 -375.167 366.262V407.807ZM-375.167 353.688C-375.167 356.791 -372.652 359.307 -369.549 359.307H-335.028C-331.925 359.307 -329.409 356.791 -329.409 353.688V312.143C-329.409 309.04 -331.925 306.525 -335.028 306.525H-369.549C-372.652 306.525 -375.167 309.04 -375.167 312.143V353.688ZM-375.167 299.569C-375.167 302.672 -372.652 305.187 -369.549 305.187H-335.028C-331.925 305.187 -329.409 302.672 -329.409 299.569V258.025C-329.409 254.922 -331.925 252.406 -335.028 252.406H-369.549C-372.652 252.406 -375.167 254.922 -375.167 258.025V299.569ZM-375.167 245.451C-375.167 248.554 -372.652 251.069 -369.549 251.069H-335.028C-331.925 251.069 -329.409 248.554 -329.409 245.451V203.905C-329.409 200.802 -331.925 198.287 -335.028 198.287H-369.549C-372.652 198.287 -375.167 200.802 -375.167 203.905V245.451ZM-375.167 191.331C-375.167 194.434 -372.652 196.95 -369.549 196.95H-335.028C-331.925 196.95 -329.409 194.434 -329.409 191.331V149.787C-329.409 146.684 -331.925 144.169 -335.028 144.169H-369.549C-372.652 144.169 -375.167 146.684 -375.167 149.787V191.331ZM-375.167 137.213C-375.167 140.316 -372.652 142.831 -369.549 142.831H-335.028C-331.925 142.831 -329.409 140.316 -329.409 137.213V95.6675C-329.409 92.5645 -331.925 90.0491 -335.028 90.0491H-369.549C-372.652 90.0491 -375.167 92.5645 -375.167 95.6675V137.213ZM-375.167 83.0935C-375.167 86.1964 -372.652 88.7119 -369.549 88.7119H-335.028C-331.925 88.7119 -329.409 86.1964 -329.409 83.0935V41.5492C-329.409 38.4463 -331.925 35.9308 -335.028 35.9308H-369.549C-372.652 35.9308 -375.167 38.4463 -375.167 41.5492V83.0935ZM-375.167 28.9753C-375.167 32.0783 -372.652 34.5937 -369.549 34.5937H-335.028C-331.925 34.5937 -329.409 32.0783 -329.409 28.9753V-12.5703C-329.409 -15.6733 -331.925 -18.1887 -335.028 -18.1887H-369.549C-372.652 -18.1887 -375.167 -15.6733 -375.167 -12.5703V28.9753ZM-375.167 -25.1442C-375.167 -22.0413 -372.652 -19.5259 -369.549 -19.5259H-335.028C-331.925 -19.5259 -329.409 -22.0413 -329.409 -25.1442V-66.6885C-329.409 -69.7914 -331.925 -72.3069 -335.028 -72.3069H-369.549C-372.652 -72.3069 -375.167 -69.7914 -375.167 -66.6885V-25.1442ZM-375.167 -79.2625C-375.167 -76.1595 -372.652 -73.644 -369.549 -73.644H-335.028C-331.925 -73.644 -329.409 -76.1595 -329.409 -79.2625V-120.807C-329.409 -123.91 -331.925 -126.425 -335.028 -126.425H-369.549C-372.652 -126.425 -375.167 -123.91 -375.167 -120.807V-79.2625ZM-375.167 -133.381C-375.167 -130.278 -372.652 -127.762 -369.549 -127.762H-335.028C-331.925 -127.762 -329.409 -130.278 -329.409 -133.381V-174.926C-329.409 -178.029 -331.925 -180.545 -335.028 -180.545H-369.549C-372.652 -180.545 -375.167 -178.029 -375.167 -174.926V-133.381ZM-381.945 -180.545C-378.842 -180.545 -376.326 -178.029 -376.326 -174.926V-133.381C-376.326 -130.278 -378.842 -127.762 -381.945 -127.762H-416.468C-419.571 -127.762 -422.086 -130.278 -422.086 -133.381V-174.926C-422.086 -178.029 -419.571 -180.545 -416.468 -180.545H-381.945ZM-381.945 -126.425C-378.842 -126.425 -376.326 -123.91 -376.326 -120.807V-79.2625C-376.326 -76.1595 -378.842 -73.644 -381.945 -73.644H-416.468C-419.571 -73.644 -422.086 -76.1595 -422.086 -79.2625V-120.807C-422.086 -123.91 -419.571 -126.425 -416.468 -126.425H-381.945ZM-381.945 -72.3069C-378.842 -72.3069 -376.326 -69.7914 -376.326 -66.6885V-25.1442C-376.326 -22.0413 -378.842 -19.5259 -381.945 -19.5259H-416.468C-419.571 -19.5259 -422.086 -22.0413 -422.086 -25.1442V-66.6885C-422.086 -69.7914 -419.571 -72.3069 -416.468 -72.3069H-381.945ZM-381.945 -18.1887C-378.842 -18.1887 -376.326 -15.6733 -376.326 -12.5703V28.9753C-376.326 32.0783 -378.842 34.5937 -381.945 34.5937L-416.468 34.5937C-419.571 34.5937 -422.086 32.0783 -422.086 28.9753V-12.5703C-422.086 -15.6733 -419.571 -18.1887 -416.468 -18.1887H-381.945ZM-381.945 35.9308C-378.842 35.9308 -376.326 38.4463 -376.326 41.5492V83.0935C-376.326 86.1964 -378.842 88.7119 -381.945 88.7119L-416.468 88.7119C-419.571 88.7119 -422.086 86.1964 -422.086 83.0935V41.5492C-422.086 38.4463 -419.571 35.9308 -416.468 35.9308L-381.945 35.9308ZM-381.945 90.0491C-378.842 90.0491 -376.326 92.5645 -376.326 95.6675V137.213C-376.326 140.316 -378.842 142.831 -381.945 142.831L-416.468 142.831C-419.571 142.831 -422.086 140.316 -422.086 137.213V95.6675C-422.086 92.5645 -419.571 90.0491 -416.468 90.0491L-381.945 90.0491ZM-381.945 144.169C-378.842 144.169 -376.326 146.684 -376.326 149.787V191.331C-376.326 194.434 -378.842 196.95 -381.945 196.95L-416.468 196.95C-419.571 196.95 -422.086 194.434 -422.086 191.331V149.787C-422.086 146.684 -419.571 144.169 -416.468 144.169L-381.945 144.169ZM-381.945 198.287C-378.842 198.287 -376.326 200.802 -376.326 203.905V245.451C-376.326 248.554 -378.842 251.069 -381.945 251.069L-416.468 251.069C-419.571 251.069 -422.086 248.554 -422.086 245.451V203.905C-422.086 200.802 -419.571 198.287 -416.468 198.287L-381.945 198.287ZM-381.945 252.406C-378.842 252.406 -376.326 254.922 -376.326 258.025V299.569C-376.326 302.672 -378.842 305.187 -381.945 305.187H-416.468C-419.571 305.187 -422.086 302.672 -422.086 299.569V258.025C-422.086 254.922 -419.571 252.406 -416.468 252.406L-381.945 252.406ZM-381.945 306.525C-378.842 306.525 -376.326 309.04 -376.326 312.143V353.688C-376.326 356.791 -378.842 359.307 -381.945 359.307H-416.468C-419.571 359.307 -422.086 356.791 -422.086 353.688V312.143C-422.086 309.04 -419.571 306.525 -416.468 306.525H-381.945ZM-381.945 360.644C-378.842 360.644 -376.326 363.16 -376.326 366.262V407.807C-376.326 410.91 -378.842 413.425 -381.945 413.425H-416.468C-419.571 413.425 -422.086 410.91 -422.086 407.807V366.262C-422.086 363.16 -419.571 360.644 -416.468 360.644H-381.945ZM-381.945 414.762C-378.842 414.762 -376.326 417.278 -376.326 420.381V461.925C-376.326 465.028 -378.842 467.543 -381.945 467.543L-416.468 467.543C-419.571 467.543 -422.086 465.028 -422.086 461.925V420.381C-422.086 417.278 -419.571 414.762 -416.468 414.762H-381.945Z" fill="#B4B2B2" fill-opacity="0.15"/>
</svg>
