<svg width="30" height="30" viewBox="0 0 30 30" fill="none" xmlns="http://www.w3.org/2000/svg">
<path d="M22.9567 7.11233H7.04324C4.96902 7.11233 3.2882 8.79351 3.2882 10.8674V21.5225C3.2882 23.5964 4.96902 25.2776 7.04324 25.2776H9.90883V29.1848C9.90883 29.2094 9.9366 29.2239 9.95664 29.2094L15.8232 25.3205L17.2945 25.293H21.4225L22.9567 25.2776C25.0306 25.2776 26.7118 23.5964 26.7118 21.5225V10.8674C26.7118 8.79351 25.0306 7.11233 22.9567 7.11233ZM9.36355 12.757C9.36355 11.7192 10.2048 10.8776 11.243 10.8776C12.2808 10.8776 13.1221 11.7192 13.1221 12.757C13.1221 13.7952 12.2808 14.6365 11.243 14.6365C10.2048 14.6365 9.36355 13.7952 9.36355 12.757ZM14.9133 22.1487C12.5308 22.1487 10.5627 20.4791 10.2618 18.3166H19.5652C19.2639 20.4791 17.2962 22.1487 14.9133 22.1487ZM18.7805 14.6365C17.7427 14.6365 16.9011 13.7952 16.9011 12.757C16.9011 11.7192 17.7427 10.8776 18.7805 10.8776C19.8187 10.8776 20.66 11.7192 20.66 12.757C20.66 13.7952 19.8187 14.6365 18.7805 14.6365ZM27.4877 19.6564V12.9303H28.4186C29.1003 12.9303 29.6529 13.483 29.6529 14.1647V18.4224C29.6529 19.1041 29.1003 19.6568 28.4186 19.6568L27.4877 19.6564ZM0.34668 18.4224V14.1647C0.34668 13.483 0.899336 12.9303 1.58102 12.9303H2.51195V19.6568H1.58102C0.899336 19.6564 0.34668 19.1038 0.34668 18.4224ZM16.7393 2.25901C16.7393 3.08272 16.1912 3.78058 15.4407 4.00733V5.5855H14.386V4.00733C13.6354 3.78058 13.0873 3.08272 13.0873 2.25901C13.0873 1.25249 13.9064 0.43335 14.9133 0.43335C15.9202 0.43335 16.7393 1.25249 16.7393 2.25901Z" fill="url(#paint0_linear_49958_22043)"/>
<path d="M22.9567 7.11233H7.04324C4.96902 7.11233 3.2882 8.79351 3.2882 10.8674V21.5225C3.2882 23.5964 4.96902 25.2776 7.04324 25.2776H9.90883V29.1848C9.90883 29.2094 9.9366 29.2239 9.95664 29.2094L15.8232 25.3205L17.2945 25.293H21.4225L22.9567 25.2776C25.0306 25.2776 26.7118 23.5964 26.7118 21.5225V10.8674C26.7118 8.79351 25.0306 7.11233 22.9567 7.11233ZM9.36355 12.757C9.36355 11.7192 10.2048 10.8776 11.243 10.8776C12.2808 10.8776 13.1221 11.7192 13.1221 12.757C13.1221 13.7952 12.2808 14.6365 11.243 14.6365C10.2048 14.6365 9.36355 13.7952 9.36355 12.757ZM14.9133 22.1487C12.5308 22.1487 10.5627 20.4791 10.2618 18.3166H19.5652C19.2639 20.4791 17.2962 22.1487 14.9133 22.1487ZM18.7805 14.6365C17.7427 14.6365 16.9011 13.7952 16.9011 12.757C16.9011 11.7192 17.7427 10.8776 18.7805 10.8776C19.8187 10.8776 20.66 11.7192 20.66 12.757C20.66 13.7952 19.8187 14.6365 18.7805 14.6365ZM27.4877 19.6564V12.9303H28.4186C29.1003 12.9303 29.6529 13.483 29.6529 14.1647V18.4224C29.6529 19.1041 29.1003 19.6568 28.4186 19.6568L27.4877 19.6564ZM0.34668 18.4224V14.1647C0.34668 13.483 0.899336 12.9303 1.58102 12.9303H2.51195V19.6568H1.58102C0.899336 19.6564 0.34668 19.1038 0.34668 18.4224ZM16.7393 2.25901C16.7393 3.08272 16.1912 3.78058 15.4407 4.00733V5.5855H14.386V4.00733C13.6354 3.78058 13.0873 3.08272 13.0873 2.25901C13.0873 1.25249 13.9064 0.43335 14.9133 0.43335C15.9202 0.43335 16.7393 1.25249 16.7393 2.25901Z" fill="url(#paint1_linear_49958_22043)"/>
<defs>
<linearGradient id="paint0_linear_49958_22043" x1="14.8928" y1="29.2152" x2="15.8127" y2="0.455929" gradientUnits="userSpaceOnUse">
<stop stop-color="#87174F"/>
<stop offset="0.5" stop-color="#AB2856"/>
<stop offset="1" stop-color="#B73A4E"/>
</linearGradient>
<linearGradient id="paint1_linear_49958_22043" x1="14.8928" y1="29.2152" x2="15.8127" y2="0.455929" gradientUnits="userSpaceOnUse">
<stop stop-color="#87174F"/>
<stop offset="0.5" stop-color="#AB2856"/>
<stop offset="1" stop-color="#B73A4E"/>
</linearGradient>
</defs>
</svg>
