<svg width="48" height="24" viewBox="0 0 48 24" fill="none" xmlns="http://www.w3.org/2000/svg">
<rect x="0.5" y="0.5" width="47" height="23" rx="11.5" fill="white" fill-opacity="0.08"/>
<rect x="0.5" y="0.5" width="47" height="23" rx="11.5" stroke="#EBEDF0"/>
<rect x="2" y="2" width="20" height="20" rx="10" fill="url(#paint0_linear_49958_22032)"/>
<g clip-path="url(#clip0_49958_22032)">
<path d="M9.1715 8.4645L8.4645 7.7575C8.2695 7.56225 7.9525 7.56225 7.7575 7.7575C7.56225 7.95275 7.56225 8.26925 7.7575 8.4645L8.4645 9.1715C8.51084 9.21804 8.56593 9.25495 8.6266 9.28009C8.68728 9.30523 8.75232 9.31812 8.818 9.318C8.946 9.318 9.074 9.26925 9.1715 9.1715C9.36675 8.97625 9.36675 8.65975 9.1715 8.4645ZM7.5 11.5H6.5C6.224 11.5 6 11.724 6 12C6 12.276 6.224 12.5 6.5 12.5H7.5C7.776 12.5 8 12.276 8 12C8 11.724 7.776 11.5 7.5 11.5ZM9.1715 14.8285C8.9765 14.6333 8.6595 14.6333 8.4645 14.8285L7.7575 15.5355C7.56225 15.7307 7.56225 16.0473 7.7575 16.2425C7.855 16.3403 7.983 16.389 8.111 16.389C8.239 16.389 8.367 16.3403 8.4645 16.2425L9.1715 15.5355C9.36675 15.3403 9.36675 15.0237 9.1715 14.8285ZM12 16C11.724 16 11.5 16.224 11.5 16.5V17.5C11.5 17.776 11.724 18 12 18C12.276 18 12.5 17.776 12.5 17.5V16.5C12.5 16.224 12.276 16 12 16ZM16.2425 15.5355L15.5355 14.8285C15.3405 14.6333 15.0235 14.6333 14.8285 14.8285C14.6333 15.0237 14.6333 15.3403 14.8285 15.5355L15.5355 16.2425C15.633 16.3403 15.761 16.389 15.889 16.389C16.017 16.389 16.145 16.3403 16.2425 16.2425C16.4377 16.0473 16.4377 15.7307 16.2425 15.5355ZM17.5 11.5H16.5C16.224 11.5 16 11.724 16 12C16 12.276 16.224 12.5 16.5 12.5H17.5C17.776 12.5 18 12.276 18 12C18 11.724 17.776 11.5 17.5 11.5ZM16.2425 7.7575C16.0475 7.56225 15.7305 7.56225 15.5355 7.7575L14.8285 8.4645C14.6333 8.65975 14.6333 8.97625 14.8285 9.1715C14.926 9.26925 15.054 9.318 15.182 9.318C15.31 9.318 15.438 9.26925 15.5355 9.1715L16.2425 8.4645C16.4377 8.26925 16.4377 7.95275 16.2425 7.7575ZM12 6C11.724 6 11.5 6.224 11.5 6.5V7.5C11.5 7.776 11.724 8 12 8C12.276 8 12.5 7.776 12.5 7.5V6.5C12.5 6.224 12.276 6 12 6ZM12 8.75C10.208 8.75 8.75 10.208 8.75 12C8.75 13.792 10.208 15.25 12 15.25C13.792 15.25 15.25 13.792 15.25 12C15.25 10.208 13.792 8.75 12 8.75ZM12 14.25C10.7595 14.25 9.75 13.2405 9.75 12C9.75 10.7595 10.7595 9.75 12 9.75C13.2405 9.75 14.25 10.7595 14.25 12C14.25 13.2405 13.2405 14.25 12 14.25Z" fill="white"/>
</g>
<g clip-path="url(#clip1_49958_22032)">
<path d="M41.5313 13.1773C39.7806 14.5399 37.3329 14.4166 35.7238 12.8075C34.1147 11.1983 33.9913 8.75062 35.3539 7C34.3334 7.1932 33.3582 7.60008 32.5684 8.3899C30.4772 10.4811 30.4772 13.8716 32.5684 15.9628C34.6596 18.0541 38.0501 18.0541 40.1413 15.9628C40.9312 15.173 41.3381 14.1979 41.5313 13.1773Z" stroke="#A8AEBF" stroke-miterlimit="10" stroke-linecap="round" stroke-linejoin="round"/>
</g>
<defs>
<linearGradient id="paint0_linear_49958_22032" x1="11.927" y1="22" x2="12.5778" y2="2.01644" gradientUnits="userSpaceOnUse">
<stop stop-color="#87174F"/>
<stop offset="0.5" stop-color="#AB2856"/>
<stop offset="1" stop-color="#B73A4E"/>
</linearGradient>
<clipPath id="clip0_49958_22032">
<rect width="12" height="12" fill="white" transform="translate(6 6)"/>
</clipPath>
<clipPath id="clip1_49958_22032">
<rect width="12" height="12" fill="white" transform="translate(30 6)"/>
</clipPath>
</defs>
</svg>
