<svg width="20" height="20" viewBox="0 0 20 20" fill="none" xmlns="http://www.w3.org/2000/svg">
<g clip-path="url(#clip0_49958_21988)">
<path d="M10 20C4.478 20 0 15.522 0 10C0 4.478 4.478 0 10 0C15.522 0 20 4.478 20 10C20 15.522 15.522 20 10 20Z" fill="#25D366"/>
<path fill-rule="evenodd" clip-rule="evenodd" d="M14.6783 5.3445C13.4383 4.1025 11.7863 3.4185 10.0283 3.4165C6.40634 3.4165 3.45634 6.3645 3.45634 9.9885C3.45634 11.1465 3.75834 12.2785 4.33434 13.2745L3.40234 16.6805L6.88634 15.7665C7.84634 16.2905 8.92634 16.5665 10.0263 16.5665H10.0283C13.6503 16.5665 16.5983 13.6185 16.6003 9.9945C16.6023 8.2385 15.9203 6.5865 14.6783 5.3445ZM10.0303 15.4565H10.0283C9.04834 15.4565 8.08634 15.1925 7.24834 14.6945L7.04834 14.5765L4.98034 15.1185L5.53234 13.1025L5.40234 12.8965C4.85634 12.0265 4.56634 11.0225 4.56634 9.9885C4.56834 6.9765 7.01834 4.5265 10.0323 4.5265C11.4923 4.5265 12.8623 5.0965 13.8943 6.1285C14.9263 7.1605 15.4943 8.5345 15.4923 9.9925C15.4923 13.0065 13.0403 15.4565 10.0303 15.4565ZM13.0263 11.3645C12.8623 11.2825 12.0543 10.8845 11.9043 10.8305C11.7543 10.7765 11.6443 10.7485 11.5343 10.9125C11.4243 11.0765 11.1103 11.4465 11.0143 11.5565C10.9183 11.6665 10.8223 11.6805 10.6583 11.5985C10.4943 11.5165 9.96434 11.3425 9.33834 10.7825C8.85034 10.3465 8.52034 9.8085 8.42434 9.6445C8.32834 9.4805 8.41434 9.3905 8.49634 9.3085C8.57034 9.2345 8.66034 9.1165 8.74234 9.0205C8.82434 8.9245 8.85234 8.8565 8.90634 8.7465C8.96034 8.6365 8.93434 8.5405 8.89234 8.4585C8.85034 8.3765 8.52234 7.5685 8.38634 7.2385C8.25234 6.9185 8.11834 6.9625 8.01634 6.9565C7.92034 6.9525 7.81034 6.9505 7.70234 6.9505C7.59234 6.9505 7.41434 6.9925 7.26434 7.1565C7.11434 7.3205 6.69034 7.7185 6.69034 8.5265C6.69034 9.3345 7.27834 10.1165 7.36034 10.2245C7.44234 10.3345 8.51834 11.9925 10.1663 12.7045C10.5583 12.8745 10.8643 12.9745 11.1023 13.0505C11.4963 13.1765 11.8543 13.1585 12.1363 13.1165C12.4523 13.0685 13.1083 12.7185 13.2443 12.3365C13.3803 11.9525 13.3803 11.6245 13.3403 11.5565C13.3003 11.4885 13.1903 11.4485 13.0263 11.3645Z" fill="white"/>
</g>
<defs>
<clipPath id="clip0_49958_21988">
<rect width="20" height="20" fill="white"/>
</clipPath>
</defs>
</svg>
