<svg width="24" height="24" viewBox="0 0 24 24" fill="none" xmlns="http://www.w3.org/2000/svg">
<path d="M14.0527 1.7373H9.9474C5.96845 1.7373 2.76318 4.94257 2.76318 8.92151V12.0005C2.76318 14.7794 4.35792 17.3057 6.86845 18.4899V21.932C6.86845 22.1057 7.02634 22.2636 7.23161 22.2636C7.31055 22.2636 7.40529 22.232 7.46845 22.1689L10.4369 19.1847H14.0527C18.0316 19.1847 21.2369 15.9794 21.2369 12.0005V8.92151C21.2369 4.94257 18.0316 1.7373 14.0527 1.7373ZM16.7527 15.2057L15.7263 16.232C14.6211 17.3057 11.779 16.0741 9.26845 13.5163C6.75792 10.9584 5.63687 8.06888 6.69476 6.9952L7.72108 5.96888C8.13161 5.58994 8.77897 5.60573 9.1895 6.00046L10.6737 7.54783C11.0527 7.95836 11.0527 8.57415 10.6421 8.98467C10.5316 9.0952 10.4053 9.15836 10.2632 9.22151C9.74213 9.37941 9.47371 9.88467 9.60003 10.4057C9.85266 11.5426 11.2895 12.9636 12.379 13.2478C12.8842 13.3741 13.4053 13.0899 13.579 12.6005C13.7527 12.0952 14.3211 11.811 14.8579 11.9847C15.0158 12.032 15.1421 12.1426 15.2684 12.2373L16.7527 13.7847C17.1316 14.1636 17.1316 14.7952 16.7527 15.2057ZM12.9158 6.61625C12.8053 6.61625 12.7106 6.61625 12.6158 6.64783C12.4421 6.67941 12.2527 6.5373 12.2369 6.33204C12.2211 6.12678 12.3474 5.96888 12.5369 5.95309C12.6632 5.92151 12.7895 5.92151 12.9158 5.92151C14.8106 5.92151 16.3263 7.46888 16.3579 9.33204C16.3579 9.45836 16.3579 9.58467 16.3263 9.71099C16.2948 9.88467 16.1527 10.0426 15.9474 10.011C15.7421 9.97941 15.6158 9.8373 15.6474 9.63204C15.6474 9.52151 15.679 9.42678 15.679 9.33204C15.6632 7.84783 14.4316 6.61625 12.9158 6.61625ZM14.9684 9.36362C14.9369 9.5373 14.7948 9.6952 14.5895 9.66362C14.4316 9.63204 14.2895 9.50572 14.2895 9.36362C14.2895 8.62151 13.6737 8.00572 12.9316 8.00572C12.7579 8.0373 12.5684 7.87941 12.5527 7.68994C12.5211 7.51625 12.679 7.32678 12.8527 7.31099H12.9C14.0842 7.31099 14.9684 8.22678 14.9684 9.36362ZM17.5895 10.4531C17.5579 10.6268 17.3842 10.7531 17.2106 10.7373C17.0369 10.7215 16.9106 10.532 16.9263 10.3584V10.311C17.0053 10.011 17.0369 9.6952 17.0369 9.36362C17.0369 7.10572 15.1895 5.25836 12.9316 5.25836H12.6316C12.4579 5.28994 12.2684 5.13204 12.2684 4.94257C12.2369 4.76888 12.3948 4.57941 12.5684 4.57941C12.6948 4.57941 12.8211 4.54783 12.9316 4.54783C15.5684 4.54783 17.7316 6.6952 17.7316 9.34783C17.7158 9.71099 17.6684 10.1057 17.5895 10.4531Z" fill="url(#paint0_linear_49958_21999)"/>
<defs>
<linearGradient id="paint0_linear_49958_21999" x1="4.37718" y1="4.32473" x2="18.1363" y2="18.0838" gradientUnits="userSpaceOnUse">
<stop stop-color="#7E57C2"/>
<stop offset="1" stop-color="#4527A0"/>
</linearGradient>
</defs>
</svg>
