<svg width="20" height="20" viewBox="0 0 20 20" fill="none" xmlns="http://www.w3.org/2000/svg">
<path d="M16.9309 3.64138C15.6342 3.04621 14.2658 2.62178 12.86 2.37873C12.8472 2.37635 12.834 2.37806 12.8222 2.38362C12.8105 2.38917 12.8008 2.39828 12.7945 2.40967C12.6187 2.72236 12.424 3.13025 12.2876 3.45088C10.7504 3.22072 9.22101 3.22072 7.7153 3.45088C7.5789 3.12314 7.3771 2.72236 7.2005 2.40967C7.19397 2.39853 7.18423 2.38961 7.17256 2.38409C7.16089 2.37857 7.14782 2.3767 7.13507 2.37873C5.70663 2.62474 4.33968 3.05568 3.06413 3.64138C3.05303 3.64609 3.04367 3.65413 3.03733 3.66439C0.444522 7.53802 -0.265791 11.3165 0.0826466 15.048C0.0842091 15.0663 0.0944826 15.0837 0.108662 15.0949C1.81933 16.3512 3.47644 17.1138 5.10273 17.6194C5.11537 17.6231 5.12887 17.623 5.14141 17.6188C5.15395 17.6147 5.16493 17.6069 5.17288 17.5963C5.55757 17.071 5.9005 16.517 6.19452 15.9345C6.21187 15.9004 6.1953 15.8599 6.15983 15.8464C5.61589 15.6401 5.09796 15.3885 4.59972 15.1028C4.5603 15.0798 4.55714 15.0235 4.59343 14.9965C4.69856 14.9179 4.80187 14.8369 4.90327 14.7536C4.91217 14.7463 4.92293 14.7416 4.93435 14.74C4.94577 14.7385 4.9574 14.7402 4.96792 14.7449C8.24105 16.2393 11.7846 16.2393 15.0191 14.7449C15.0296 14.7399 15.0414 14.7379 15.053 14.7393C15.0645 14.7408 15.0755 14.7454 15.0845 14.7528C15.186 14.8366 15.2896 14.9178 15.3951 14.9964C15.4314 15.0234 15.429 15.0798 15.3896 15.1028C14.8914 15.394 14.3735 15.6401 13.8287 15.8456C13.8204 15.8488 13.8127 15.8538 13.8064 15.8601C13.8001 15.8665 13.7951 15.8741 13.7919 15.8825C13.7887 15.8909 13.7873 15.8998 13.7879 15.9088C13.7884 15.9177 13.7908 15.9265 13.7949 15.9345C14.0952 16.5162 14.4382 17.0701 14.8157 17.5955C14.8315 17.6178 14.8599 17.6273 14.8859 17.6193C16.5201 17.1138 18.1772 16.3511 19.8878 15.0948C19.8952 15.0894 19.9013 15.0826 19.9058 15.0746C19.9103 15.0667 19.913 15.0579 19.9139 15.0488C20.3309 10.7347 19.2154 6.98724 16.9568 3.66517C16.9513 3.6544 16.9421 3.64596 16.9309 3.64138ZM6.68339 12.7759C5.69796 12.7759 4.88597 11.8712 4.88597 10.7601C4.88597 9.64904 5.68218 8.74431 6.68339 8.74431C7.69241 8.74431 8.49655 9.65697 8.48077 10.7601C8.48077 11.8712 7.68452 12.7759 6.68339 12.7759ZM13.329 12.7759C12.3436 12.7759 11.5316 11.8712 11.5316 10.7601C11.5316 9.64904 12.3278 8.74431 13.329 8.74431C14.338 8.74431 15.1421 9.65697 15.1264 10.7601C15.1264 11.8712 14.3381 12.7759 13.329 12.7759Z" fill="#5865F2"/>
</svg>
