<svg width="20" height="20" viewBox="0 0 20 20" fill="none" xmlns="http://www.w3.org/2000/svg">
<path fill-rule="evenodd" clip-rule="evenodd" d="M10 0C4.36668 0 0 4.12641 0 9.7C0 12.6154 1.1948 15.1346 3.14055 16.8746C3.30391 17.0208 3.4025 17.2256 3.40918 17.4448L3.46363 19.2236C3.48102 19.791 4.06711 20.1602 4.58633 19.931L6.57117 19.0548C6.73938 18.9806 6.92804 18.9667 7.10527 19.0155C8.01738 19.2664 8.98812 19.4 9.99996 19.4C15.6332 19.4 20 15.2736 20 9.69996C20 4.12637 15.6333 0 10 0Z" fill="url(#paint0_radial_49958_21975)"/>
<path fill-rule="evenodd" clip-rule="evenodd" d="M3.99518 12.5368L6.93268 7.87637C7.39994 7.13496 8.40053 6.95035 9.10162 7.47617L11.438 9.22844C11.5423 9.3067 11.6693 9.34883 11.7997 9.34846C11.9301 9.34808 12.0568 9.30523 12.1607 9.22637L15.3161 6.83168C15.7372 6.51207 16.287 7.0161 16.0051 7.46336L13.0676 12.1238C12.6003 12.8652 11.5997 13.0498 10.8987 12.5239L8.56229 10.7716C8.45795 10.6934 8.33097 10.6513 8.20056 10.6517C8.07016 10.652 7.94342 10.6949 7.83955 10.7738L4.6842 13.1684C4.26303 13.488 3.71326 12.984 3.99518 12.5368Z" fill="white"/>
<defs>
<radialGradient id="paint0_radial_49958_21975" cx="0" cy="0" r="1" gradientUnits="userSpaceOnUse" gradientTransform="translate(3.85156 19.7572) scale(21.7812 21.7812)">
<stop stop-color="#0099FF"/>
<stop offset="0.61" stop-color="#A033FF"/>
<stop offset="0.935" stop-color="#FF5280"/>
<stop offset="1" stop-color="#FF7061"/>
</radialGradient>
</defs>
</svg>
