<svg width="20" height="20" viewBox="0 0 20 20" fill="none" xmlns="http://www.w3.org/2000/svg">
<g clip-path="url(#clip0_49958_21979)">
<path d="M1.25025 1.36108C-0.321419 2.99358 0.000247426 4.72774 0.000247426 9.99608C0.000247426 14.3711 -0.763086 18.7569 3.23191 19.7894C4.47941 20.1102 15.5327 20.1102 16.7786 19.7877C18.4419 19.3586 19.7952 18.0094 19.9802 15.6569C20.0061 15.3286 20.0061 4.66941 19.9794 4.33441C19.7827 1.82858 18.2402 0.384409 16.2077 0.0919088C15.7419 0.0244088 15.6486 0.00440878 13.2586 0.000242114C4.78108 0.00440878 2.92275 -0.373091 1.25025 1.36108Z" fill="url(#paint0_linear_49958_21979)"/>
<path d="M9.99834 2.61601C6.97251 2.61601 4.09917 2.34685 3.00167 5.16351C2.54834 6.32685 2.61417 7.83768 2.61417 10.001C2.61417 11.8993 2.55334 13.6835 3.00167 14.8377C4.09667 17.656 6.99334 17.386 9.99667 17.386C12.8942 17.386 15.8817 17.6877 16.9925 14.8377C17.4467 13.6627 17.38 12.1743 17.38 10.001C17.38 7.11601 17.5392 5.25351 16.14 3.85518C14.7233 2.43851 12.8075 2.61601 9.99501 2.61601H9.99834ZM9.33667 3.94685C15.6483 3.93685 16.4517 3.23518 16.0083 12.9827C15.8508 16.4302 13.2258 16.0518 9.99917 16.0518C4.11584 16.0518 3.94667 15.8835 3.94667 9.99768C3.94667 4.04351 4.41334 3.95018 9.33667 3.94518V3.94685ZM13.94 5.17268C13.7051 5.17268 13.4798 5.26601 13.3136 5.43213C13.1475 5.59826 13.0542 5.82358 13.0542 6.05851C13.0542 6.29345 13.1475 6.51877 13.3136 6.68489C13.4798 6.85102 13.7051 6.94435 13.94 6.94435C14.1749 6.94435 14.4003 6.85102 14.5664 6.68489C14.7325 6.51877 14.8258 6.29345 14.8258 6.05851C14.8258 5.82358 14.7325 5.59826 14.5664 5.43213C14.4003 5.26601 14.1749 5.17268 13.94 5.17268ZM9.99834 6.20851C9.50036 6.20857 9.00726 6.30671 8.54721 6.49733C8.08715 6.68795 7.66914 6.96732 7.31706 7.31948C6.60598 8.03072 6.20656 8.99529 6.20667 10.001C6.20679 11.0067 6.60641 11.9712 7.31765 12.6823C8.02888 13.3934 8.99345 13.7928 9.99917 13.7927C11.0049 13.7926 11.9694 13.3929 12.6805 12.6817C13.3915 11.9705 13.791 11.0059 13.7908 10.0002C13.7907 8.99446 13.3911 8.02997 12.6799 7.31889C11.9686 6.60782 11.0041 6.2084 9.99834 6.20851ZM9.99834 7.53935C13.2525 7.53935 13.2567 12.4627 9.99834 12.4627C6.74501 12.4627 6.74001 7.53935 9.99834 7.53935Z" fill="white"/>
</g>
<defs>
<linearGradient id="paint0_linear_49958_21979" x1="1.2886" y1="18.7228" x2="19.8765" y2="2.63522" gradientUnits="userSpaceOnUse">
<stop stop-color="#FFDD55"/>
<stop offset="0.5" stop-color="#FF543E"/>
<stop offset="1" stop-color="#C837AB"/>
</linearGradient>
<clipPath id="clip0_49958_21979">
<rect width="20" height="20" fill="white"/>
</clipPath>
</defs>
</svg>
