<svg width="20" height="20" viewBox="0 0 20 20" fill="none" xmlns="http://www.w3.org/2000/svg">
<g clip-path="url(#clip0_49958_21983)">
<path d="M10 20C15.5228 20 20 15.5228 20 10C20 4.47715 15.5228 0 10 0C4.47715 0 0 4.47715 0 10C0 15.5228 4.47715 20 10 20Z" fill="url(#paint0_linear_49958_21983)"/>
<path fill-rule="evenodd" clip-rule="evenodd" d="M4.52685 9.89422C7.44205 8.6241 9.38599 7.78676 10.3586 7.38223C13.1357 6.22715 13.7128 6.02649 14.0889 6.01984C14.1716 6.0184 14.3566 6.03891 14.4764 6.13613C14.6541 6.28035 14.6551 6.5934 14.6354 6.80059C14.4849 8.38184 13.8337 12.2191 13.5024 13.9901C13.3622 14.7395 13.0862 14.9907 12.819 15.0153C12.2383 15.0688 11.7974 14.6315 11.2349 14.2629C10.3548 13.6859 9.85755 13.3268 9.00322 12.7638C8.01591 12.1132 8.65595 11.7556 9.21861 11.1712C9.36587 11.0182 11.9245 8.69094 11.974 8.47981C11.9803 8.4534 11.986 8.35496 11.9275 8.30301C11.869 8.25106 11.7827 8.26879 11.7205 8.28293C11.6322 8.30297 10.2262 9.23231 7.50244 11.0709C7.10334 11.345 6.74185 11.4785 6.41798 11.4715C6.06091 11.4638 5.37412 11.2696 4.86353 11.1036C4.23728 10.9001 3.73955 10.7924 3.78291 10.4467C3.80548 10.2666 4.05345 10.0825 4.52685 9.89422Z" fill="white"/>
</g>
<defs>
<linearGradient id="paint0_linear_49958_21983" x1="10" y1="0" x2="10" y2="19.8438" gradientUnits="userSpaceOnUse">
<stop stop-color="#2AABEE"/>
<stop offset="1" stop-color="#229ED9"/>
</linearGradient>
<clipPath id="clip0_49958_21983">
<rect width="20" height="20" fill="white"/>
</clipPath>
</defs>
</svg>
