<svg width="20" height="20" viewBox="0 0 20 20" fill="none" xmlns="http://www.w3.org/2000/svg">
<g clip-path="url(#clip0_50017_5491)">
<path d="M7.32135 10.5859C6.16752 10.5859 5.22885 11.5246 5.22885 12.6784V17.9075C5.22885 19.0613 6.16752 20 7.32135 20C8.47517 20 9.41385 19.0613 9.41385 17.9075V12.6784C9.41385 11.5246 8.47517 10.5859 7.32135 10.5859ZM4.05693 10.5859H2.03115C0.914121 10.5859 0.00537109 11.4947 0.00537109 12.6117C0.00537109 13.7287 0.91416 14.6375 2.03115 14.6375C3.14814 14.6375 4.05693 13.7287 4.05693 12.6117V10.5859Z" fill="#FF4340"/>
<path d="M0 7.32159C0 8.47542 0.938672 9.41409 2.0925 9.41409H7.32152C8.47539 9.41409 9.41406 8.47542 9.41406 7.32159C9.41406 6.16776 8.47539 5.22909 7.32156 5.22909H2.0925C0.938672 5.22905 0 6.16776 0 7.32159ZM7.38828 4.05718H9.41406V2.0314C9.41406 0.914365 8.50527 0.00561523 7.38828 0.00561523C6.27125 0.00561523 5.3625 0.914404 5.3625 2.0314C5.3625 3.14839 6.27125 4.05718 7.38828 4.05718Z" fill="#36C6FF"/>
<path d="M12.6784 9.41406C13.8323 9.41406 14.7709 8.47539 14.7709 7.32156V2.0925C14.771 0.938672 13.8323 0 12.6784 0C11.5246 0 10.5859 0.938672 10.5859 2.0925V7.32152C10.5859 8.47539 11.5246 9.41406 12.6784 9.41406ZM15.9429 9.41406H17.9686C19.0857 9.41406 19.9944 8.50527 19.9944 7.38828C19.9944 6.27125 19.0856 5.3625 17.9686 5.3625C16.8516 5.3625 15.9429 6.27129 15.9429 7.38828V9.41406Z" fill="#0DC46E"/>
<path d="M20 12.6784C20 11.5246 19.0613 10.5859 17.9075 10.5859H12.6784C11.5246 10.5859 10.5859 11.5246 10.5859 12.6784C10.5859 13.8323 11.5246 14.7709 12.6784 14.7709H17.9075C19.0613 14.771 20 13.8323 20 12.6784ZM12.6117 15.9429H10.5859V17.9686C10.5859 19.0857 11.4947 19.9944 12.6117 19.9944C13.7287 19.9944 14.6375 19.0856 14.6375 17.9686C14.6375 16.8516 13.7287 15.9429 12.6117 15.9429Z" fill="#FDCB02"/>
</g>
<defs>
<clipPath id="clip0_50017_5491">
<rect width="20" height="20" fill="white"/>
</clipPath>
</defs>
</svg>
